<?xml version="1.0" encoding="utf-8"?>
<!-- Generator: Adobe Illustrator 16.0.0, SVG Export Plug-In . SVG Version: 6.00 Build 0)  -->
<!DOCTYPE svg PUBLIC "-//W3C//DTD SVG 1.1//EN" "http://www.w3.org/Graphics/SVG/1.1/DTD/svg11.dtd">
<svg version="1.1" id="Layer_1" xmlns="http://www.w3.org/2000/svg" xmlns:xlink="http://www.w3.org/1999/xlink" x="0px" y="0px"
	 width="48px" height="48px" viewBox="0 0 48 48" enable-background="new 0 0 48 48" xml:space="preserve">
<path fill="#E44D26" d="M-43.164,9.601l-3.062,34.307l-13.765,3.816l-13.728-3.812l-3.059-34.312H-43.164L-43.164,9.601z"/>
<path fill="#F16529" d="M-59.971,44.806l11.123-3.084l2.616-29.315h-13.739V44.806z"/>
<path fill="#EBEBEB" d="M-65.924,20.823h5.953v-4.208h-10.552l0.1,1.128l1.035,11.597h9.417v-4.208h-5.568L-65.924,20.823z
	 M-64.976,31.445H-69.2l0.59,6.606l8.62,2.392l0.02-0.003v-4.38l-0.019,0.005l-4.687-1.266L-64.976,31.445L-64.976,31.445z"/>
<path d="M-73.651,0.276h2.139v2.113h1.957V0.276h2.139v6.398h-2.139V4.532h-1.957v2.143h-2.139V0.276L-73.651,0.276z M-64.605,2.398
	h-1.883V0.276h5.905v2.122h-1.883v4.276h-2.139L-64.605,2.398L-64.605,2.398L-64.605,2.398z M-59.646,0.276h2.229l1.372,2.248
	l1.37-2.248h2.231v6.398h-2.13V3.503l-1.472,2.275h-0.037l-1.472-2.275v3.172h-2.093V0.276z M-51.378,0.276h2.139V4.56h3.007v2.115
	h-5.146L-51.378,0.276L-51.378,0.276z"/>
<path fill="#FFFFFF" d="M-59.986,29.34h5.184l-0.49,5.458l-4.693,1.266v4.378l8.628-2.39l0.062-0.711l0.989-11.079l0.103-1.13
	h-9.782V29.34L-59.986,29.34z M-59.986,20.812v0.011h10.165l0.085-0.946l0.191-2.134l0.102-1.128h-10.543V20.812L-59.986,20.812z"/>
<path fill="#131313" d="M33.513,1.856h-2.78l2.892,3.142v1.494h-5.963v-1.75h2.896l-2.896-3.143V0.105h5.854L33.513,1.856z
	 M26.479,1.856h-2.787l2.898,3.142v1.494h-5.963v-1.75h2.893l-2.893-3.143V0.105h5.852V1.856z M19.513,1.928h-3.001v2.743h3.001
	v1.824h-5.139v-6.39h5.139V1.928z"/>
<path fill="#1572B6" d="M10.283,43.646L7.23,9.411H40.77l-3.057,34.228l-13.734,3.81L10.283,43.646z"/>
<path fill="#33A9DC" d="M24,44.539l11.099-3.076l2.608-29.253H24V44.539z"/>
<path fill="#FFFFFF" d="M24,24.613h5.556l0.384-4.3H24v-4.197h10.529l-0.1,1.127l-1.032,11.572H24V24.613z"/>
<path fill="#EBEBEB" d="M24.023,35.519h-0.02l-4.677-1.263l-0.298-3.348h-4.211l0.587,6.59l8.603,2.396h0.025v-4.375H24.023z"/>
<path fill="#FFFFFF" d="M29.201,28.631l-0.507,5.621l-4.683,1.263v4.375l8.607-2.388l0.062-0.71l0.731-8.161H29.201L29.201,28.631z"
	/>
<path fill="#EBEBEB" d="M24.016,16.117v4.199H13.875l-0.085-0.943l-0.193-2.129l-0.1-1.127H24.016z M24,24.613v4.198h-4.623
	l-0.081-0.943l-0.193-2.129l-0.1-1.126h4.995H24z"/>
</svg>
