<svg id="svg" version="1.1" xmlns="http://www.w3.org/2000/svg" xmlns:xlink="http://www.w3.org/1999/xlink" width="400" height="225" viewBox="0, 0, 400,225"><g id="svgg"><path id="path0" d="M118.540 64.558 C 117.540 64.885,116.539 65.489,112.813 68.015 C 110.750 69.413,105.734 72.794,101.667 75.528 C 91.937 82.069,91.718 82.229,90.904 83.410 C 89.505 85.442,89.571 84.008,89.632 111.055 L 89.688 135.521 90.142 136.504 C 92.722 142.089,100.897 142.333,103.409 136.901 C 103.833 135.982,103.859 135.556,103.958 127.743 C 104.083 117.909,103.593 118.958,108.061 118.958 C 112.510 118.958,112.081 118.111,112.093 126.927 C 112.106 137.576,112.328 138.357,115.876 140.251 L 116.771 140.729 132.396 140.729 L 148.021 140.729 149.072 140.174 C 154.436 137.343,154.404 129.900,149.016 127.172 L 147.813 126.563 137.452 126.458 L 127.092 126.354 126.515 125.777 C 125.774 125.036,125.528 121.228,126.138 119.942 C 126.721 118.713,126.188 118.750,143.123 118.750 L 158.727 118.750 159.311 119.252 L 159.896 119.755 160.009 127.534 C 160.112 134.609,160.159 135.405,160.530 136.338 C 162.909 142.320,172.189 142.421,174.967 136.495 L 175.521 135.313 175.625 127.534 L 175.729 119.755 176.314 119.252 C 176.897 118.751,176.910 118.750,181.979 118.750 C 187.049 118.750,187.061 118.751,187.645 119.252 L 188.229 119.755 188.333 127.534 L 188.438 135.313 188.992 136.495 C 191.715 142.303,200.460 142.433,203.272 136.706 L 203.854 135.521 203.911 112.204 C 203.973 86.524,204.032 87.793,202.681 85.754 C 200.118 81.884,194.012 81.395,190.625 84.789 C 188.445 86.973,188.461 86.897,188.388 95.521 C 188.306 105.139,188.857 104.375,181.999 104.375 C 175.099 104.375,175.625 105.038,175.625 96.343 C 175.625 92.657,175.530 89.138,175.414 88.525 C 174.075 81.466,163.732 80.281,160.660 86.834 L 160.104 88.021 160.000 95.569 L 159.896 103.116 159.318 103.694 L 158.741 104.271 143.222 104.327 C 124.519 104.394,125.833 104.666,125.833 100.733 C 125.833 96.898,125.194 97.102,137.396 97.033 C 148.732 96.969,148.670 96.978,150.700 95.190 C 153.805 92.458,154.029 85.462,151.105 82.573 C 150.404 81.881,146.314 79.238,127.590 67.378 C 122.950 64.440,123.119 64.514,120.938 64.446 C 119.906 64.414,118.828 64.464,118.540 64.558 M215.729 82.780 C 213.355 83.399,211.436 85.066,210.636 87.205 C 210.001 88.903,209.972 121.646,210.603 124.688 C 214.971 145.739,246.929 147.274,253.402 126.743 C 254.353 123.728,254.398 122.663,254.332 104.688 L 254.271 87.813 253.654 86.595 C 250.931 81.215,242.402 81.215,239.679 86.595 L 239.063 87.813 238.952 104.792 C 238.838 122.263,238.844 122.147,237.964 123.860 C 236.198 127.295,230.465 127.992,227.594 125.121 C 225.648 123.175,225.757 124.300,225.631 104.792 L 225.521 87.813 225.031 86.788 C 223.509 83.604,219.383 81.826,215.729 82.780 M266.468 82.718 C 264.199 83.186,262.144 84.798,261.169 86.875 C 260.729 87.812,260.729 87.825,260.729 111.771 L 260.729 135.729 261.283 136.778 C 262.016 138.167,263.276 139.437,264.628 140.149 L 265.729 140.729 277.500 140.729 C 291.791 140.729,293.023 140.524,297.377 137.417 C 305.111 131.899,306.606 119.938,300.513 112.328 C 299.545 111.118,299.588 110.604,300.811 108.740 C 302.832 105.660,303.448 103.491,303.410 99.583 C 303.326 90.765,298.210 84.746,289.315 82.995 C 287.333 82.605,268.146 82.373,266.468 82.718 M107.500 97.813 L 107.500 99.583 105.625 99.583 L 103.750 99.583 103.750 98.453 C 103.750 96.689,104.398 96.042,106.164 96.042 L 107.500 96.042 107.500 97.813 M111.805 96.539 C 112.313 96.976,112.384 97.185,112.389 98.258 L 112.396 99.479 110.573 99.539 L 108.750 99.600 108.750 97.821 L 108.750 96.042 109.988 96.042 C 110.993 96.042,111.336 96.135,111.805 96.539 M286.258 97.552 C 288.533 98.700,288.532 102.281,286.256 103.530 C 285.024 104.205,278.804 104.457,277.440 103.886 C 275.755 103.182,275.402 98.659,276.938 97.453 C 277.722 96.836,284.993 96.914,286.258 97.552 M107.456 102.760 L 107.516 104.583 106.172 104.583 C 104.410 104.583,103.750 103.935,103.750 102.206 C 103.750 100.801,103.741 100.807,105.720 100.878 L 107.396 100.938 107.456 102.760 M112.393 102.260 C 112.389 104.043,111.830 104.583,109.988 104.583 L 108.750 104.583 108.750 102.847 C 108.750 100.727,108.672 100.805,110.720 100.878 L 112.396 100.938 112.393 102.260 M286.771 119.081 C 289.331 120.416,289.392 124.447,286.874 125.926 C 286.215 126.314,285.738 126.361,281.843 126.421 L 277.540 126.488 276.843 125.865 L 276.146 125.242 276.146 122.538 C 276.146 118.522,276.130 118.533,281.875 118.599 C 285.535 118.641,286.020 118.689,286.771 119.081 M184.792 151.540 C 184.792 152.263,185.054 152.500,185.850 152.500 C 186.233 152.500,186.250 152.711,186.250 157.588 L 186.250 162.675 185.625 162.813 C 185.060 162.937,185.000 163.028,185.000 163.767 L 185.000 164.583 187.500 164.583 L 190.000 164.583 190.000 163.767 C 190.000 163.028,189.940 162.937,189.375 162.813 L 188.750 162.675 188.750 156.754 L 188.750 150.833 186.771 150.833 L 184.792 150.833 184.792 151.540 M191.875 151.771 L 191.875 152.708 193.229 152.708 L 194.583 152.708 194.583 151.771 L 194.583 150.833 193.229 150.833 L 191.875 150.833 191.875 151.771 M223.750 151.540 C 223.750 152.263,224.012 152.500,224.809 152.500 C 225.192 152.500,225.208 152.711,225.208 157.588 L 225.208 162.675 224.583 162.813 C 224.019 162.937,223.958 163.028,223.958 163.767 L 223.958 164.583 226.458 164.583 L 228.958 164.583 228.958 163.776 C 228.958 163.046,228.899 162.957,228.333 162.844 L 227.708 162.719 227.708 160.121 C 227.708 157.207,227.873 156.875,229.317 156.875 C 230.610 156.875,230.833 157.365,230.833 160.204 C 230.833 162.693,230.832 162.701,230.313 162.831 C 229.869 162.943,229.792 163.082,229.792 163.773 L 229.792 164.583 232.292 164.583 L 234.792 164.583 234.792 163.776 C 234.792 163.046,234.732 162.957,234.167 162.844 L 233.542 162.719 233.542 160.356 C 233.542 156.180,232.798 154.896,230.382 154.896 C 229.485 154.896,229.050 155.008,228.568 155.365 C 228.219 155.622,227.883 155.833,227.821 155.833 C 227.759 155.833,227.708 154.708,227.708 153.333 L 227.708 150.833 225.729 150.833 L 223.750 150.833 223.750 151.540 M131.875 152.500 C 131.875 153.183,131.947 153.333,132.275 153.333 C 133.349 153.333,133.333 153.262,133.333 158.138 L 133.333 162.689 132.604 162.826 C 131.918 162.955,131.875 163.011,131.875 163.779 L 131.875 164.596 134.531 164.537 L 137.188 164.479 137.251 163.723 C 137.311 163.006,137.276 162.960,136.574 162.828 L 135.833 162.689 135.833 160.928 L 135.833 159.167 136.556 159.167 C 137.223 159.167,137.361 159.288,138.334 160.730 C 139.607 162.617,139.739 162.917,139.293 162.917 C 139.041 162.917,138.958 163.124,138.958 163.756 L 138.958 164.596 141.510 164.538 L 144.063 164.479 144.127 163.698 C 144.185 162.997,144.141 162.917,143.698 162.917 C 143.012 162.917,140.039 159.347,139.453 157.820 C 139.363 157.586,142.081 153.804,142.557 153.502 C 142.698 153.413,143.023 153.338,143.281 153.337 C 143.689 153.334,143.750 153.224,143.750 152.500 L 143.750 151.667 141.250 151.667 L 138.750 151.667 138.750 152.485 C 138.750 153.046,138.849 153.324,139.065 153.370 C 139.669 153.499,137.120 156.875,136.418 156.875 L 135.833 156.875 135.833 155.214 L 135.833 153.554 136.510 153.379 C 137.102 153.227,137.196 153.108,137.252 152.436 L 137.317 151.667 134.596 151.667 L 131.875 151.667 131.875 152.500 M209.993 152.206 C 209.880 152.503,209.045 154.870,208.137 157.467 C 207.228 160.063,206.422 162.352,206.345 162.552 C 206.268 162.753,206.028 162.917,205.811 162.917 C 205.490 162.917,205.417 163.071,205.417 163.750 L 205.417 164.583 207.604 164.583 L 209.792 164.583 209.792 163.750 C 209.792 163.056,209.722 162.917,209.375 162.917 C 208.902 162.917,208.859 162.639,209.187 161.698 L 209.416 161.042 211.458 161.042 L 213.501 161.042 213.730 161.698 C 214.040 162.588,214.017 162.917,213.646 162.917 C 213.420 162.917,213.333 163.149,213.333 163.757 L 213.333 164.598 215.469 164.539 L 217.604 164.479 217.669 163.698 C 217.727 162.993,217.684 162.917,217.230 162.917 C 216.757 162.917,216.604 162.566,214.780 157.292 L 212.835 151.667 211.516 151.667 C 210.290 151.667,210.184 151.704,209.993 152.206 M218.750 153.854 L 218.750 155.000 218.021 155.000 C 217.296 155.000,217.292 155.005,217.292 155.938 C 217.292 156.870,217.296 156.875,218.021 156.875 L 218.750 156.875 218.750 159.906 C 218.750 164.163,219.419 165.092,222.185 164.677 L 223.125 164.536 223.125 163.622 C 223.125 162.727,223.111 162.708,222.438 162.708 C 221.335 162.708,221.250 162.483,221.250 159.542 L 221.250 156.875 222.083 156.875 L 222.917 156.875 222.917 155.938 L 222.917 155.000 222.083 155.000 L 221.250 155.000 221.250 153.854 L 221.250 152.708 220.000 152.708 L 218.750 152.708 218.750 153.854 M160.208 154.942 C 160.036 155.007,159.638 155.240,159.323 155.461 C 158.753 155.859,158.750 155.859,158.750 155.431 C 158.750 155.027,158.632 155.000,156.875 155.000 L 155.000 155.000 155.000 155.819 C 155.000 156.559,155.056 156.645,155.573 156.705 L 156.146 156.771 156.202 161.588 L 156.258 166.405 155.629 166.530 C 155.072 166.642,155.000 166.740,155.000 167.391 L 155.000 168.125 157.604 168.125 L 160.208 168.125 160.208 167.391 C 160.208 166.741,160.136 166.642,159.583 166.531 C 158.975 166.410,158.958 166.374,158.958 165.194 L 158.958 163.982 159.931 164.412 C 162.645 165.613,164.901 163.508,164.881 159.792 C 164.862 156.247,162.702 154.005,160.208 154.942 M168.732 154.978 C 165.205 156.129,165.844 159.713,169.737 160.620 C 171.571 161.047,172.212 161.747,171.458 162.500 C 170.627 163.331,168.955 162.972,168.574 161.879 C 168.379 161.319,168.263 161.250,167.511 161.250 L 166.667 161.250 166.667 162.399 C 166.667 163.752,167.158 164.188,169.144 164.600 C 174.274 165.665,176.535 160.373,171.514 159.052 C 169.647 158.561,168.958 158.202,168.958 157.718 C 168.958 156.216,171.842 156.302,172.116 157.813 C 172.175 158.139,172.383 158.243,173.075 158.293 L 173.958 158.357 173.958 157.084 L 173.958 155.810 172.972 155.374 C 171.904 154.901,169.621 154.688,168.732 154.978 M178.131 155.122 C 174.216 156.820,174.891 163.717,179.056 164.582 C 180.445 164.870,183.750 164.212,183.750 163.648 C 183.750 163.535,183.118 162.083,183.070 162.086 C 183.043 162.088,182.646 162.225,182.188 162.390 C 180.254 163.087,178.333 162.396,178.333 161.005 C 178.333 160.520,178.341 160.519,181.094 160.520 L 183.854 160.521 183.917 159.436 C 184.118 155.948,181.216 153.784,178.131 155.122 M238.131 155.122 C 234.216 156.820,234.891 163.717,239.056 164.582 C 240.445 164.870,243.750 164.212,243.750 163.648 C 243.750 163.535,243.118 162.083,243.070 162.086 C 243.043 162.088,242.646 162.225,242.188 162.390 C 240.254 163.087,238.333 162.396,238.333 161.005 C 238.333 160.520,238.341 160.519,241.094 160.520 L 243.854 160.521 243.917 159.436 C 244.118 155.948,241.216 153.784,238.131 155.122 M250.208 155.014 C 249.922 155.135,249.477 155.432,249.219 155.674 L 248.750 156.114 248.750 155.557 L 248.750 155.000 246.758 155.000 L 244.767 155.000 244.831 155.780 C 244.888 156.465,244.972 156.574,245.521 156.668 L 246.146 156.774 246.204 159.724 L 246.261 162.673 245.631 162.811 C 245.059 162.937,245.000 163.027,245.000 163.767 L 245.000 164.583 247.396 164.583 L 249.792 164.583 249.792 163.773 C 249.792 163.082,249.715 162.943,249.271 162.831 C 248.501 162.638,248.450 157.734,249.213 157.199 C 250.964 155.973,251.875 156.969,251.875 160.112 C 251.875 162.699,251.875 162.700,251.354 162.831 C 250.910 162.943,250.833 163.082,250.833 163.773 L 250.833 164.583 253.333 164.583 L 255.833 164.583 255.833 163.776 C 255.833 163.052,255.771 162.956,255.229 162.848 L 254.624 162.727 254.548 159.853 C 254.436 155.571,252.916 153.876,250.208 155.014 M259.149 154.978 C 255.601 156.136,256.235 159.695,260.154 160.617 C 261.989 161.049,262.628 161.747,261.875 162.500 C 261.044 163.331,259.372 162.972,258.991 161.879 C 258.795 161.317,258.681 161.250,257.917 161.250 L 257.063 161.250 257.125 162.448 L 257.188 163.646 258.228 164.161 C 260.908 165.489,264.787 164.164,264.791 161.920 C 264.793 160.438,263.746 159.478,261.538 158.938 C 260.094 158.585,259.375 158.179,259.375 157.718 C 259.375 156.216,262.259 156.302,262.532 157.813 C 262.591 158.139,262.800 158.243,263.491 158.293 L 264.375 158.357 264.375 157.084 L 264.375 155.810 263.389 155.374 C 262.320 154.901,260.038 154.688,259.149 154.978 M144.167 155.819 C 144.167 156.502,144.242 156.649,144.623 156.704 C 145.277 156.800,148.179 164.199,147.876 165.000 C 147.566 165.819,147.068 166.250,146.430 166.250 C 145.826 166.250,145.724 166.426,145.579 167.708 C 145.522 168.218,145.551 168.229,146.923 168.229 C 149.050 168.229,149.204 168.017,151.547 161.856 C 153.182 157.558,153.551 156.761,153.928 156.704 C 154.298 156.649,154.375 156.497,154.375 155.819 L 154.375 155.000 152.083 155.000 L 149.792 155.000 149.792 155.833 C 149.792 156.528,149.861 156.667,150.208 156.667 C 150.757 156.667,150.741 156.839,149.966 159.164 L 149.307 161.142 148.612 159.069 C 147.786 156.606,147.796 156.713,148.385 156.629 C 148.762 156.576,148.867 156.409,148.919 155.781 L 148.983 155.000 146.575 155.000 L 144.167 155.000 144.167 155.819 M190.625 155.819 C 190.625 156.559,190.681 156.645,191.198 156.705 L 191.771 156.771 191.829 159.744 L 191.886 162.716 191.256 162.843 C 190.684 162.957,190.625 163.044,190.625 163.776 L 190.625 164.583 193.229 164.583 L 195.833 164.583 195.833 163.776 C 195.833 163.046,195.774 162.957,195.208 162.844 L 194.583 162.719 194.583 158.859 L 194.583 155.000 192.604 155.000 L 190.625 155.000 190.625 155.819 M212.171 156.774 C 212.475 157.749,212.777 158.686,212.842 158.857 C 212.940 159.112,212.717 159.167,211.585 159.167 C 209.980 159.167,210.026 159.294,210.761 156.843 C 211.441 154.577,211.485 154.575,212.171 156.774 M161.750 157.567 C 163.414 159.806,161.473 163.821,159.421 162.384 C 158.708 161.885,158.713 157.697,159.427 157.192 C 160.140 156.688,161.227 156.863,161.750 157.567 M181.027 157.424 C 181.870 158.496,181.653 158.750,179.896 158.750 C 178.510 158.750,178.333 158.706,178.333 158.361 C 178.333 157.638,179.135 156.875,179.896 156.875 C 180.403 156.875,180.713 157.026,181.027 157.424 M241.027 157.424 C 241.870 158.496,241.653 158.750,239.896 158.750 C 238.510 158.750,238.333 158.706,238.333 158.361 C 238.333 157.638,239.135 156.875,239.896 156.875 C 240.403 156.875,240.713 157.026,241.027 157.424 M197.250 164.010 C 197.194 165.051,197.018 165.994,196.805 166.400 L 196.454 167.071 197.100 167.405 C 198.280 168.015,199.578 166.023,199.581 163.594 L 199.583 162.292 198.464 162.292 L 197.344 162.292 197.250 164.010 " stroke="none" fill="#999999" fill-rule="evenodd"></path><path id="path1" d="M0.000 112.500 L 0.000 225.000 200.000 225.000 L 400.000 225.000 400.000 112.500 L 400.000 0.000 200.000 0.000 L 0.000 0.000 0.000 112.500 M122.339 64.265 C 122.986 64.433,123.977 64.855,124.541 65.202 C 125.105 65.549,125.674 65.833,125.804 65.833 C 125.935 65.833,126.042 65.937,126.042 66.064 C 126.042 66.191,126.187 66.239,126.365 66.171 C 126.551 66.099,126.634 66.134,126.561 66.253 C 126.491 66.366,126.664 66.547,126.946 66.654 C 127.229 66.762,127.517 66.943,127.588 67.058 C 127.659 67.172,128.207 67.556,128.806 67.911 C 130.252 68.766,130.533 68.943,131.706 69.740 C 132.255 70.112,132.752 70.417,132.810 70.417 C 132.868 70.417,134.009 71.135,135.345 72.014 C 136.681 72.892,137.896 73.611,138.045 73.611 C 138.193 73.611,138.266 73.690,138.207 73.786 C 138.147 73.882,138.269 74.024,138.476 74.100 C 138.684 74.176,139.411 74.604,140.091 75.052 C 140.771 75.499,141.491 75.877,141.691 75.892 C 141.891 75.908,142.016 75.983,141.968 76.060 C 141.868 76.222,145.651 78.668,145.885 78.592 C 145.971 78.564,146.042 78.624,146.042 78.725 C 146.042 78.825,146.346 79.033,146.719 79.186 C 147.091 79.339,147.583 79.637,147.813 79.849 C 148.042 80.062,148.715 80.514,149.308 80.854 C 154.965 84.096,154.811 93.922,149.062 96.553 C 147.625 97.211,146.458 97.281,136.515 97.301 C 125.300 97.324,126.139 97.035,126.154 100.872 C 126.163 103.208,126.356 103.570,127.786 103.930 C 128.994 104.234,157.634 104.244,158.505 103.940 C 159.701 103.523,159.768 103.100,159.786 95.838 C 159.807 87.308,159.873 86.940,161.759 84.846 C 164.652 81.635,170.683 81.437,173.523 84.460 C 173.796 84.750,174.098 84.938,174.195 84.879 C 174.291 84.819,174.314 84.916,174.246 85.093 C 174.178 85.271,174.209 85.417,174.314 85.417 C 174.566 85.417,175.220 86.737,175.551 87.917 C 175.739 88.584,175.818 90.855,175.824 95.795 C 175.834 102.905,175.879 103.328,176.676 103.755 C 177.645 104.274,187.090 104.266,186.769 103.746 C 186.700 103.636,186.787 103.601,186.963 103.668 C 187.942 104.044,188.014 103.536,188.125 95.531 L 188.229 88.011 188.909 86.631 C 191.946 80.465,201.677 80.979,203.708 87.413 L 204.167 88.866 204.167 112.129 C 204.167 127.413,204.095 135.436,203.958 135.521 C 203.844 135.592,203.750 135.837,203.750 136.065 C 203.750 137.776,200.490 140.552,198.021 140.944 C 197.448 141.035,196.839 141.140,196.667 141.178 C 195.441 141.445,190.833 139.998,190.833 139.346 C 190.833 139.247,190.715 139.167,190.570 139.167 C 190.274 139.167,189.200 137.610,188.626 136.348 C 188.291 135.614,188.234 134.627,188.121 127.604 C 188.050 123.250,187.976 119.675,187.955 119.659 C 186.996 118.944,178.159 118.572,176.804 119.190 C 175.880 119.610,175.843 119.928,175.785 127.917 C 175.722 136.481,175.760 136.256,174.013 138.454 C 173.034 139.685,171.046 140.813,169.583 140.967 C 169.068 141.021,168.410 141.095,168.123 141.132 C 166.150 141.381,163.494 140.396,161.935 138.837 C 159.908 136.810,159.929 136.916,159.800 127.845 L 159.688 119.960 159.063 119.460 L 158.438 118.960 143.307 118.959 C 124.426 118.958,126.288 118.562,126.223 122.592 L 126.184 125.068 126.845 125.659 L 127.507 126.250 137.397 126.250 C 146.721 126.250,147.349 126.273,148.363 126.659 C 148.955 126.884,149.533 127.010,149.648 126.939 C 149.765 126.867,149.791 126.916,149.707 127.052 C 149.618 127.197,149.755 127.367,150.052 127.480 C 152.236 128.310,153.966 132.929,153.110 135.646 C 152.738 136.829,150.843 139.821,150.829 139.249 C 150.826 139.146,150.660 139.275,150.460 139.535 C 150.257 139.799,149.405 140.261,148.538 140.577 L 146.979 141.146 133.125 141.213 C 118.804 141.283,117.213 141.211,115.728 140.433 C 114.461 139.768,113.352 138.677,112.675 137.428 L 111.979 136.146 111.875 128.006 C 111.782 120.750,111.733 119.827,111.421 119.516 C 110.923 119.018,105.334 118.998,104.630 119.491 L 104.167 119.815 104.167 127.621 C 104.167 134.907,104.139 135.507,103.748 136.620 C 102.209 141.000,96.102 142.564,92.269 139.559 C 91.855 139.235,91.449 139.037,91.366 139.120 C 91.283 139.203,91.247 139.130,91.285 138.958 C 91.323 138.785,91.231 138.671,91.078 138.703 C 90.927 138.735,90.855 138.675,90.919 138.572 C 90.983 138.468,90.826 138.067,90.570 137.681 C 89.299 135.767,89.363 137.301,89.424 110.205 C 89.477 86.281,89.492 85.495,89.882 84.688 C 90.104 84.229,90.273 83.799,90.258 83.731 C 90.191 83.434,92.475 81.447,94.330 80.188 C 95.443 79.433,96.332 78.710,96.305 78.581 C 96.277 78.453,96.393 78.401,96.562 78.466 C 96.901 78.596,98.184 77.628,97.964 77.408 C 97.887 77.332,97.986 77.332,98.183 77.407 C 98.389 77.486,98.542 77.446,98.542 77.314 C 98.542 77.187,98.682 77.083,98.854 77.083 C 99.026 77.083,99.167 76.990,99.167 76.875 C 99.167 76.760,99.265 76.667,99.384 76.667 C 99.767 76.667,102.276 74.846,102.125 74.678 C 102.045 74.589,102.089 74.579,102.223 74.656 C 102.357 74.733,102.593 74.669,102.747 74.515 C 102.902 74.360,103.656 73.831,104.425 73.337 C 105.193 72.844,105.784 72.380,105.738 72.305 C 105.692 72.231,105.850 72.155,106.089 72.137 C 106.329 72.119,106.580 72.025,106.648 71.929 C 106.716 71.833,108.294 70.748,110.156 69.517 C 112.018 68.287,113.542 67.189,113.542 67.077 C 113.542 66.966,113.620 66.898,113.716 66.927 C 113.812 66.956,114.633 66.493,115.539 65.899 C 118.411 64.018,119.961 63.645,122.339 64.265 M219.815 82.525 C 220.433 82.653,221.095 82.767,221.287 82.778 C 221.479 82.789,221.591 82.871,221.535 82.961 C 221.479 83.051,221.568 83.125,221.733 83.125 C 221.898 83.125,222.154 83.272,222.303 83.451 C 222.481 83.666,222.755 83.735,223.110 83.653 C 223.470 83.570,223.552 83.591,223.361 83.719 C 223.057 83.922,223.868 84.961,224.234 84.839 C 224.329 84.807,224.351 84.871,224.283 84.980 C 224.215 85.090,224.257 85.240,224.376 85.313 C 224.494 85.386,224.847 85.932,225.160 86.525 L 225.729 87.604 225.837 104.688 C 225.953 122.927,225.962 123.075,226.983 124.096 C 227.135 124.248,227.439 124.600,227.658 124.879 C 228.122 125.469,229.529 126.308,229.787 126.149 C 229.885 126.088,229.996 126.135,230.035 126.252 C 230.248 126.891,234.803 126.625,235.496 125.933 C 235.654 125.774,235.842 125.703,235.913 125.774 C 235.984 125.845,236.042 125.793,236.042 125.660 C 236.042 125.526,236.148 125.417,236.278 125.417 C 236.630 125.417,237.517 124.311,237.404 124.013 C 237.351 123.871,237.418 123.777,237.555 123.805 C 238.549 124.003,238.635 122.617,238.748 104.688 C 238.865 86.026,238.799 86.898,240.224 85.320 C 240.617 84.886,240.914 84.449,240.885 84.349 C 240.857 84.249,240.959 84.167,241.114 84.167 C 241.268 84.167,241.555 83.988,241.753 83.770 C 243.412 81.937,249.006 81.938,251.542 83.773 C 251.989 84.096,252.449 84.303,252.564 84.232 C 252.687 84.155,252.707 84.208,252.613 84.361 C 252.514 84.521,252.715 84.890,253.142 85.331 C 253.522 85.722,253.755 86.042,253.661 86.042 C 253.567 86.042,253.606 86.181,253.748 86.352 C 253.890 86.522,254.065 86.626,254.138 86.581 C 254.414 86.412,254.448 88.488,254.463 106.042 L 254.479 124.063 253.917 125.938 C 253.609 126.969,253.209 128.164,253.030 128.593 C 252.850 129.022,252.707 129.422,252.710 129.481 C 252.714 129.541,252.373 130.127,251.953 130.784 C 251.533 131.441,251.085 132.161,250.959 132.384 C 250.625 132.972,249.619 134.138,248.543 135.183 C 248.027 135.684,247.628 136.176,247.656 136.276 C 247.685 136.376,247.638 136.437,247.552 136.412 C 247.344 136.350,245.612 137.626,245.736 137.750 C 245.790 137.803,245.713 137.847,245.565 137.847 C 245.418 137.847,244.761 138.190,244.107 138.609 C 243.452 139.027,242.917 139.322,242.917 139.263 C 242.917 139.204,242.628 139.305,242.274 139.488 C 235.518 142.982,224.656 141.945,218.274 137.197 C 217.497 136.619,216.747 136.146,216.607 136.146 C 216.468 136.146,216.354 136.052,216.353 135.938 C 216.351 135.749,215.951 135.247,214.667 133.825 C 214.426 133.558,214.153 133.409,214.060 133.493 C 213.968 133.577,213.950 133.543,214.022 133.417 C 214.094 133.290,213.914 132.869,213.623 132.479 C 213.331 132.090,212.909 131.416,212.684 130.982 C 212.460 130.548,212.209 130.235,212.127 130.285 C 212.046 130.336,211.968 130.175,211.954 129.928 C 211.940 129.681,211.677 128.891,211.370 128.172 C 209.884 124.687,209.900 124.933,209.898 105.729 C 209.896 86.125,209.798 87.303,211.613 85.098 C 213.534 82.764,216.496 81.835,219.815 82.525 M289.063 82.685 C 289.635 82.821,290.526 83.033,291.042 83.156 C 292.889 83.595,295.573 84.805,296.612 85.666 C 296.754 85.784,297.010 85.826,297.182 85.760 C 297.354 85.694,297.473 85.720,297.445 85.817 C 297.384 86.038,300.385 89.167,300.659 89.167 C 300.768 89.167,300.805 89.253,300.740 89.358 C 300.674 89.464,300.741 89.674,300.888 89.827 C 301.789 90.764,303.188 94.581,303.559 97.113 C 304.247 101.818,303.370 105.236,300.221 110.125 C 299.912 110.604,300.038 111.465,300.481 111.913 C 305.906 117.387,305.771 128.930,300.208 135.250 C 299.578 135.966,299.088 136.631,299.120 136.729 C 299.151 136.826,299.095 136.855,298.995 136.794 C 298.895 136.732,298.615 136.865,298.374 137.091 C 298.132 137.316,297.874 137.500,297.801 137.500 C 297.728 137.500,297.420 137.673,297.115 137.884 C 294.766 139.514,291.846 140.507,288.054 140.963 C 285.156 141.311,268.025 141.346,266.563 141.007 C 263.808 140.367,261.708 138.645,260.834 136.307 C 260.199 134.611,260.182 88.256,260.816 87.013 C 261.976 84.738,263.739 83.196,265.840 82.618 C 267.303 82.216,287.334 82.274,289.063 82.685 M104.583 96.715 C 103.261 98.134,103.708 99.257,105.625 99.330 L 107.188 99.390 107.244 98.289 C 107.339 96.426,107.236 96.250,106.046 96.250 C 105.249 96.250,104.918 96.355,104.583 96.715 M108.958 97.813 L 108.958 99.375 110.521 99.375 C 112.212 99.375,112.150 99.429,112.086 98.021 C 112.030 96.764,111.444 96.250,110.068 96.250 L 108.958 96.250 108.958 97.813 M277.259 97.628 C 276.625 97.963,276.305 98.740,276.369 99.792 C 276.393 100.193,276.424 101.053,276.436 101.704 C 276.458 102.871,276.875 103.695,277.308 103.427 C 277.414 103.362,277.500 103.408,277.500 103.529 C 277.500 103.888,284.985 103.822,285.860 103.456 C 288.382 102.399,288.430 98.828,285.938 97.683 C 284.852 97.185,278.179 97.142,277.259 97.628 M104.303 101.213 C 103.896 101.293,103.838 102.301,104.183 103.292 C 104.441 104.031,105.382 104.450,106.500 104.322 L 107.188 104.244 107.188 102.799 L 107.188 101.354 105.917 101.250 C 105.219 101.193,104.492 101.176,104.303 101.213 M108.958 102.813 L 108.958 104.375 109.972 104.375 C 111.403 104.375,112.083 103.813,112.083 102.631 C 112.083 101.448,111.823 101.250,110.271 101.250 L 108.958 101.250 108.958 102.813 M277.576 119.061 C 277.510 119.233,277.377 119.323,277.279 119.263 C 276.805 118.970,276.476 120.165,276.443 122.293 C 276.402 124.978,276.534 125.528,277.317 125.919 C 277.714 126.117,277.876 126.137,277.785 125.975 C 277.692 125.809,277.738 125.814,277.928 125.990 C 278.275 126.312,284.438 126.345,285.796 126.032 C 286.548 125.859,288.562 124.375,288.045 124.375 C 287.967 124.375,288.006 124.181,288.133 123.944 C 288.788 122.719,288.212 120.395,287.035 119.516 C 285.988 118.734,277.851 118.343,277.576 119.061 M188.983 156.406 C 188.997 159.586,189.002 162.241,188.996 162.306 C 188.955 162.701,190.370 163.028,191.004 162.769 L 191.667 162.499 191.667 159.910 C 191.667 157.260,191.497 156.667,190.737 156.667 C 190.399 156.667,190.272 156.339,190.295 155.521 L 190.313 154.896 192.347 154.836 C 194.786 154.765,194.557 154.362,194.630 158.848 C 194.687 162.381,194.688 162.384,195.205 162.642 C 195.739 162.908,196.114 163.812,195.931 164.393 C 195.842 164.677,195.447 164.716,193.174 164.669 C 191.715 164.638,190.380 164.618,190.208 164.625 C 190.036 164.633,188.771 164.649,187.396 164.663 L 184.896 164.688 184.832 163.813 C 184.775 163.021,184.829 162.908,185.405 162.610 L 186.042 162.281 186.042 157.479 C 186.042 153.018,186.016 152.683,185.677 152.749 C 185.117 152.858,184.583 152.273,184.583 151.551 C 184.583 150.641,184.625 150.625,186.910 150.625 L 188.958 150.625 188.983 156.406 M194.611 150.722 C 194.664 150.776,194.657 151.268,194.594 151.816 L 194.479 152.813 193.274 152.920 C 192.611 152.979,191.978 152.937,191.868 152.826 C 191.641 152.599,191.592 150.977,191.806 150.764 C 191.961 150.608,194.460 150.571,194.611 150.722 M227.917 152.917 C 227.917 155.371,227.943 155.421,228.977 154.886 C 229.583 154.573,231.667 154.503,231.667 154.795 C 231.667 154.871,231.907 155.042,232.200 155.176 C 233.162 155.615,233.625 157.056,233.747 159.991 C 233.851 162.519,233.867 162.590,234.353 162.704 C 234.906 162.834,235.228 164.209,234.772 164.491 C 234.432 164.702,231.122 164.853,230.288 164.697 C 229.350 164.521,229.226 163.178,230.104 162.708 C 230.609 162.438,230.625 162.364,230.625 160.219 C 230.625 157.616,230.395 157.083,229.274 157.083 C 228.074 157.083,227.917 157.434,227.917 160.108 L 227.917 162.477 228.490 162.757 C 228.826 162.922,229.039 163.178,229.005 163.378 C 228.973 163.565,229.048 163.781,229.171 163.857 C 229.920 164.320,228.532 164.707,226.215 164.683 L 223.854 164.658 223.854 163.738 C 223.854 162.983,223.929 162.804,224.271 162.739 C 224.958 162.609,224.993 162.364,224.997 157.777 C 225.000 152.944,224.967 152.708,224.271 152.708 C 223.750 152.708,223.542 152.357,223.542 151.476 C 223.542 150.650,223.611 150.625,225.868 150.625 L 227.917 150.625 227.917 152.917 M137.010 151.618 C 137.592 151.989,137.421 153.293,136.769 153.457 C 135.898 153.675,135.690 156.563,136.544 156.563 C 137.044 156.563,139.201 153.533,138.802 153.391 C 138.100 153.142,138.510 151.726,139.323 151.592 C 140.330 151.426,143.201 151.421,143.629 151.585 C 144.232 151.816,144.067 153.261,143.419 153.423 C 142.736 153.595,142.186 154.122,140.832 155.906 C 139.531 157.619,139.488 157.814,140.208 158.750 C 140.517 159.151,141.201 160.099,141.729 160.857 C 142.328 161.717,142.961 162.364,143.411 162.578 C 144.221 162.962,144.330 163.151,144.209 163.972 C 144.095 164.752,141.607 165.081,139.243 164.629 C 138.732 164.531,138.463 162.917,138.958 162.917 C 139.346 162.917,139.170 162.454,138.193 160.912 C 136.781 158.683,136.042 158.766,136.042 161.151 C 136.042 162.168,136.097 162.301,136.659 162.633 C 137.346 163.039,137.682 164.009,137.295 164.475 C 137.055 164.764,133.439 164.874,132.164 164.630 C 131.291 164.463,131.516 162.902,132.448 162.662 L 133.125 162.488 133.125 158.327 C 133.125 153.915,132.991 153.333,131.979 153.333 C 131.499 153.333,131.547 151.729,132.031 151.602 C 132.645 151.442,136.755 151.455,137.010 151.618 M212.983 151.852 C 213.141 152.037,213.393 152.644,213.544 153.201 C 213.694 153.758,214.136 155.071,214.526 156.118 C 214.916 157.164,215.574 159.038,215.988 160.282 C 216.565 162.012,216.852 162.594,217.214 162.758 C 218.234 163.223,218.033 164.475,216.907 164.661 C 215.949 164.820,213.987 164.793,213.438 164.615 C 212.852 164.424,212.789 162.985,213.359 162.805 C 213.805 162.663,213.830 162.529,213.547 161.784 C 213.340 161.241,210.357 160.953,209.663 161.409 C 209.162 161.740,209.111 162.522,209.564 162.943 C 210.107 163.449,210.130 164.291,209.608 164.570 C 209.095 164.845,205.487 164.737,205.189 164.439 C 204.849 164.099,205.158 163.003,205.656 162.780 C 205.985 162.634,206.518 161.343,207.971 157.180 C 209.009 154.205,209.958 151.706,210.078 151.627 C 210.521 151.336,212.686 151.504,212.983 151.852 M221.196 152.585 C 221.259 152.648,221.330 153.052,221.355 153.485 C 221.380 153.917,221.413 154.388,221.429 154.531 C 221.446 154.684,221.759 154.792,222.188 154.792 L 222.917 154.792 222.917 155.811 C 222.917 156.865,222.735 157.083,221.858 157.083 C 221.638 157.083,221.450 157.154,221.440 157.240 C 221.038 160.758,221.334 162.363,222.410 162.500 C 223.362 162.621,223.832 164.408,222.977 164.660 C 219.604 165.653,218.333 164.279,218.333 159.639 L 218.333 157.270 217.698 157.048 C 216.779 156.728,216.829 154.937,217.760 154.830 C 218.300 154.768,218.333 154.703,218.333 153.729 C 218.333 152.864,218.406 152.668,218.777 152.531 C 219.249 152.356,221.007 152.396,221.196 152.585 M162.917 155.069 C 164.984 156.053,165.739 160.893,164.211 163.366 C 163.461 164.580,161.765 165.178,160.352 164.726 C 159.165 164.346,158.981 164.453,159.125 165.438 C 159.185 165.845,159.393 166.154,159.702 166.295 C 160.301 166.567,160.441 166.910,160.281 167.711 L 160.156 168.333 157.474 168.333 L 154.792 168.333 154.792 167.507 C 154.792 166.724,155.354 166.055,155.885 166.206 C 155.971 166.230,156.042 164.148,156.042 161.579 L 156.042 156.908 155.417 156.771 C 154.301 156.526,153.649 156.807,153.346 157.664 C 153.196 158.090,152.765 159.234,152.389 160.208 C 152.013 161.182,151.298 163.044,150.800 164.345 C 149.638 167.385,148.881 168.302,147.396 168.465 C 146.120 168.605,145.211 168.302,145.316 167.772 C 145.609 166.305,145.638 166.250,146.111 166.250 C 146.707 166.250,147.453 165.574,147.628 164.873 C 147.883 163.861,144.924 156.667,144.254 156.667 C 144.007 156.667,143.949 156.466,143.998 155.781 L 144.063 154.896 146.442 154.837 C 149.015 154.773,149.158 154.828,149.163 155.891 C 149.166 156.317,149.030 156.521,148.646 156.667 C 148.023 156.903,148.034 156.744,148.535 158.313 C 149.209 160.423,149.263 160.445,149.795 158.832 C 150.056 158.042,150.312 157.280,150.364 157.138 C 150.416 156.997,150.229 156.793,149.948 156.686 C 149.521 156.524,149.440 156.359,149.458 155.694 L 149.479 154.896 154.059 154.852 C 157.834 154.817,158.668 154.861,158.805 155.105 C 158.944 155.354,159.078 155.336,159.641 154.995 C 160.439 154.512,161.812 154.543,162.917 155.069 M172.228 154.917 C 173.819 155.379,174.167 155.781,174.167 157.160 L 174.167 158.279 173.408 158.402 C 172.570 158.538,171.875 158.271,171.875 157.813 C 171.875 156.885,170.284 156.443,169.427 157.133 C 168.823 157.620,169.510 158.443,170.702 158.659 C 170.998 158.712,171.476 158.846,171.765 158.956 C 172.055 159.066,172.292 159.110,172.292 159.053 C 172.292 158.995,172.522 159.100,172.803 159.284 C 173.085 159.468,173.415 159.557,173.538 159.482 C 173.660 159.406,173.742 159.421,173.719 159.516 C 173.663 159.747,174.199 160.833,174.369 160.833 C 174.582 160.833,174.442 162.459,174.173 163.110 C 173.219 165.414,166.524 165.377,166.431 163.068 C 166.417 162.698,166.389 162.143,166.370 161.835 C 166.310 160.860,168.572 160.858,168.713 161.833 C 168.882 163.005,171.458 163.151,171.458 161.989 C 171.458 161.551,170.944 160.902,170.645 160.963 C 170.510 160.991,170.529 160.995,169.167 160.629 C 167.044 160.057,166.122 158.986,166.311 157.310 C 166.554 155.159,169.276 154.058,172.228 154.917 M181.356 154.860 C 182.793 155.420,183.331 155.908,183.752 157.033 C 184.157 158.116,184.336 160.608,184.010 160.641 C 183.924 160.650,182.682 160.681,181.250 160.712 C 178.339 160.773,178.022 160.958,179.057 161.993 C 179.648 162.583,180.928 162.634,182.450 162.129 C 183.086 161.917,183.148 161.941,183.439 162.504 C 184.077 163.736,183.458 164.355,181.159 164.789 C 177.052 165.564,174.218 161.758,175.744 157.514 C 176.571 155.215,179.146 153.998,181.356 154.860 M241.356 154.860 C 242.359 155.251,243.333 155.901,243.333 156.180 C 243.333 156.322,243.451 156.513,243.594 156.604 C 243.888 156.793,243.931 157.004,244.100 159.115 C 244.167 159.945,244.139 160.632,244.038 160.641 C 243.937 160.650,242.682 160.681,241.250 160.712 C 238.337 160.773,238.069 160.929,239.099 161.959 C 239.722 162.582,240.908 162.641,242.463 162.125 C 243.268 161.858,244.248 163.281,243.662 163.867 C 242.874 164.656,240.160 165.125,238.773 164.714 C 235.526 163.749,234.099 158.741,236.360 156.243 C 236.529 156.057,236.597 155.818,236.511 155.712 C 236.425 155.607,236.440 155.591,236.546 155.678 C 236.651 155.764,236.902 155.684,237.105 155.501 C 238.007 154.685,240.099 154.369,241.356 154.860 M252.792 154.874 C 254.280 155.496,254.600 156.281,254.685 159.516 C 254.758 162.270,254.782 162.407,255.239 162.646 C 255.820 162.951,256.025 163.469,255.839 164.165 C 255.703 164.672,252.548 164.966,250.990 164.617 C 250.367 164.477,250.488 162.970,251.146 162.670 C 251.657 162.438,251.667 162.387,251.667 160.086 C 251.667 157.437,251.507 157.083,250.313 157.083 C 249.118 157.083,248.958 157.437,248.958 160.086 C 248.958 162.353,248.975 162.441,249.452 162.658 C 249.940 162.881,250.269 163.766,250.063 164.304 C 249.885 164.768,247.973 164.877,244.948 164.598 C 244.414 164.548,244.820 162.885,245.417 162.677 L 246.042 162.459 246.038 159.928 C 246.035 157.186,246.010 157.094,245.156 156.719 C 244.485 156.424,244.313 155.148,244.913 154.918 C 245.821 154.570,248.524 154.786,248.759 155.226 C 248.968 155.615,249.027 155.627,249.339 155.348 C 250.107 154.659,251.742 154.435,252.792 154.874 M262.240 154.832 C 264.126 155.180,264.715 155.781,264.616 157.256 L 264.543 158.333 263.516 158.333 C 262.619 158.333,262.465 158.269,262.296 157.823 C 262.003 157.052,261.128 156.555,260.474 156.788 C 259.018 157.308,259.502 158.318,261.409 158.742 C 264.453 159.418,265.533 160.980,264.484 163.190 C 263.563 165.131,258.605 165.479,257.133 163.706 C 256.839 163.351,256.634 161.256,256.891 161.233 C 258.510 161.086,259.110 161.263,259.203 161.914 C 259.246 162.221,259.402 162.385,259.633 162.367 C 259.833 162.352,259.944 162.422,259.881 162.524 C 259.818 162.625,259.913 162.720,260.092 162.734 C 260.271 162.749,260.534 162.776,260.677 162.796 C 261.133 162.858,261.875 162.259,261.875 161.829 C 261.875 161.522,261.782 161.450,261.517 161.551 C 261.320 161.627,261.225 161.622,261.307 161.541 C 261.551 161.296,261.025 160.833,260.503 160.833 C 258.721 160.833,256.884 159.489,256.724 158.068 C 256.439 155.546,258.752 154.189,262.240 154.832 M210.874 157.090 C 210.284 158.979,210.281 158.959,211.198 158.955 C 212.512 158.950,212.578 158.806,212.051 157.118 C 211.476 155.279,211.440 155.278,210.874 157.090 M159.532 157.344 C 159.122 157.659,158.893 160.792,159.213 161.710 C 159.593 162.800,161.151 162.763,161.718 161.651 C 162.919 159.300,161.255 156.022,159.532 157.344 M178.866 157.546 C 178.375 158.248,178.470 158.509,179.269 158.659 C 180.730 158.933,181.350 158.466,180.826 157.486 C 180.512 156.900,179.292 156.937,178.866 157.546 M238.866 157.546 C 238.375 158.248,238.470 158.509,239.269 158.659 C 240.730 158.933,241.350 158.466,240.826 157.486 C 240.512 156.900,239.292 156.937,238.866 157.546 M199.377 162.188 C 199.718 162.296,199.755 162.491,199.687 163.791 C 199.556 166.265,198.439 168.105,197.324 167.681 C 196.324 167.301,196.263 167.156,196.659 166.087 C 196.859 165.546,197.044 164.497,197.070 163.755 C 197.096 163.013,197.150 162.352,197.191 162.286 C 197.297 162.115,198.916 162.042,199.377 162.188 " stroke="none" fill="#fbfbfb" fill-rule="evenodd"></path><path id="path2" d="M119.948 64.317 C 120.320 64.364,120.930 64.364,121.302 64.317 C 121.674 64.271,121.370 64.233,120.625 64.233 C 119.880 64.233,119.576 64.271,119.948 64.317 M286.097 82.649 C 286.413 82.697,286.882 82.696,287.138 82.647 C 287.395 82.597,287.135 82.558,286.563 82.560 C 285.990 82.561,285.780 82.602,286.097 82.649 M170.851 82.994 C 171.065 83.186,172.292 83.750,172.292 83.657 C 172.292 83.537,171.137 82.917,170.913 82.917 C 170.831 82.917,170.803 82.952,170.851 82.994 M190.417 84.688 C 189.911 85.203,189.543 85.625,189.601 85.625 C 189.658 85.625,190.119 85.203,190.625 84.688 C 191.131 84.172,191.498 83.750,191.441 83.750 C 191.384 83.750,190.923 84.172,190.417 84.688 M212.072 84.740 L 211.354 85.521 212.135 84.803 C 212.863 84.135,213.012 83.958,212.853 83.958 C 212.819 83.958,212.467 84.310,212.072 84.740 M262.591 84.635 L 261.979 85.313 262.656 84.701 C 263.029 84.364,263.333 84.059,263.333 84.024 C 263.333 83.863,263.161 84.004,262.591 84.635 M153.199 88.646 C 153.198 89.677,153.234 90.125,153.277 89.642 C 153.321 89.158,153.321 88.314,153.278 87.767 C 153.235 87.219,153.200 87.615,153.199 88.646 M210.099 105.417 C 210.099 114.755,210.125 118.576,210.156 113.906 C 210.187 109.237,210.187 101.596,210.156 96.927 C 210.125 92.258,210.099 96.078,210.099 105.417 M254.474 105.208 C 254.474 114.203,254.500 117.883,254.531 113.385 C 254.563 108.888,254.563 101.529,254.531 97.031 C 254.500 92.534,254.474 96.214,254.474 105.208 M225.724 105.000 C 225.724 113.766,225.750 117.352,225.781 112.969 C 225.813 108.586,225.813 101.414,225.781 97.031 C 225.750 92.648,225.724 96.234,225.724 105.000 M238.849 105.104 C 238.849 113.927,238.875 117.506,238.906 113.057 C 238.938 108.609,238.938 101.390,238.906 97.016 C 238.875 92.641,238.849 96.281,238.849 105.104 M260.517 111.771 C 260.517 124.260,260.542 129.400,260.573 123.193 C 260.604 116.986,260.604 106.767,260.573 100.485 C 260.542 94.203,260.517 99.281,260.517 111.771 M89.475 111.875 C 89.475 123.964,89.501 128.909,89.531 122.865 C 89.562 116.820,89.562 106.930,89.531 100.885 C 89.501 94.841,89.475 99.786,89.475 111.875 M107.366 97.813 C 107.365 98.844,107.400 99.292,107.444 98.808 C 107.488 98.325,107.488 97.481,107.445 96.933 C 107.402 96.386,107.366 96.781,107.366 97.813 M103.815 98.438 C 103.816 99.125,103.855 99.381,103.901 99.007 C 103.947 98.632,103.946 98.070,103.899 97.757 C 103.851 97.444,103.813 97.750,103.815 98.438 M112.288 98.480 C 112.233 99.076,112.264 99.487,112.357 99.393 C 112.450 99.300,112.496 98.812,112.457 98.310 L 112.388 97.396 112.288 98.480 M125.909 100.729 C 125.910 101.875,125.945 102.317,125.987 101.712 C 126.029 101.106,126.029 100.169,125.986 99.628 C 125.943 99.088,125.909 99.583,125.909 100.729 M276.116 100.521 C 276.115 101.552,276.150 102.000,276.194 101.517 C 276.238 101.033,276.238 100.189,276.195 99.642 C 276.152 99.094,276.116 99.490,276.116 100.521 M303.598 100.000 C 303.598 100.516,303.639 100.727,303.689 100.469 C 303.738 100.211,303.738 99.789,303.689 99.531 C 303.639 99.273,303.598 99.484,303.598 100.000 M103.838 101.112 C 103.776 101.274,103.761 101.864,103.804 102.422 L 103.883 103.438 103.921 102.240 L 103.958 101.042 105.625 101.042 L 107.292 101.042 107.292 102.726 L 107.292 104.411 105.957 104.341 C 105.223 104.302,104.666 104.341,104.719 104.427 C 104.773 104.513,105.424 104.583,106.166 104.583 L 107.516 104.583 107.456 102.760 L 107.396 100.938 105.674 100.877 C 104.338 100.830,103.926 100.883,103.838 101.112 M108.891 100.981 C 108.834 101.072,109.572 101.116,110.529 101.079 L 112.269 101.012 112.349 102.016 L 112.428 103.021 112.412 101.979 L 112.396 100.938 110.694 100.877 C 109.759 100.844,108.947 100.891,108.891 100.981 M279.427 104.113 C 280.315 104.152,281.768 104.152,282.656 104.113 C 283.544 104.074,282.818 104.042,281.042 104.042 C 279.266 104.042,278.539 104.074,279.427 104.113 M135.156 104.323 C 139.424 104.354,146.409 104.354,150.677 104.323 C 154.945 104.291,151.453 104.266,142.917 104.266 C 134.380 104.266,130.888 104.291,135.156 104.323 M179.647 104.322 C 181.000 104.359,183.156 104.359,184.439 104.322 C 185.721 104.286,184.615 104.256,181.979 104.256 C 179.344 104.256,178.294 104.286,179.647 104.322 M109.323 104.526 C 109.695 104.572,110.305 104.572,110.677 104.526 C 111.049 104.479,110.745 104.442,110.000 104.442 C 109.255 104.442,108.951 104.479,109.323 104.526 M279.646 118.697 C 280.769 118.735,282.551 118.734,283.605 118.697 C 284.659 118.659,283.740 118.628,281.563 118.629 C 279.385 118.629,278.523 118.660,279.646 118.697 M276.667 119.270 C 276.399 119.556,276.218 119.825,276.267 119.868 C 276.315 119.910,276.572 119.676,276.839 119.348 C 277.435 118.612,277.330 118.565,276.667 119.270 M104.052 127.188 C 104.052 131.313,104.080 133.030,104.114 131.003 C 104.148 128.977,104.148 125.602,104.114 123.503 C 104.080 121.405,104.052 123.063,104.052 127.188 M125.911 122.604 C 125.912 123.865,125.946 124.353,125.988 123.690 C 126.029 123.027,126.029 121.996,125.987 121.399 C 125.945 120.801,125.911 121.344,125.911 122.604 M276.120 122.604 C 276.120 123.865,276.154 124.353,276.196 123.690 C 276.237 123.027,276.237 121.996,276.195 121.399 C 276.153 120.801,276.119 121.344,276.120 122.604 M304.245 123.125 C 304.245 124.443,304.279 124.982,304.321 124.323 C 304.362 123.664,304.362 122.586,304.321 121.927 C 304.279 121.268,304.245 121.807,304.245 123.125 M288.598 122.500 C 288.598 123.016,288.639 123.227,288.689 122.969 C 288.738 122.711,288.738 122.289,288.689 122.031 C 288.639 121.773,288.598 121.984,288.598 122.500 M236.864 125.156 L 236.146 125.938 236.927 125.220 C 237.654 124.551,237.804 124.375,237.645 124.375 C 237.610 124.375,237.259 124.727,236.864 125.156 M284.635 126.394 C 284.836 126.446,285.164 126.446,285.365 126.394 C 285.565 126.341,285.401 126.298,285.000 126.298 C 284.599 126.298,284.435 126.341,284.635 126.394 M151.042 128.646 C 151.430 129.047,151.795 129.375,151.853 129.375 C 151.910 129.375,151.639 129.047,151.250 128.646 C 150.861 128.245,150.496 127.917,150.439 127.917 C 150.382 127.917,150.653 128.245,151.042 128.646 M153.178 133.646 C 153.180 134.104,153.223 134.267,153.272 134.008 C 153.322 133.749,153.320 133.374,153.268 133.175 C 153.216 132.975,153.175 133.188,153.178 133.646 M248.333 135.104 C 247.827 135.620,247.460 136.042,247.517 136.042 C 247.575 136.042,248.036 135.620,248.542 135.104 C 249.048 134.589,249.415 134.167,249.358 134.167 C 249.300 134.167,248.839 134.589,248.333 135.104 M299.368 135.781 L 298.229 136.979 299.427 135.840 C 300.540 134.783,300.720 134.583,300.566 134.583 C 300.533 134.583,299.994 135.122,299.368 135.781 M161.979 138.750 C 162.427 139.208,162.840 139.583,162.897 139.583 C 162.954 139.583,162.635 139.208,162.188 138.750 C 161.740 138.292,161.327 137.917,161.270 137.917 C 161.212 137.917,161.532 138.292,161.979 138.750 M91.667 138.854 C 92.055 139.255,92.420 139.583,92.478 139.583 C 92.535 139.583,92.264 139.255,91.875 138.854 C 91.486 138.453,91.121 138.125,91.064 138.125 C 91.007 138.125,91.278 138.453,91.667 138.854 M173.424 138.802 L 172.813 139.479 173.490 138.867 C 173.862 138.531,174.167 138.226,174.167 138.190 C 174.167 138.029,173.995 138.171,173.424 138.802 M190.417 138.854 C 190.805 139.255,191.170 139.583,191.228 139.583 C 191.285 139.583,191.014 139.255,190.625 138.854 C 190.236 138.453,189.871 138.125,189.814 138.125 C 189.757 138.125,190.028 138.453,190.417 138.854 M201.655 138.906 L 200.938 139.688 201.719 138.970 C 202.446 138.301,202.596 138.125,202.437 138.125 C 202.402 138.125,202.050 138.477,201.655 138.906 M101.966 139.010 L 101.354 139.688 102.031 139.076 C 102.662 138.505,102.804 138.333,102.643 138.333 C 102.607 138.333,102.303 138.638,101.966 139.010 M125.276 140.990 C 129.266 141.021,135.735 141.021,139.651 140.989 C 143.567 140.958,140.302 140.932,132.396 140.932 C 124.490 140.932,121.286 140.958,125.276 140.990 M166.823 140.980 C 167.081 141.030,167.503 141.030,167.760 140.980 C 168.018 140.931,167.807 140.890,167.292 140.890 C 166.776 140.890,166.565 140.931,166.823 140.980 M195.577 140.984 C 195.951 141.031,196.514 141.030,196.827 140.982 C 197.140 140.935,196.833 140.897,196.146 140.898 C 195.458 140.899,195.202 140.938,195.577 140.984 M272.135 140.989 C 274.857 141.022,279.310 141.022,282.031 140.989 C 284.753 140.957,282.526 140.930,277.083 140.930 C 271.641 140.930,269.414 140.957,272.135 140.989 M231.302 141.403 C 231.846 141.446,232.737 141.446,233.281 141.403 C 233.826 141.360,233.380 141.325,232.292 141.325 C 231.203 141.325,230.758 141.360,231.302 141.403 M186.767 150.777 L 188.744 150.848 188.804 156.830 L 188.864 162.813 188.859 156.771 L 188.854 150.729 186.822 150.717 L 184.791 150.705 186.767 150.777 M192.656 150.776 C 193.029 150.822,193.638 150.822,194.010 150.776 C 194.383 150.729,194.078 150.692,193.333 150.692 C 192.589 150.692,192.284 150.729,192.656 150.776 M225.729 150.777 L 227.708 150.848 227.708 153.341 C 227.708 155.644,227.851 156.237,228.249 155.593 C 228.340 155.446,228.306 155.409,228.164 155.497 C 227.997 155.600,227.913 154.936,227.871 153.185 L 227.813 150.729 225.781 150.717 L 223.749 150.705 225.729 150.777 M143.807 152.500 C 143.807 153.016,143.847 153.227,143.897 152.969 C 143.947 152.711,143.947 152.289,143.897 152.031 C 143.847 151.773,143.807 151.984,143.807 152.500 M218.627 152.787 C 218.566 152.945,218.552 153.531,218.596 154.089 L 218.675 155.104 218.712 153.916 L 218.750 152.728 220.052 152.654 L 221.354 152.580 220.046 152.540 C 219.098 152.511,218.707 152.579,218.627 152.787 M135.906 155.208 C 135.906 156.182,135.942 156.581,135.986 156.094 C 136.030 155.607,136.030 154.810,135.986 154.323 C 135.942 153.836,135.906 154.234,135.906 155.208 M149.640 155.833 C 149.640 156.349,149.681 156.560,149.730 156.302 C 149.780 156.044,149.780 155.622,149.730 155.365 C 149.681 155.107,149.640 155.318,149.640 155.833 M154.848 155.833 C 154.848 156.349,154.889 156.560,154.939 156.302 C 154.988 156.044,154.988 155.622,154.939 155.365 C 154.889 155.107,154.848 155.318,154.848 155.833 M190.473 155.833 C 190.473 156.349,190.514 156.560,190.564 156.302 C 190.613 156.044,190.613 155.622,190.564 155.365 C 190.514 155.107,190.473 155.318,190.473 155.833 M218.624 159.688 C 218.624 161.292,218.657 161.920,218.697 161.085 C 218.736 160.249,218.736 158.936,218.696 158.168 C 218.656 157.400,218.624 158.083,218.624 159.688 M227.936 157.373 C 227.774 157.568,227.717 158.508,227.761 160.238 L 227.827 162.813 227.872 160.198 C 227.901 158.498,228.004 157.496,228.167 157.333 C 228.304 157.196,228.363 157.083,228.296 157.083 C 228.230 157.083,228.068 157.214,227.936 157.373 M248.977 157.373 C 248.816 157.568,248.758 158.508,248.803 160.238 L 248.868 162.813 248.913 160.198 C 248.943 158.498,249.046 157.496,249.208 157.333 C 249.346 157.196,249.404 157.083,249.338 157.083 C 249.272 157.083,249.109 157.214,248.977 157.373 M135.907 160.938 C 135.907 161.969,135.942 162.417,135.986 161.933 C 136.029 161.450,136.030 160.606,135.987 160.058 C 135.944 159.511,135.908 159.906,135.907 160.938 M166.507 161.875 C 166.507 162.276,166.550 162.440,166.602 162.240 C 166.654 162.039,166.654 161.711,166.602 161.510 C 166.550 161.310,166.507 161.474,166.507 161.875 M256.923 161.875 C 256.923 162.276,256.966 162.440,257.019 162.240 C 257.071 162.039,257.071 161.711,257.019 161.510 C 256.966 161.310,256.923 161.474,256.923 161.875 M190.057 163.750 C 190.057 164.266,190.097 164.477,190.147 164.219 C 190.197 163.961,190.197 163.539,190.147 163.281 C 190.097 163.023,190.057 163.234,190.057 163.750 M205.265 163.750 C 205.265 164.266,205.306 164.477,205.355 164.219 C 205.405 163.961,205.405 163.539,205.355 163.281 C 205.306 163.023,205.265 163.234,205.265 163.750 M213.182 163.750 C 213.182 164.266,213.222 164.477,213.272 164.219 C 213.322 163.961,213.322 163.539,213.272 163.281 C 213.222 163.023,213.182 163.234,213.182 163.750 M249.844 163.646 C 249.847 164.104,249.889 164.267,249.939 164.008 C 249.989 163.749,249.987 163.374,249.935 163.175 C 249.883 162.975,249.842 163.188,249.844 163.646 M156.311 168.280 C 157.089 168.320,158.308 168.320,159.019 168.279 C 159.730 168.238,159.094 168.206,157.604 168.206 C 156.115 168.206,155.533 168.239,156.311 168.280 " stroke="none" fill="#9dd4f0" fill-rule="evenodd"></path><path id="path3" d="M120.156 64.105 C 120.414 64.155,120.836 64.155,121.094 64.105 C 121.352 64.056,121.141 64.015,120.625 64.015 C 120.109 64.015,119.898 64.056,120.156 64.105 M118.333 64.385 C 118.105 64.539,118.189 64.558,118.646 64.456 C 119.412 64.285,119.578 64.166,119.045 64.170 C 118.826 64.172,118.505 64.268,118.333 64.385 M133.027 70.697 C 134.020 71.376,134.583 71.707,134.583 71.614 C 134.583 71.482,132.971 70.417,132.771 70.417 C 132.685 70.417,132.801 70.543,133.027 70.697 M104.745 73.092 C 102.895 74.374,102.436 74.892,104.167 73.744 C 105.827 72.644,106.574 72.077,106.330 72.103 C 106.229 72.113,105.516 72.559,104.745 73.092 M135.729 72.400 C 135.958 72.586,136.333 72.831,136.563 72.943 L 136.979 73.148 136.563 72.809 C 136.333 72.622,135.958 72.377,135.729 72.265 L 135.313 72.060 135.729 72.400 M146.563 79.276 C 147.195 79.789,147.789 80.090,147.616 79.811 C 147.538 79.684,147.175 79.436,146.810 79.259 C 146.193 78.961,146.176 78.962,146.563 79.276 M93.229 80.956 L 92.604 81.493 93.281 81.045 C 93.654 80.798,93.958 80.556,93.958 80.507 C 93.958 80.351,93.870 80.405,93.229 80.956 M91.359 82.495 C 90.797 83.065,90.379 83.562,90.429 83.598 C 90.480 83.634,90.980 83.168,91.542 82.561 C 92.833 81.167,92.711 81.123,91.359 82.495 M151.033 82.344 C 151.544 82.888,151.989 83.333,152.023 83.333 C 152.179 83.333,152.014 83.146,151.094 82.283 L 150.104 81.354 151.033 82.344 M167.031 82.442 C 167.404 82.489,168.013 82.489,168.385 82.442 C 168.758 82.396,168.453 82.358,167.708 82.358 C 166.964 82.358,166.659 82.396,167.031 82.442 M195.573 82.442 C 195.945 82.489,196.555 82.489,196.927 82.442 C 197.299 82.396,196.995 82.358,196.250 82.358 C 195.505 82.358,195.201 82.396,195.573 82.442 M217.027 82.442 C 217.396 82.488,218.053 82.489,218.485 82.444 C 218.917 82.399,218.615 82.361,217.813 82.360 C 217.010 82.359,216.657 82.396,217.027 82.442 M271.837 82.448 C 274.624 82.481,279.124 82.481,281.837 82.448 C 284.551 82.415,282.271 82.388,276.771 82.388 C 271.271 82.388,269.051 82.415,271.837 82.448 M198.142 82.575 C 198.190 82.616,198.510 82.713,198.854 82.790 C 199.311 82.892,199.395 82.872,199.167 82.718 C 198.885 82.527,197.933 82.395,198.142 82.575 M241.771 83.750 C 241.338 84.094,241.085 84.375,241.209 84.375 C 241.333 84.375,241.496 84.274,241.573 84.150 C 241.649 84.026,242.007 83.745,242.366 83.526 C 242.726 83.306,242.917 83.126,242.789 83.126 C 242.662 83.125,242.203 83.406,241.771 83.750 M251.441 83.826 C 251.719 84.167,252.500 84.684,252.500 84.526 C 252.500 84.486,252.195 84.230,251.823 83.958 C 251.404 83.651,251.258 83.601,251.441 83.826 M161.969 84.635 L 161.146 85.521 162.031 84.697 C 162.855 83.931,163.012 83.750,162.855 83.750 C 162.821 83.750,162.422 84.148,161.969 84.635 M173.333 84.479 C 173.722 84.880,174.087 85.208,174.144 85.208 C 174.202 85.208,173.930 84.880,173.542 84.479 C 173.153 84.078,172.788 83.750,172.731 83.750 C 172.673 83.750,172.945 84.078,173.333 84.479 M190.303 84.635 L 189.479 85.521 190.365 84.697 C 190.852 84.244,191.250 83.846,191.250 83.812 C 191.250 83.654,191.069 83.812,190.303 84.635 M292.917 83.820 C 292.917 83.874,293.219 84.023,293.589 84.152 C 293.959 84.281,294.170 84.301,294.058 84.196 C 293.821 83.974,292.917 83.676,292.917 83.820 M253.281 85.818 C 254.087 87.308,254.160 87.411,254.164 87.057 C 254.165 86.870,254.027 86.602,253.856 86.460 C 253.686 86.319,253.590 86.132,253.643 86.046 C 253.697 85.960,253.555 85.721,253.328 85.516 C 252.920 85.146,252.919 85.149,253.281 85.818 M210.831 86.094 C 210.604 86.466,210.418 86.857,210.417 86.962 C 210.416 87.199,210.446 87.160,210.997 86.198 C 211.545 85.241,211.405 85.153,210.831 86.094 M239.372 86.465 C 239.009 87.342,239.196 87.400,239.609 86.538 C 239.795 86.151,239.877 85.833,239.791 85.833 C 239.704 85.833,239.516 86.118,239.372 86.465 M296.990 86.001 C 297.098 86.093,297.891 86.817,298.750 87.609 L 300.313 89.050 298.755 87.442 C 297.899 86.557,297.107 85.833,296.995 85.833 C 296.867 85.833,296.865 85.896,296.990 86.001 M89.428 86.771 C 89.430 87.229,89.473 87.392,89.522 87.133 C 89.572 86.874,89.570 86.499,89.518 86.300 C 89.466 86.100,89.425 86.313,89.428 86.771 M260.821 87.011 C 260.706 87.315,260.642 87.655,260.679 87.767 C 260.716 87.879,260.851 87.630,260.979 87.214 C 261.247 86.341,261.132 86.193,260.821 87.011 M89.432 89.167 C 89.432 89.682,89.472 89.893,89.522 89.635 C 89.572 89.378,89.572 88.956,89.522 88.698 C 89.472 88.440,89.432 88.651,89.432 89.167 M175.719 95.521 C 175.719 99.417,175.747 100.981,175.781 98.997 C 175.815 97.013,175.815 93.826,175.781 91.914 C 175.746 90.002,175.718 91.625,175.719 95.521 M204.010 111.702 C 203.981 124.497,203.904 135.138,203.838 135.348 C 203.731 135.690,203.742 135.693,203.944 135.381 C 204.102 135.137,204.153 128.148,204.115 111.736 L 204.061 88.438 204.010 111.702 M159.825 95.313 C 159.758 102.266,159.725 102.807,159.341 103.270 C 159.213 103.425,159.166 103.611,159.238 103.683 C 159.822 104.266,160.005 102.153,159.948 95.469 L 159.890 88.646 159.825 95.313 M188.218 95.833 C 188.218 99.672,188.247 101.242,188.281 99.323 C 188.315 97.404,188.315 94.263,188.281 92.344 C 188.247 90.424,188.218 91.995,188.218 95.833 M209.891 105.313 C 209.891 114.021,209.916 117.553,209.948 113.162 C 209.979 108.770,209.979 101.645,209.948 97.328 C 209.916 93.011,209.891 96.604,209.891 105.313 M150.145 95.736 C 149.823 96.019,149.643 96.250,149.744 96.250 C 149.845 96.250,150.148 96.016,150.417 95.729 C 151.039 95.066,150.902 95.070,150.145 95.736 M105.521 96.147 C 106.007 96.317,107.292 96.361,107.292 96.208 C 107.292 96.117,106.846 96.049,106.302 96.058 C 105.758 96.067,105.406 96.107,105.521 96.147 M108.837 96.323 C 108.778 96.477,108.758 97.251,108.792 98.042 L 108.854 99.479 110.503 99.479 C 111.673 99.479,112.168 99.402,112.207 99.214 C 112.236 99.067,112.213 99.044,112.155 99.161 C 112.096 99.279,111.353 99.375,110.503 99.375 L 108.958 99.375 108.958 97.825 L 108.958 96.275 109.740 96.193 L 110.521 96.112 109.733 96.077 C 109.237 96.055,108.905 96.146,108.837 96.323 M147.708 96.875 C 147.279 97.012,147.261 97.045,147.604 97.059 C 147.833 97.069,148.161 96.986,148.333 96.875 C 148.698 96.639,148.445 96.639,147.708 96.875 M127.363 97.243 C 127.145 97.382,137.270 97.374,143.438 97.231 C 144.813 97.200,141.813 97.155,136.771 97.132 C 131.729 97.109,127.496 97.159,127.363 97.243 M277.135 97.498 C 276.763 97.725,276.466 98.029,276.475 98.174 C 276.488 98.380,276.514 98.382,276.596 98.179 C 276.862 97.521,278.008 97.299,281.458 97.237 L 284.896 97.176 281.354 97.131 C 278.143 97.089,277.749 97.123,277.135 97.498 M112.136 98.021 C 112.138 98.479,112.181 98.642,112.231 98.383 C 112.281 98.124,112.279 97.749,112.226 97.550 C 112.174 97.350,112.134 97.563,112.136 98.021 M286.146 97.743 C 286.375 97.870,286.755 98.125,286.989 98.310 C 287.224 98.495,287.152 98.388,286.830 98.073 C 286.507 97.758,286.128 97.503,285.986 97.506 C 285.845 97.510,285.917 97.616,286.146 97.743 M126.257 98.111 C 126.139 98.333,126.051 98.731,126.063 98.997 C 126.080 99.384,126.115 99.352,126.238 98.836 C 126.323 98.482,126.459 98.084,126.542 97.951 C 126.624 97.817,126.642 97.708,126.582 97.708 C 126.522 97.708,126.376 97.890,126.257 98.111 M303.594 98.438 C 303.597 98.896,303.639 99.059,303.689 98.800 C 303.739 98.541,303.737 98.166,303.685 97.966 C 303.633 97.767,303.592 97.979,303.594 98.438 M103.958 99.427 C 103.958 99.513,104.732 99.569,105.677 99.552 C 107.451 99.520,107.247 99.432,105.156 99.330 C 104.497 99.297,103.958 99.341,103.958 99.427 M303.590 101.458 C 303.590 101.859,303.633 102.023,303.685 101.823 C 303.738 101.622,303.738 101.294,303.685 101.094 C 303.633 100.893,303.590 101.057,303.590 101.458 M105.000 101.160 C 105.710 101.319,107.292 101.346,107.292 101.199 C 107.292 101.113,106.706 101.053,105.990 101.066 C 105.273 101.079,104.828 101.121,105.000 101.160 M108.837 101.323 C 108.778 101.477,108.763 102.251,108.803 103.042 L 108.877 104.479 108.918 102.855 L 108.958 101.232 110.469 101.293 L 111.979 101.354 112.103 102.396 L 112.226 103.438 112.259 102.240 L 112.292 101.042 110.618 101.042 C 109.406 101.042,108.916 101.119,108.837 101.323 M286.788 102.871 L 286.388 103.438 286.944 102.932 C 287.528 102.402,287.600 102.287,287.344 102.298 C 287.258 102.302,287.008 102.560,286.788 102.871 M175.833 103.100 C 175.833 103.303,176.643 104.061,176.731 103.940 C 176.764 103.893,176.576 103.647,176.313 103.393 C 176.049 103.139,175.833 103.007,175.833 103.100 M103.972 103.281 C 103.952 103.665,104.735 104.378,105.156 104.359 C 105.397 104.348,105.336 104.274,104.976 104.142 C 104.677 104.032,104.331 103.735,104.209 103.482 C 104.087 103.228,103.980 103.138,103.972 103.281 M126.730 103.620 C 127.052 103.921,127.474 104.159,127.668 104.150 C 127.907 104.138,127.845 104.054,127.478 103.889 C 127.180 103.755,126.758 103.517,126.541 103.359 C 126.324 103.202,126.409 103.319,126.730 103.620 M187.500 103.501 C 187.500 103.594,187.242 103.771,186.927 103.896 C 186.588 104.030,186.493 104.131,186.696 104.145 C 186.883 104.157,187.258 103.982,187.529 103.757 C 187.800 103.532,187.904 103.344,187.760 103.340 C 187.617 103.336,187.500 103.409,187.500 103.501 M277.175 103.630 C 277.515 103.906,278.185 103.951,281.342 103.915 L 285.104 103.872 281.250 103.759 C 279.130 103.697,277.255 103.569,277.083 103.474 C 276.911 103.380,276.953 103.450,277.175 103.630 M142.034 104.106 C 142.293 104.156,142.668 104.154,142.867 104.101 C 143.066 104.049,142.854 104.009,142.396 104.011 C 141.938 104.013,141.775 104.056,142.034 104.106 M177.448 104.105 C 177.706 104.155,178.128 104.155,178.385 104.105 C 178.643 104.056,178.432 104.015,177.917 104.015 C 177.401 104.015,177.190 104.056,177.448 104.105 M300.006 111.403 C 300.003 111.544,300.258 111.924,300.573 112.246 C 300.888 112.569,300.995 112.641,300.810 112.406 C 300.625 112.171,300.370 111.792,300.243 111.563 C 300.116 111.333,300.010 111.262,300.006 111.403 M135.692 118.906 C 139.912 118.938,146.756 118.938,150.901 118.906 C 155.046 118.875,151.594 118.849,143.229 118.849 C 134.865 118.849,131.473 118.875,135.692 118.906 M179.647 118.906 C 181.000 118.942,183.156 118.942,184.439 118.905 C 185.721 118.869,184.615 118.839,181.979 118.839 C 179.344 118.839,178.294 118.869,179.647 118.906 M276.789 119.391 C 276.317 119.953,276.254 120.204,276.284 121.422 L 276.317 122.813 276.440 121.282 C 276.551 119.901,276.623 119.703,277.188 119.252 C 277.531 118.977,277.704 118.752,277.571 118.751 C 277.438 118.750,277.086 119.038,276.789 119.391 M285.052 118.894 C 285.253 118.946,285.581 118.946,285.781 118.894 C 285.982 118.841,285.818 118.798,285.417 118.798 C 285.016 118.798,284.852 118.841,285.052 118.894 M104.649 119.323 C 104.430 119.523,104.387 119.594,104.552 119.479 C 104.718 119.365,106.270 119.219,108.000 119.156 L 111.146 119.041 108.096 119.000 C 105.445 118.964,104.994 119.006,104.649 119.323 M126.366 119.630 C 126.129 119.968,126.051 120.542,126.078 121.765 L 126.114 123.438 126.234 121.645 C 126.304 120.599,126.473 119.710,126.640 119.510 C 126.797 119.321,126.873 119.167,126.808 119.167 C 126.743 119.167,126.544 119.375,126.366 119.630 M287.524 119.886 C 287.709 120.120,287.963 120.500,288.090 120.729 C 288.217 120.958,288.324 121.030,288.327 120.889 C 288.330 120.747,288.076 120.368,287.760 120.045 C 287.445 119.723,287.339 119.651,287.524 119.886 M225.886 120.938 C 225.888 121.396,225.931 121.559,225.981 121.300 C 226.031 121.041,226.029 120.666,225.976 120.466 C 225.924 120.267,225.884 120.479,225.886 120.938 M238.594 120.938 C 238.597 121.396,238.639 121.559,238.689 121.300 C 238.739 121.041,238.737 120.666,238.685 120.466 C 238.633 120.267,238.592 120.479,238.594 120.938 M111.969 127.917 C 111.969 132.099,111.997 133.810,112.031 131.719 C 112.065 129.628,112.065 126.206,112.031 124.115 C 111.997 122.023,111.969 123.734,111.969 127.917 M175.719 127.604 C 175.719 131.615,175.747 133.226,175.781 131.184 C 175.815 129.143,175.815 125.862,175.781 123.893 C 175.747 121.924,175.719 123.594,175.719 127.604 M188.219 127.500 C 188.219 131.453,188.247 133.070,188.281 131.094 C 188.315 129.117,188.315 125.883,188.281 123.906 C 188.247 121.930,188.219 123.547,188.219 127.500 M159.885 127.708 C 159.885 131.661,159.913 133.279,159.948 131.302 C 159.982 129.326,159.982 126.091,159.948 124.115 C 159.913 122.138,159.885 123.755,159.885 127.708 M254.428 122.188 C 254.430 122.646,254.473 122.809,254.522 122.550 C 254.572 122.291,254.570 121.916,254.518 121.716 C 254.466 121.517,254.425 121.729,254.428 122.188 M304.442 123.333 C 304.442 124.078,304.479 124.383,304.526 124.010 C 304.572 123.638,304.572 123.029,304.526 122.656 C 304.479 122.284,304.442 122.589,304.442 123.333 M210.048 122.917 C 210.048 123.318,210.091 123.482,210.144 123.281 C 210.196 123.081,210.196 122.753,210.144 122.552 C 210.091 122.352,210.048 122.516,210.048 122.917 M288.382 123.125 C 288.382 123.526,288.425 123.690,288.477 123.490 C 288.529 123.289,288.529 122.961,288.477 122.760 C 288.425 122.560,288.382 122.724,288.382 123.125 M254.091 124.299 C 254.017 124.837,253.997 125.317,254.046 125.366 C 254.095 125.415,254.201 125.020,254.280 124.489 C 254.360 123.957,254.380 123.477,254.325 123.422 C 254.270 123.367,254.165 123.762,254.091 124.299 M227.202 124.626 C 227.529 125.050,227.843 125.352,227.898 125.296 C 227.954 125.241,227.686 124.893,227.304 124.525 L 226.608 123.854 227.202 124.626 M276.253 124.497 C 276.255 124.716,276.352 125.036,276.468 125.208 C 276.622 125.437,276.642 125.352,276.540 124.896 C 276.368 124.130,276.249 123.964,276.253 124.497 M126.482 125.585 C 126.732 125.986,127.275 126.352,127.398 126.203 C 127.424 126.171,127.165 125.919,126.823 125.641 C 126.244 125.171,126.221 125.167,126.482 125.585 M228.513 125.821 C 228.783 126.057,229.103 126.250,229.224 126.250 C 229.481 126.250,229.468 126.240,228.646 125.758 L 228.021 125.392 228.513 125.821 M278.099 126.308 C 278.188 126.397,279.661 126.444,281.370 126.411 L 284.479 126.353 281.208 126.249 C 279.408 126.192,278.009 126.219,278.099 126.308 M134.233 126.406 C 136.733 126.439,140.764 126.439,143.191 126.406 C 145.618 126.373,143.573 126.345,138.646 126.346 C 133.719 126.346,131.733 126.373,134.233 126.406 M231.927 126.810 C 232.128 126.863,232.456 126.863,232.656 126.810 C 232.857 126.758,232.693 126.715,232.292 126.715 C 231.891 126.715,231.727 126.758,231.927 126.810 M211.161 127.708 C 211.238 127.995,211.387 128.370,211.493 128.542 C 211.628 128.759,211.644 128.695,211.547 128.333 C 211.471 128.047,211.321 127.672,211.215 127.500 C 211.081 127.283,211.064 127.346,211.161 127.708 M150.115 127.658 C 150.223 127.745,150.641 128.096,151.042 128.439 L 151.771 129.062 151.053 128.281 C 150.658 127.851,150.241 127.500,150.126 127.500 C 149.996 127.500,149.991 127.560,150.115 127.658 M252.020 130.315 C 251.829 130.715,251.716 131.042,251.769 131.042 C 251.911 131.042,252.544 129.766,252.449 129.671 C 252.403 129.626,252.210 129.916,252.020 130.315 M213.061 131.683 C 213.268 132.035,213.571 132.434,213.733 132.568 C 213.896 132.703,213.766 132.414,213.445 131.927 C 212.771 130.905,212.505 130.735,213.061 131.683 M89.423 134.375 C 89.423 134.776,89.466 134.940,89.519 134.740 C 89.571 134.539,89.571 134.211,89.519 134.010 C 89.466 133.810,89.423 133.974,89.423 134.375 M216.042 135.313 C 216.664 135.943,217.220 136.458,217.277 136.458 C 217.335 136.458,216.872 135.943,216.250 135.313 C 215.628 134.682,215.072 134.167,215.014 134.167 C 214.957 134.167,215.419 134.682,216.042 135.313 M299.063 136.195 C 298.260 136.957,297.885 137.382,298.229 137.140 C 298.838 136.712,300.806 134.783,300.616 134.801 C 300.564 134.806,299.865 135.433,299.063 136.195 M174.937 136.773 C 174.746 137.173,174.633 137.500,174.686 137.500 C 174.828 137.500,175.461 136.224,175.365 136.129 C 175.320 136.084,175.127 136.374,174.937 136.773 M246.563 136.802 C 245.935 137.363,245.888 137.440,246.373 137.116 C 246.949 136.731,247.673 136.029,247.473 136.049 C 247.431 136.054,247.021 136.392,246.563 136.802 M260.833 136.330 C 260.833 136.553,261.453 137.708,261.573 137.708 C 261.630 137.708,261.522 137.404,261.333 137.031 C 260.946 136.271,260.833 136.112,260.833 136.330 M160.417 136.817 C 160.417 136.938,160.610 137.258,160.846 137.529 L 161.275 138.021 160.909 137.396 C 160.427 136.573,160.417 136.561,160.417 136.817 M103.070 137.762 L 102.702 138.438 103.122 137.946 C 103.479 137.527,103.670 137.080,103.490 137.085 C 103.461 137.085,103.272 137.390,103.070 137.762 M90.790 138.021 C 90.909 138.250,91.319 138.719,91.701 139.062 L 92.396 139.687 91.667 138.854 C 91.267 138.396,90.857 137.927,90.756 137.813 C 90.656 137.698,90.671 137.792,90.790 138.021 M189.539 138.023 C 189.657 138.254,189.973 138.628,190.241 138.855 C 190.712 139.253,190.711 139.246,190.211 138.644 C 189.382 137.645,189.312 137.581,189.539 138.023 M113.333 138.542 C 113.578 138.885,113.825 139.167,113.883 139.167 C 113.940 139.167,113.786 138.885,113.542 138.542 C 113.297 138.198,113.050 137.917,112.992 137.917 C 112.935 137.917,113.089 138.198,113.333 138.542 M161.875 138.854 C 162.264 139.255,162.629 139.583,162.686 139.583 C 162.743 139.583,162.472 139.255,162.083 138.854 C 161.695 138.453,161.330 138.125,161.272 138.125 C 161.215 138.125,161.486 138.453,161.875 138.854 M262.604 138.931 C 263.063 139.422,263.625 139.922,263.854 140.042 C 264.334 140.292,264.236 140.189,262.813 138.947 L 261.771 138.037 262.604 138.931 M201.758 139.010 L 201.146 139.688 201.823 139.076 C 202.454 138.505,202.596 138.333,202.435 138.333 C 202.399 138.333,202.094 138.638,201.758 139.010 M173.021 139.302 C 172.393 139.863,172.347 139.940,172.831 139.616 C 173.407 139.231,174.131 138.529,173.932 138.549 C 173.889 138.554,173.479 138.892,173.021 139.302 M92.888 139.988 C 93.158 140.224,93.478 140.417,93.599 140.417 C 93.856 140.417,93.843 140.406,93.021 139.925 L 92.396 139.559 92.888 139.988 M100.521 140.120 C 100.046 140.404,99.839 140.620,100.040 140.622 C 100.235 140.623,100.656 140.394,100.978 140.111 C 101.699 139.477,101.595 139.479,100.521 140.120 M149.700 139.902 C 149.477 140.071,149.389 140.208,149.504 140.208 C 149.618 140.208,149.894 140.071,150.116 139.902 C 150.339 139.734,150.427 139.597,150.313 139.597 C 150.198 139.597,149.922 139.734,149.700 139.902 M225.208 140.615 C 225.380 140.732,225.701 140.828,225.920 140.830 C 226.453 140.834,226.287 140.715,225.521 140.544 C 225.064 140.442,224.980 140.461,225.208 140.615 M226.875 141.042 C 227.161 141.133,227.630 141.207,227.917 141.205 C 228.384 141.201,228.374 141.185,227.813 141.042 C 226.931 140.817,226.175 140.817,226.875 141.042 M236.667 141.042 C 235.955 141.192,235.952 141.195,236.563 141.208 C 236.906 141.215,237.375 141.140,237.604 141.042 C 238.105 140.826,237.689 140.826,236.667 141.042 M266.267 140.910 C 266.315 140.952,266.729 141.043,267.188 141.113 C 267.768 141.202,267.895 141.183,267.604 141.051 C 267.204 140.870,266.088 140.752,266.267 140.910 M287.242 140.981 C 287.501 141.031,287.876 141.029,288.075 140.976 C 288.275 140.924,288.063 140.884,287.604 140.886 C 287.146 140.888,286.983 140.931,287.242 140.981 M125.484 141.198 C 129.359 141.230,135.641 141.230,139.442 141.198 C 143.244 141.166,140.073 141.140,132.396 141.140 C 124.719 141.140,121.608 141.166,125.484 141.198 M274.010 141.198 C 276.273 141.231,279.977 141.231,282.240 141.198 C 284.503 141.164,282.651 141.137,278.125 141.137 C 273.599 141.137,271.747 141.164,274.010 141.198 M229.325 141.397 C 229.584 141.447,229.959 141.445,230.159 141.393 C 230.358 141.341,230.146 141.300,229.688 141.303 C 229.229 141.305,229.066 141.348,229.325 141.397 M231.719 141.608 C 232.034 141.655,232.549 141.655,232.865 141.608 C 233.180 141.560,232.922 141.521,232.292 141.521 C 231.661 141.521,231.404 141.560,231.719 141.608 M191.750 150.916 C 191.689 151.075,191.669 151.568,191.705 152.009 L 191.771 152.813 193.021 152.827 L 194.271 152.842 193.054 152.765 L 191.836 152.687 191.908 151.656 C 191.981 150.593,191.943 150.413,191.750 150.916 M184.583 151.550 C 184.583 151.944,184.655 152.312,184.743 152.366 C 184.831 152.420,184.868 152.098,184.826 151.649 C 184.730 150.642,184.583 150.582,184.583 151.550 M223.594 151.563 C 223.597 152.021,223.639 152.184,223.689 151.925 C 223.739 151.666,223.737 151.291,223.685 151.091 C 223.633 150.892,223.592 151.104,223.594 151.563 M133.385 151.612 C 134.044 151.654,135.122 151.654,135.781 151.612 C 136.440 151.571,135.901 151.537,134.583 151.537 C 133.266 151.537,132.727 151.571,133.385 151.612 M140.580 151.612 C 141.185 151.654,142.123 151.654,142.663 151.611 C 143.204 151.568,142.708 151.534,141.563 151.534 C 140.417 151.535,139.974 151.570,140.580 151.612 M210.469 151.602 C 210.669 151.654,210.997 151.654,211.198 151.602 C 211.398 151.550,211.234 151.507,210.833 151.507 C 210.432 151.507,210.268 151.550,210.469 151.602 M131.723 152.500 C 131.723 153.016,131.764 153.227,131.814 152.969 C 131.863 152.711,131.863 152.289,131.814 152.031 C 131.764 151.773,131.723 151.984,131.723 152.500 M138.598 152.500 C 138.598 153.016,138.639 153.227,138.689 152.969 C 138.738 152.711,138.738 152.289,138.689 152.031 C 138.639 151.773,138.598 151.984,138.598 152.500 M218.472 152.639 C 218.396 152.715,218.333 153.225,218.333 153.771 C 218.333 154.699,218.296 154.768,217.760 154.830 C 217.224 154.892,217.186 154.962,217.166 155.938 L 217.145 156.979 217.230 155.990 C 217.309 155.060,217.350 155.000,217.910 155.000 C 218.490 155.000,218.506 154.970,218.575 153.750 C 218.614 153.062,218.638 152.499,218.628 152.500 C 218.619 152.500,218.549 152.563,218.472 152.639 M224.323 152.647 C 224.990 152.776,225.031 153.135,224.960 158.167 C 224.925 160.644,224.965 162.562,225.049 162.429 C 225.133 162.296,225.203 160.065,225.205 157.470 C 225.209 152.450,225.208 152.446,224.202 152.528 C 223.997 152.545,224.047 152.594,224.323 152.647 M186.042 157.495 L 186.042 162.281 185.405 162.610 C 184.687 162.982,184.529 164.658,185.208 164.706 C 185.389 164.718,185.411 164.691,185.260 164.640 C 184.672 164.443,184.953 162.974,185.625 162.740 L 186.250 162.522 186.250 157.615 C 186.250 154.916,186.203 152.708,186.146 152.708 C 186.089 152.708,186.042 154.862,186.042 157.495 M132.672 153.714 C 133.178 154.220,133.397 162.330,132.911 162.571 C 132.794 162.629,132.817 162.653,132.964 162.623 C 133.288 162.558,133.469 153.542,133.146 153.542 C 133.039 153.542,132.786 153.479,132.585 153.401 C 132.296 153.291,132.315 153.356,132.672 153.714 M142.068 154.098 L 141.563 154.654 142.129 154.254 C 142.440 154.034,142.698 153.784,142.702 153.698 C 142.713 153.441,142.598 153.513,142.068 154.098 M208.462 155.754 C 208.164 156.640,207.956 157.401,208.000 157.444 C 208.044 157.488,208.323 156.799,208.621 155.913 C 208.919 155.027,209.127 154.266,209.083 154.222 C 209.040 154.179,208.760 154.868,208.462 155.754 M221.274 154.531 C 221.252 154.953,221.339 154.996,222.135 154.965 L 223.021 154.930 222.253 154.849 C 221.753 154.796,221.452 154.645,221.391 154.415 C 221.325 154.164,221.291 154.197,221.274 154.531 M160.131 154.748 C 160.075 154.839,160.374 154.879,160.796 154.837 C 161.949 154.723,162.086 154.618,161.106 154.600 C 160.626 154.591,160.187 154.657,160.131 154.748 M169.743 154.734 C 170.118 154.781,170.680 154.780,170.993 154.732 C 171.306 154.685,171.000 154.647,170.313 154.648 C 169.625 154.649,169.369 154.688,169.743 154.734 M179.430 154.733 C 179.747 154.781,180.215 154.779,180.472 154.730 C 180.728 154.681,180.469 154.641,179.896 154.643 C 179.323 154.644,179.113 154.685,179.430 154.733 M229.191 154.772 C 229.013 154.885,229.293 154.917,229.920 154.856 C 231.331 154.719,231.528 154.619,230.417 154.603 C 229.901 154.596,229.349 154.672,229.191 154.772 M239.430 154.733 C 239.747 154.781,240.215 154.779,240.472 154.730 C 240.728 154.681,240.469 154.641,239.896 154.643 C 239.323 154.644,239.113 154.685,239.430 154.733 M251.302 154.727 C 251.503 154.779,251.831 154.779,252.031 154.727 C 252.232 154.675,252.068 154.632,251.667 154.632 C 251.266 154.632,251.102 154.675,251.302 154.727 M260.055 154.733 C 260.372 154.781,260.840 154.779,261.097 154.730 C 261.353 154.681,261.094 154.641,260.521 154.643 C 259.948 154.644,259.738 154.685,260.055 154.733 M144.040 155.087 C 143.978 155.249,143.967 155.647,144.016 155.972 C 144.091 156.473,144.109 156.445,144.135 155.788 L 144.167 155.014 146.510 154.947 L 148.854 154.881 146.504 154.836 C 144.639 154.801,144.130 154.853,144.040 155.087 M151.927 154.947 L 154.375 155.013 154.375 155.840 C 154.375 156.295,154.469 156.667,154.583 156.667 C 154.943 156.667,154.831 155.060,154.462 154.918 C 154.281 154.849,153.086 154.812,151.806 154.836 L 149.479 154.881 151.927 154.947 M155.885 154.945 C 156.430 154.988,157.320 154.988,157.865 154.945 C 158.409 154.902,157.964 154.867,156.875 154.867 C 155.786 154.867,155.341 154.902,155.885 154.945 M190.347 154.931 C 190.271 155.007,190.210 155.171,190.212 155.295 C 190.214 155.435,190.275 155.425,190.375 155.269 C 190.476 155.110,191.261 154.991,192.507 154.947 L 194.479 154.878 192.483 154.835 C 191.385 154.811,190.424 154.854,190.347 154.931 M245.892 154.945 C 246.439 154.988,247.283 154.988,247.767 154.944 C 248.250 154.900,247.802 154.865,246.771 154.866 C 245.740 154.866,245.344 154.902,245.892 154.945 M159.269 155.212 C 159.197 155.328,159.051 155.370,158.944 155.304 C 158.837 155.238,158.750 155.344,158.750 155.541 C 158.750 155.871,158.781 155.870,159.167 155.521 C 159.396 155.313,159.583 155.111,159.583 155.072 C 159.583 154.924,159.395 155.008,159.269 155.212 M244.636 155.729 C 244.638 156.188,244.681 156.350,244.731 156.091 C 244.781 155.832,244.779 155.457,244.726 155.258 C 244.674 155.059,244.634 155.271,244.636 155.729 M249.377 155.310 C 249.235 155.481,249.036 155.569,248.935 155.506 C 248.833 155.443,248.750 155.491,248.750 155.613 C 248.750 155.932,248.929 155.887,249.526 155.417 C 249.818 155.188,249.961 155.000,249.845 155.000 C 249.729 155.000,249.519 155.140,249.377 155.310 M149.007 155.833 C 149.007 156.234,149.050 156.398,149.102 156.198 C 149.154 155.997,149.154 155.669,149.102 155.469 C 149.050 155.268,149.007 155.432,149.007 155.833 M176.670 155.934 C 176.283 156.334,176.006 156.692,176.056 156.732 C 176.105 156.771,176.461 156.444,176.847 156.006 C 177.723 155.009,177.610 154.964,176.670 155.934 M236.587 156.042 C 236.172 156.501,235.836 156.993,235.840 157.136 C 235.843 157.279,235.949 157.208,236.075 156.979 C 236.202 156.750,236.592 156.258,236.943 155.885 C 237.294 155.513,237.527 155.208,237.461 155.208 C 237.395 155.208,237.001 155.584,236.587 156.042 M137.279 156.059 C 136.966 156.499,136.699 156.669,136.432 156.599 C 136.217 156.543,136.042 156.582,136.042 156.686 C 136.042 157.192,137.013 156.818,137.450 156.143 C 138.032 155.245,137.904 155.182,137.279 156.059 M166.881 155.931 C 166.528 156.307,166.381 156.740,166.335 157.545 L 166.271 158.646 166.448 157.535 C 166.557 156.855,166.809 156.230,167.099 155.921 C 167.359 155.644,167.526 155.417,167.468 155.417 C 167.411 155.417,167.147 155.648,166.881 155.931 M182.979 156.030 C 183.288 156.398,183.542 156.801,183.542 156.926 C 183.542 157.051,183.592 157.102,183.654 157.041 C 183.846 156.849,183.325 155.928,182.860 155.638 C 182.491 155.408,182.511 155.474,182.979 156.030 M257.302 155.971 C 256.774 156.643,256.605 157.251,256.723 158.048 C 256.793 158.514,256.819 158.458,256.844 157.789 C 256.863 157.264,257.074 156.640,257.390 156.175 C 257.989 155.291,257.935 155.166,257.302 155.971 M174.023 157.188 C 174.024 157.875,174.063 158.131,174.109 157.757 C 174.156 157.382,174.155 156.820,174.107 156.507 C 174.060 156.194,174.022 156.500,174.023 157.188 M264.440 157.188 C 264.441 157.875,264.480 158.131,264.526 157.757 C 264.572 157.382,264.571 156.820,264.524 156.507 C 264.476 156.194,264.438 156.500,264.440 157.188 M144.954 157.278 C 145.147 157.615,145.333 157.861,145.368 157.826 C 145.481 157.713,144.939 156.667,144.768 156.667 C 144.677 156.667,144.761 156.942,144.954 157.278 M171.406 157.066 C 171.664 157.314,171.875 157.669,171.875 157.855 C 171.875 158.042,171.930 158.139,171.998 158.071 C 172.226 157.843,171.850 157.085,171.392 156.849 C 170.939 156.616,170.939 156.617,171.406 157.066 M191.351 157.005 C 191.635 157.290,191.679 157.771,191.626 160.026 C 191.591 161.502,191.633 162.709,191.719 162.709 C 192.065 162.708,191.896 156.928,191.545 156.793 C 191.028 156.595,190.986 156.641,191.351 157.005 M261.635 157.001 C 261.898 157.186,262.194 157.537,262.293 157.783 C 262.437 158.140,262.476 158.156,262.487 157.865 C 262.502 157.452,261.797 156.667,261.412 156.667 C 261.272 156.667,261.372 156.817,261.635 157.001 M156.089 161.523 C 156.061 164.390,155.965 166.227,155.848 166.155 C 155.741 166.089,155.595 166.130,155.523 166.247 C 155.451 166.363,155.541 166.458,155.723 166.458 C 156.240 166.458,156.262 166.217,156.198 161.349 L 156.137 156.771 156.089 161.523 M159.467 157.203 C 159.244 157.383,159.200 157.459,159.368 157.371 C 159.536 157.283,160.005 157.147,160.410 157.067 C 161.142 156.924,161.142 156.923,160.509 156.899 C 160.158 156.886,159.689 157.023,159.467 157.203 M169.208 157.125 C 168.783 157.550,169.255 158.542,169.883 158.542 C 169.973 158.542,169.825 158.360,169.554 158.139 C 169.127 157.789,169.097 157.679,169.325 157.305 C 169.620 156.820,169.578 156.755,169.208 157.125 M217.813 157.066 C 218.155 157.199,218.250 157.484,218.349 158.666 L 218.468 160.104 218.505 158.490 L 218.542 156.875 217.969 156.890 C 217.473 156.902,217.452 156.926,217.813 157.066 M221.253 157.240 C 221.255 157.474,221.311 157.519,221.409 157.365 C 221.494 157.233,221.797 157.082,222.083 157.029 C 222.524 156.947,222.500 156.927,221.927 156.903 C 221.409 156.882,221.251 156.961,221.253 157.240 M229.320 157.026 C 230.403 157.160,230.625 157.697,230.625 160.180 C 230.625 162.004,230.567 162.393,230.260 162.623 C 229.929 162.871,229.938 162.885,230.365 162.778 C 230.816 162.664,230.833 162.573,230.833 160.316 C 230.833 157.562,230.514 156.848,229.308 156.908 L 228.646 156.942 229.320 157.026 M246.007 159.612 C 246.060 161.718,246.012 162.395,245.798 162.545 C 245.578 162.700,245.585 162.723,245.833 162.655 C 246.172 162.563,246.434 156.875,246.100 156.875 C 246.010 156.875,245.969 158.106,246.007 159.612 M249.792 156.956 C 249.792 157.001,250.113 157.075,250.506 157.121 C 250.899 157.167,251.175 157.130,251.119 157.040 C 251.018 156.877,249.792 156.800,249.792 156.956 M259.625 157.125 C 259.257 157.493,259.318 157.804,259.844 158.249 L 260.313 158.646 259.905 158.165 C 259.567 157.767,259.541 157.616,259.751 157.280 C 260.039 156.819,259.990 156.760,259.625 157.125 M161.603 157.810 C 161.794 158.209,161.987 158.499,162.032 158.454 C 162.127 158.359,161.495 157.083,161.352 157.083 C 161.300 157.083,161.413 157.410,161.603 157.810 M180.889 157.666 C 181.098 158.238,181.089 158.385,180.830 158.548 C 180.569 158.713,180.577 158.744,180.885 158.747 C 181.342 158.751,181.376 157.955,180.944 157.384 C 180.667 157.019,180.662 157.046,180.889 157.666 M240.889 157.666 C 241.098 158.238,241.089 158.385,240.830 158.548 C 240.569 158.713,240.577 158.744,240.885 158.747 C 241.342 158.751,241.376 157.955,240.944 157.384 C 240.667 157.019,240.662 157.046,240.889 157.666 M149.940 158.378 C 149.751 158.971,149.630 159.491,149.672 159.533 C 149.715 159.576,149.909 159.129,150.104 158.542 C 150.299 157.954,150.420 157.434,150.372 157.386 C 150.325 157.338,150.130 157.785,149.940 158.378 M251.631 159.874 L 251.699 162.418 251.162 162.663 C 250.711 162.868,250.631 163.034,250.660 163.693 L 250.695 164.479 250.777 163.699 C 250.842 163.079,250.963 162.892,251.367 162.791 C 251.885 162.661,252.176 158.298,251.716 157.571 C 251.631 157.438,251.593 158.474,251.631 159.874 M159.011 158.438 C 159.013 158.896,159.056 159.059,159.106 158.800 C 159.156 158.541,159.154 158.166,159.101 157.966 C 159.049 157.767,159.009 157.979,159.011 158.438 M207.108 159.608 C 206.753 160.667,206.499 161.568,206.542 161.612 C 206.586 161.655,206.912 160.825,207.267 159.767 C 207.622 158.708,207.876 157.807,207.833 157.763 C 207.789 157.720,207.463 158.550,207.108 159.608 M233.578 160.156 C 233.558 161.560,233.612 162.709,233.698 162.709 C 233.784 162.709,233.829 161.936,233.798 160.990 C 233.696 157.874,233.615 157.566,233.578 160.156 M184.025 159.167 C 184.025 159.911,184.063 160.216,184.109 159.844 C 184.155 159.471,184.155 158.862,184.109 158.490 C 184.063 158.117,184.025 158.422,184.025 159.167 M145.536 158.542 C 145.613 158.828,145.762 159.203,145.868 159.375 C 146.003 159.592,146.019 159.529,145.922 159.167 C 145.846 158.880,145.696 158.505,145.590 158.333 C 145.456 158.116,145.439 158.180,145.536 158.542 M175.489 159.792 C 175.489 160.766,175.525 161.164,175.569 160.677 C 175.613 160.190,175.613 159.393,175.569 158.906 C 175.525 158.419,175.489 158.818,175.489 159.792 M178.337 158.385 C 178.334 158.630,178.487 158.745,178.802 158.734 C 179.115 158.723,179.167 158.678,178.958 158.598 C 178.786 158.533,178.577 158.376,178.493 158.250 C 178.398 158.109,178.338 158.161,178.337 158.385 M235.448 159.792 C 235.434 160.766,235.493 161.673,235.579 161.808 C 235.665 161.944,235.707 161.334,235.671 160.454 C 235.576 158.080,235.477 157.786,235.448 159.792 M238.337 158.385 C 238.334 158.630,238.487 158.745,238.802 158.734 C 239.115 158.723,239.167 158.678,238.958 158.598 C 238.786 158.533,238.577 158.376,238.493 158.250 C 238.398 158.109,238.338 158.161,238.337 158.385 M244.023 159.271 C 244.024 159.958,244.063 160.214,244.109 159.840 C 244.156 159.466,244.155 158.903,244.107 158.590 C 244.060 158.277,244.022 158.583,244.023 159.271 M212.425 158.646 C 212.274 159.040,210.502 159.084,210.346 158.698 C 210.284 158.542,210.235 158.584,210.225 158.802 C 210.211 159.111,210.400 159.167,211.458 159.167 C 212.569 159.167,212.708 159.120,212.708 158.750 C 212.708 158.256,212.591 158.212,212.425 158.646 M162.118 159.800 C 162.098 160.466,161.909 161.303,161.672 161.779 C 161.272 162.583,161.271 162.592,161.666 162.121 C 162.148 161.543,162.353 160.596,162.238 159.470 C 162.167 158.779,162.148 158.832,162.118 159.800 M254.653 160.208 C 254.653 161.068,254.690 161.419,254.735 160.990 C 254.780 160.560,254.780 159.857,254.735 159.427 C 254.690 158.997,254.653 159.349,254.653 160.208 M256.875 158.882 C 256.875 159.116,257.635 159.851,258.125 160.091 C 258.297 160.176,258.209 160.059,257.930 159.832 C 257.651 159.604,257.299 159.250,257.149 159.045 C 256.998 158.839,256.875 158.766,256.875 158.882 M136.045 159.531 C 136.047 159.821,136.085 159.837,136.231 159.607 C 136.343 159.431,136.624 159.358,136.951 159.421 C 137.246 159.477,137.438 159.443,137.377 159.345 C 137.157 158.988,136.041 159.144,136.045 159.531 M137.822 160.365 C 138.025 160.680,138.411 161.264,138.679 161.663 C 138.947 162.062,139.167 162.507,139.167 162.653 C 139.167 162.798,139.260 162.917,139.375 162.917 C 139.490 162.917,139.583 162.869,139.583 162.810 C 139.583 162.646,137.660 159.792,137.550 159.792 C 137.496 159.792,137.619 160.049,137.822 160.365 M149.097 160.173 C 149.135 160.326,149.167 160.495,149.167 160.550 C 149.167 160.605,149.260 160.592,149.375 160.521 C 149.490 160.450,149.582 160.234,149.580 160.040 C 149.578 159.761,149.539 159.747,149.397 159.971 C 149.298 160.128,149.174 160.175,149.122 160.076 C 149.069 159.977,149.058 160.021,149.097 160.173 M218.396 161.250 C 218.396 161.880,218.435 162.138,218.483 161.823 C 218.530 161.508,218.530 160.992,218.483 160.677 C 218.435 160.362,218.396 160.620,218.396 161.250 M171.175 161.250 C 171.306 161.422,171.460 161.750,171.516 161.979 C 171.613 162.375,171.620 162.374,171.642 161.953 C 171.656 161.709,171.503 161.381,171.302 161.223 C 170.985 160.975,170.969 160.978,171.175 161.250 M209.511 161.198 C 209.458 161.284,210.334 161.354,211.458 161.354 C 212.581 161.354,213.458 161.284,213.405 161.198 C 213.352 161.112,212.476 161.042,211.458 161.042 C 210.441 161.042,209.564 161.112,209.511 161.198 M261.510 161.332 C 262.006 161.708,261.968 162.170,261.406 162.595 C 260.939 162.949,260.939 162.949,261.458 162.648 C 262.248 162.190,262.192 161.025,261.381 161.048 C 261.252 161.052,261.310 161.179,261.510 161.332 M158.975 161.589 C 158.958 162.055,159.498 162.655,159.727 162.426 C 159.801 162.352,159.760 162.292,159.635 162.292 C 159.511 162.292,159.316 162.034,159.200 161.719 C 159.023 161.232,158.989 161.212,158.975 161.589 M142.521 162.240 C 142.679 162.497,142.942 162.708,143.106 162.708 C 143.269 162.708,143.364 162.684,143.316 162.654 C 143.268 162.624,143.005 162.413,142.731 162.185 L 142.233 161.771 142.521 162.240 M197.169 162.370 C 197.108 162.528,197.089 163.114,197.127 163.672 L 197.195 164.688 197.296 163.385 C 197.397 162.069,197.369 161.847,197.169 162.370 M198.073 162.230 C 198.331 162.280,198.753 162.280,199.010 162.230 C 199.268 162.181,199.057 162.140,198.542 162.140 C 198.026 162.140,197.815 162.181,198.073 162.230 M160.417 162.500 L 159.896 162.667 160.469 162.688 C 160.784 162.699,161.042 162.615,161.042 162.500 C 161.042 162.385,161.018 162.301,160.990 162.312 C 160.961 162.324,160.703 162.408,160.417 162.500 M166.490 163.066 C 166.466 163.572,166.573 163.791,166.927 163.962 C 167.336 164.161,167.352 164.154,167.049 163.908 C 166.858 163.753,166.662 163.349,166.612 163.011 L 166.521 162.396 166.490 163.066 M180.159 162.647 C 180.418 162.697,180.793 162.695,180.992 162.643 C 181.191 162.591,180.979 162.550,180.521 162.553 C 180.063 162.555,179.900 162.598,180.159 162.647 M240.159 162.647 C 240.418 162.697,240.793 162.695,240.992 162.643 C 241.191 162.591,240.979 162.550,240.521 162.553 C 240.063 162.555,239.900 162.598,240.159 162.647 M131.750 163.001 C 131.688 163.162,131.676 163.607,131.723 163.991 C 131.801 164.630,131.811 164.616,131.842 163.817 C 131.866 163.182,131.973 162.922,132.240 162.852 C 132.581 162.763,132.581 162.755,132.233 162.733 C 132.029 162.719,131.811 162.840,131.750 163.001 M223.833 163.001 C 223.771 163.162,223.759 163.607,223.806 163.991 C 223.885 164.632,223.894 164.618,223.925 163.819 C 223.943 163.342,224.076 162.904,224.219 162.846 C 224.423 162.764,224.421 162.738,224.212 162.725 C 224.065 162.716,223.895 162.840,223.833 163.001 M244.875 163.001 C 244.813 163.162,244.801 163.607,244.848 163.991 C 244.926 164.632,244.936 164.618,244.967 163.819 C 244.985 163.342,245.117 162.904,245.260 162.846 C 245.464 162.764,245.463 162.738,245.254 162.725 C 245.107 162.716,244.936 162.840,244.875 163.001 M138.807 163.750 C 138.807 164.266,138.847 164.477,138.897 164.219 C 138.947 163.961,138.947 163.539,138.897 163.281 C 138.847 163.023,138.807 163.234,138.807 163.750 M190.347 163.056 C 190.132 163.271,190.184 164.335,190.417 164.479 C 190.542 164.557,190.625 164.273,190.625 163.762 C 190.625 162.899,190.591 162.812,190.347 163.056 M229.640 163.750 C 229.640 164.266,229.681 164.477,229.730 164.219 C 229.780 163.961,229.780 163.539,229.730 163.281 C 229.681 163.023,229.640 163.234,229.640 163.750 M173.526 163.673 C 173.044 164.196,173.042 164.208,173.486 163.938 C 173.741 163.782,173.996 163.536,174.052 163.390 C 174.201 163.001,174.090 163.061,173.526 163.673 M263.947 163.657 C 263.672 163.950,263.588 164.136,263.759 164.070 C 264.031 163.966,264.705 163.125,264.517 163.125 C 264.479 163.125,264.223 163.365,263.947 163.657 M218.750 163.492 C 218.750 163.731,219.316 164.375,219.526 164.375 C 219.593 164.375,219.470 164.164,219.253 163.906 C 219.036 163.648,218.834 163.398,218.804 163.351 C 218.774 163.303,218.750 163.367,218.750 163.492 M147.625 164.089 C 147.756 164.773,147.460 165.542,146.893 165.990 C 146.599 166.222,146.603 166.237,146.935 166.121 C 147.668 165.865,148.140 164.413,147.705 163.750 C 147.559 163.526,147.536 163.622,147.625 164.089 M134.328 164.736 C 134.818 164.780,135.568 164.780,135.995 164.735 C 136.422 164.690,136.021 164.654,135.104 164.655 C 134.188 164.656,133.838 164.692,134.328 164.736 M140.781 164.736 C 141.268 164.780,142.065 164.780,142.552 164.736 C 143.039 164.692,142.641 164.656,141.667 164.656 C 140.693 164.656,140.294 164.692,140.781 164.736 M187.453 164.736 C 187.943 164.780,188.693 164.780,189.120 164.735 C 189.547 164.690,189.146 164.654,188.229 164.655 C 187.313 164.656,186.963 164.692,187.453 164.736 M192.027 164.734 C 192.396 164.780,193.053 164.780,193.485 164.735 C 193.917 164.690,193.615 164.653,192.813 164.652 C 192.010 164.651,191.657 164.688,192.027 164.734 M207.031 164.730 C 207.289 164.780,207.711 164.780,207.969 164.730 C 208.227 164.681,208.016 164.640,207.500 164.640 C 206.984 164.640,206.773 164.681,207.031 164.730 M214.427 164.735 C 214.857 164.780,215.560 164.780,215.990 164.735 C 216.419 164.690,216.068 164.653,215.208 164.653 C 214.349 164.653,213.997 164.690,214.427 164.735 M230.885 164.735 C 231.315 164.780,232.018 164.780,232.448 164.735 C 232.878 164.690,232.526 164.653,231.667 164.653 C 230.807 164.653,230.456 164.690,230.885 164.735 M247.235 164.734 C 247.605 164.780,248.261 164.780,248.693 164.735 C 249.126 164.690,248.823 164.653,248.021 164.652 C 247.219 164.651,246.865 164.688,247.235 164.734 M179.635 164.935 C 179.836 164.988,180.164 164.988,180.365 164.935 C 180.565 164.883,180.401 164.840,180.000 164.840 C 179.599 164.840,179.435 164.883,179.635 164.935 M239.635 164.935 C 239.836 164.988,240.164 164.988,240.365 164.935 C 240.565 164.883,240.401 164.840,240.000 164.840 C 239.599 164.840,239.435 164.883,239.635 164.935 M260.469 164.935 C 260.669 164.988,260.997 164.988,261.198 164.935 C 261.398 164.883,261.234 164.840,260.833 164.840 C 260.432 164.840,260.268 164.883,260.469 164.935 M159.030 165.623 C 159.055 166.174,159.164 166.368,159.479 166.423 C 159.861 166.490,159.866 166.472,159.546 166.217 C 159.354 166.063,159.152 165.703,159.097 165.417 C 159.033 165.080,159.009 165.153,159.030 165.623 M196.708 165.979 C 196.578 166.403,196.506 166.784,196.549 166.826 C 196.591 166.868,196.738 166.562,196.875 166.146 C 197.012 165.729,197.084 165.348,197.035 165.299 C 196.985 165.249,196.838 165.555,196.708 165.979 M154.844 167.396 C 154.847 167.854,154.889 168.017,154.939 167.758 C 154.989 167.499,154.987 167.124,154.935 166.925 C 154.883 166.725,154.842 166.938,154.844 167.396 M146.406 168.480 C 146.664 168.530,147.086 168.530,147.344 168.480 C 147.602 168.431,147.391 168.390,146.875 168.390 C 146.359 168.390,146.148 168.431,146.406 168.480 " stroke="none" fill="#cbf4fb" fill-rule="evenodd"></path><path id="path4" d="" stroke="none" fill="#ecf2ec" fill-rule="evenodd"></path></g></svg>