<svg id="svg" version="1.1" xmlns="http://www.w3.org/2000/svg" xmlns:xlink="http://www.w3.org/1999/xlink" width="400" height="230.02028397565923" viewBox="0, 0, 400,230.02028397565923"><g id="svgg"><path id="path0" d="M120.690 15.898 L 120.690 31.798 122.465 31.935 C 146.621 33.796,168.895 45.799,182.908 64.508 C 184.006 65.974,184.373 66.329,184.793 66.329 C 185.521 66.329,185.801 66.685,185.801 67.612 C 185.801 68.239,186.075 68.848,187.083 70.462 C 191.900 78.182,195.399 86.246,197.410 94.266 L 197.880 96.139 199.356 91.325 C 206.193 69.031,206.956 66.702,207.493 66.486 C 208.802 65.960,214.690 66.285,214.862 66.893 C 214.917 67.085,217.106 74.178,219.728 82.657 C 225.941 102.751,226.108 103.334,225.773 103.738 C 225.423 104.159,218.236 104.219,217.894 103.803 C 217.719 103.591,217.193 101.709,215.397 94.878 L 215.197 94.118 210.583 94.118 L 205.969 94.118 204.786 98.732 C 203.278 104.613,203.644 104.057,201.285 104.057 L 199.339 104.057 199.471 105.223 C 200.600 115.210,199.924 125.900,197.579 135.142 L 197.232 136.511 200.737 136.511 L 204.241 136.511 204.301 128.999 C 204.352 122.586,204.406 121.458,204.665 121.294 C 205.130 121.000,211.426 121.041,211.724 121.339 C 212.110 121.724,212.073 158.280,211.687 158.601 C 211.495 158.761,210.339 158.816,207.994 158.778 L 204.582 158.722 204.441 158.215 C 204.363 157.936,204.291 154.215,204.280 149.945 L 204.260 142.183 199.873 142.237 L 195.486 142.292 194.903 143.810 L 194.320 145.328 194.320 151.683 C 194.320 159.592,194.709 158.823,190.713 158.825 L 187.525 158.827 186.679 160.200 C 173.593 181.414,148.783 196.051,122.465 198.085 L 120.690 198.222 120.690 214.115 L 120.690 230.008 122.363 229.900 C 174.491 226.544,216.570 191.685,228.604 141.886 C 229.665 137.497,231.034 129.775,231.034 128.184 C 231.034 127.809,230.868 127.789,227.704 127.789 C 223.312 127.789,223.732 128.144,223.732 124.442 C 223.732 120.731,223.269 121.095,227.987 121.095 L 231.601 121.095 231.749 118.126 C 232.091 111.291,231.183 100.563,229.589 92.596 C 219.954 44.439,180.550 7.424,132.117 1.034 C 129.470 0.685,127.627 0.514,122.059 0.099 L 120.690 -0.003 120.690 15.898 M105.984 0.336 C 105.649 0.375,104.006 0.551,102.333 0.726 C 53.303 5.861,12.154 43.468,2.363 92.089 C -9.473 150.865,25.536 208.676,83.168 225.522 C 90.674 227.716,103.024 229.817,108.414 229.817 L 109.536 229.817 109.484 213.945 L 109.432 198.073 107.606 197.925 C 59.424 194.024,24.359 147.883,33.187 100.000 C 39.936 63.397,70.991 35.060,107.606 32.095 L 109.432 31.947 109.484 16.075 L 109.536 0.203 108.064 0.233 C 107.255 0.250,106.318 0.296,105.984 0.336 M210.276 73.225 C 210.210 73.504,209.966 74.736,209.734 75.963 C 209.501 77.191,208.767 80.534,208.103 83.393 C 207.440 86.252,206.897 88.648,206.897 88.717 C 206.897 88.787,208.438 88.844,210.323 88.844 L 213.749 88.844 213.351 87.069 C 212.383 82.755,211.337 77.787,210.885 75.355 C 210.554 73.574,210.357 72.883,210.276 73.225 M334.280 120.609 C 315.728 126.061,309.760 154.024,326.184 158.545 C 337.076 161.543,346.585 150.857,341.755 141.045 C 338.777 134.997,329.898 133.160,324.562 137.488 L 323.668 138.213 323.814 137.616 C 325.103 132.329,331.381 126.918,337.696 125.653 C 338.195 125.553,338.349 125.430,338.281 125.183 C 336.633 119.227,337.113 119.777,334.280 120.609 M359.473 120.491 C 352.729 122.258,349.086 128.934,349.088 139.518 C 349.090 152.253,353.862 158.915,362.982 158.915 C 372.248 158.915,377.162 152.086,377.134 139.249 C 377.103 125.026,370.190 117.684,359.473 120.491 M387.947 120.495 C 380.812 123.024,379.990 133.450,386.670 136.700 C 393.483 140.015,400.795 134.784,399.654 127.412 C 398.811 121.968,393.179 118.641,387.947 120.495 M288.573 120.825 C 288.499 120.899,288.438 122.222,288.438 123.763 L 288.438 126.567 295.241 126.620 L 302.044 126.673 297.574 132.127 L 293.103 137.580 293.103 139.480 C 293.103 141.503,293.071 141.447,294.219 141.391 C 301.017 141.063,304.931 143.127,304.956 147.053 C 304.990 152.310,298.488 154.619,290.910 152.041 L 289.470 151.552 288.630 154.224 C 288.168 155.694,287.776 156.988,287.759 157.099 C 287.742 157.211,288.458 157.543,289.351 157.838 C 294.601 159.571,300.923 159.306,305.267 157.170 C 315.560 152.111,313.389 136.511,302.391 136.511 C 301.634 136.511,301.019 136.443,301.025 136.359 C 301.031 136.275,303.127 133.834,305.684 130.933 L 310.332 125.659 310.338 123.174 L 310.345 120.690 299.527 120.690 C 293.577 120.690,288.648 120.751,288.573 120.825 M392.454 125.437 C 395.459 127.000,395.055 131.601,391.837 132.468 C 388.806 133.284,386.432 130.094,387.810 127.059 C 388.561 125.407,390.856 124.605,392.454 125.437 M365.281 126.256 C 366.847 126.809,368.966 129.100,368.966 130.241 C 368.966 130.555,356.431 142.394,356.100 142.394 C 355.644 142.394,356.113 134.526,356.709 132.150 C 357.948 127.220,361.361 124.873,365.281 126.256 M370.125 140.974 C 369.974 146.512,369.148 149.500,367.237 151.411 C 364.865 153.782,360.612 153.642,358.633 151.126 C 357.891 150.184,357.161 148.729,357.240 148.354 C 357.355 147.806,370.074 136.314,370.157 136.682 C 370.198 136.867,370.184 138.798,370.125 140.974 M332.684 141.477 C 339.018 143.698,336.538 153.043,329.615 153.043 C 325.598 153.043,323.327 150.547,323.327 146.133 L 323.327 144.208 324.222 143.313 C 326.353 141.182,329.743 140.446,332.684 141.477 " stroke="none" fill="#999999" fill-rule="evenodd"></path><path id="path1" d="M83.215 66.495 C 82.852 66.546,82.758 66.691,82.756 67.205 C 82.731 74.746,82.777 103.737,82.814 103.774 C 82.864 103.825,88.119 103.901,89.399 103.870 L 90.056 103.854 90.109 95.588 L 90.162 87.323 95.284 87.268 L 100.406 87.214 100.406 95.421 C 100.406 100.516,100.480 103.673,100.603 103.749 C 100.880 103.920,107.499 103.928,107.669 103.757 C 107.841 103.586,107.975 68.115,107.807 67.186 L 107.688 66.522 104.097 66.578 L 100.507 66.633 100.454 74.189 L 100.401 81.744 95.231 81.744 L 90.061 81.744 90.061 74.233 C 90.061 68.406,90.004 66.702,89.807 66.634 C 89.493 66.525,83.840 66.406,83.215 66.495 M120.732 66.496 L 120.267 66.562 120.336 81.303 C 120.412 97.408,120.366 96.773,121.627 99.365 C 125.191 106.696,139.773 106.843,144.508 99.595 C 146.456 96.613,146.443 96.747,146.447 80.375 L 146.450 66.531 145.994 66.512 C 143.519 66.406,139.655 66.570,139.517 66.787 C 139.429 66.925,139.356 72.932,139.354 80.135 C 139.351 93.569,139.284 94.896,138.540 96.342 C 136.754 99.812,130.195 100.035,128.463 96.686 C 127.731 95.269,127.710 94.883,127.597 80.730 L 127.485 66.633 124.341 66.531 C 122.612 66.476,120.987 66.460,120.732 66.496 M161.460 66.531 L 158.316 66.633 158.169 68.256 C 157.964 70.503,156.527 103.653,156.629 103.756 C 156.832 103.959,162.715 103.898,162.921 103.691 C 163.313 103.299,163.432 98.976,163.559 80.392 C 163.576 77.920,163.616 75.922,163.648 75.954 C 163.680 75.986,164.022 77.370,164.408 79.030 C 166.161 86.560,168.766 95.417,169.287 95.617 C 169.806 95.817,173.422 95.758,173.823 95.543 C 174.400 95.234,175.784 91.034,178.468 81.440 C 180.246 75.083,180.113 75.340,179.987 78.499 C 179.872 81.352,180.250 102.043,180.438 103.195 L 180.546 103.854 183.985 103.854 L 187.424 103.854 187.424 102.477 C 187.424 101.720,187.059 93.771,186.613 84.812 C 186.166 75.854,185.800 68.190,185.798 67.781 C 185.792 66.403,184.980 66.253,178.944 66.520 C 178.442 66.542,175.071 76.084,172.921 83.570 C 172.392 85.411,171.898 86.985,171.822 87.068 C 171.747 87.151,171.428 86.147,171.113 84.837 C 170.491 82.248,167.109 70.871,166.188 68.268 C 165.499 66.321,165.701 66.395,161.460 66.531 M207.773 66.470 C 206.982 66.624,207.624 64.776,201.760 83.773 C 196.939 99.391,195.800 103.386,196.085 103.672 C 196.344 103.930,201.659 104.171,202.718 103.973 L 203.387 103.847 204.444 99.743 C 205.026 97.486,205.592 95.295,205.701 94.875 L 205.900 94.110 210.595 94.165 L 215.290 94.219 216.551 98.962 C 217.244 101.570,217.934 103.783,218.084 103.878 C 218.791 104.326,225.641 104.053,225.826 103.570 C 226.045 103.000,214.967 66.976,214.452 66.582 C 214.134 66.338,208.900 66.250,207.773 66.470 M253.944 66.576 C 253.559 66.718,253.550 67.028,253.544 79.253 L 253.539 91.785 252.358 88.742 C 250.950 85.116,251.345 85.908,245.786 75.558 C 240.290 65.323,241.366 66.509,237.641 66.577 L 234.584 66.633 234.584 85.193 L 234.584 103.753 237.045 103.854 C 238.399 103.910,239.768 103.909,240.088 103.852 L 240.669 103.748 240.669 90.728 C 240.669 83.567,240.723 77.772,240.788 77.850 C 240.853 77.928,241.072 78.448,241.275 79.006 C 241.925 80.797,253.520 103.035,254.164 103.726 C 254.358 103.934,259.281 103.971,259.611 103.767 C 260.007 103.522,259.926 66.755,259.529 66.603 C 259.074 66.428,254.405 66.406,253.944 66.576 M212.686 83.691 C 213.295 86.491,213.793 88.842,213.793 88.914 C 213.793 88.987,212.241 89.047,210.345 89.047 C 207.109 89.047,206.897 89.023,206.897 88.666 C 206.897 88.457,207.438 85.970,208.099 83.139 C 208.760 80.308,209.494 76.942,209.729 75.659 C 209.965 74.376,210.212 73.098,210.277 72.819 C 210.356 72.483,210.596 73.373,210.988 75.456 C 211.313 77.186,212.077 80.891,212.686 83.691 M158.931 120.496 C 150.526 121.819,146.194 130.033,147.065 142.996 C 147.720 152.733,151.305 158.092,158.012 159.359 C 162.571 160.220,170.314 158.689,172.094 156.574 L 172.617 155.953 172.614 147.804 C 172.612 143.322,172.537 139.540,172.447 139.398 C 172.321 139.199,170.996 139.154,166.517 139.196 L 160.751 139.249 160.694 141.858 C 160.621 145.182,160.486 145.030,163.514 145.030 L 165.923 145.030 165.923 148.870 L 165.923 152.709 164.800 153.129 C 158.709 155.408,154.997 151.321,154.638 141.940 C 154.124 128.526,158.317 123.486,166.695 127.450 C 169.650 128.848,169.406 128.929,170.803 126.082 C 171.970 123.704,171.971 123.699,171.269 123.049 C 169.225 121.153,162.972 119.860,158.931 120.496 M267.647 120.710 C 261.309 121.186,257.600 124.993,257.609 131.011 C 257.616 135.863,259.652 138.301,266.633 141.820 C 272.875 144.967,273.428 145.514,273.428 148.549 C 273.428 153.682,269.074 154.658,261.365 151.253 C 260.476 150.860,259.675 150.583,259.586 150.639 C 259.049 150.971,257.121 155.945,257.324 156.476 C 257.502 156.937,260.111 158.006,262.617 158.645 C 273.171 161.332,280.527 156.977,280.527 148.042 C 280.527 142.608,278.153 139.608,271.197 136.250 C 266.024 133.753,264.831 132.645,264.817 130.325 C 264.792 126.325,269.755 125.256,275.494 128.024 C 277.640 129.059,277.576 129.092,278.936 126.268 C 280.083 123.886,280.097 123.776,279.339 123.050 C 277.660 121.441,272.271 120.363,267.647 120.710 M204.919 121.295 L 204.462 121.488 204.462 129.000 L 204.462 136.511 199.293 136.511 L 194.123 136.511 194.069 128.955 L 194.016 121.400 190.426 121.344 L 186.836 121.289 186.716 121.953 C 186.531 122.980,186.692 158.362,186.882 158.553 C 187.088 158.760,192.505 158.905,193.443 158.729 L 194.118 158.602 194.118 150.396 L 194.118 142.191 199.290 142.191 L 204.462 142.191 204.462 150.297 C 204.462 158.104,204.477 158.411,204.855 158.614 C 205.347 158.877,211.147 158.887,211.562 158.625 C 211.904 158.409,212.037 121.706,211.697 121.366 C 211.458 121.126,205.468 121.063,204.919 121.295 M224.341 121.261 L 223.834 121.418 223.834 124.451 L 223.834 127.485 227.789 127.586 L 231.744 127.688 231.795 143.002 C 231.842 157.113,231.873 158.336,232.189 158.570 C 232.608 158.880,238.042 158.926,238.831 158.626 L 239.351 158.428 239.351 143.007 L 239.351 127.586 243.189 127.586 L 247.027 127.586 247.238 126.927 C 247.930 124.767,248.479 122.581,248.479 121.985 L 248.479 121.298 241.818 121.298 C 238.154 121.298,232.838 121.254,230.002 121.201 C 227.167 121.147,224.620 121.174,224.341 121.261 M82.756 121.957 C 82.715 134.813,82.794 158.521,82.879 158.606 C 83.109 158.837,89.010 158.857,89.439 158.628 C 89.851 158.407,89.858 158.277,89.858 150.906 L 89.858 143.408 91.381 143.408 L 92.904 143.408 96.928 151.471 C 100.617 158.863,100.997 159.539,101.495 159.598 C 102.075 159.667,107.261 158.134,107.602 157.793 C 107.900 157.495,106.444 154.787,100.633 144.831 C 99.132 142.260,99.101 142.679,100.885 141.438 C 107.337 136.953,106.975 125.578,100.279 122.411 C 98.303 121.476,96.701 121.313,89.402 121.305 L 82.759 121.298 82.756 121.957 M119.202 121.433 C 118.953 121.683,119.050 126.068,119.310 126.329 C 119.463 126.481,120.221 126.572,121.339 126.572 L 123.124 126.572 123.124 139.959 L 123.124 153.347 121.416 153.347 C 118.923 153.347,119.067 153.179,119.067 156.083 C 119.067 159.138,118.161 158.817,126.812 158.821 C 135.310 158.824,134.686 159.025,134.686 156.293 C 134.686 153.380,134.527 153.224,131.694 153.340 L 130.629 153.384 130.629 139.978 L 130.629 126.572 132.447 126.572 C 134.037 126.572,134.292 126.523,134.476 126.180 C 134.700 125.759,134.761 122.512,134.558 121.755 L 134.435 121.298 126.886 121.298 C 122.734 121.298,119.277 121.359,119.202 121.433 M95.097 127.087 C 97.169 127.703,97.972 129.088,97.972 132.049 C 97.972 136.097,96.375 137.525,91.850 137.525 L 89.858 137.525 89.858 132.150 L 89.858 126.775 91.951 126.775 C 93.246 126.775,94.446 126.894,95.097 127.087 " stroke="none" fill="#4c4c4d" fill-rule="evenodd"></path><path id="path2" d="M0.029 54.716 C 0.045 85.234,0.131 108.400,0.224 107.099 C 4.286 50.135,49.378 4.698,106.288 0.224 C 107.480 0.130,84.548 0.044,54.209 0.028 L 0.000 0.000 0.029 54.716 M109.533 15.988 L 109.533 31.976 106.237 32.331 C 67.258 36.530,36.358 67.508,32.363 106.389 C 27.678 151.999,60.676 192.781,106.237 197.689 L 109.533 198.044 109.533 214.032 L 109.533 230.020 115.010 230.020 L 120.487 230.020 120.487 214.107 L 120.487 198.193 121.146 198.101 C 121.509 198.050,123.357 197.867,125.254 197.693 C 149.387 195.482,171.827 181.995,185.848 161.274 C 187.356 159.045,187.400 158.947,187.014 158.676 C 186.520 158.330,186.366 121.829,186.856 121.339 C 187.258 120.937,193.591 121.004,194.002 121.414 C 194.280 121.692,194.320 122.675,194.320 129.122 L 194.320 136.511 195.731 136.511 L 197.141 136.511 197.355 135.751 C 199.541 127.967,200.434 116.527,199.584 107.201 C 199.273 103.790,199.435 104.057,197.671 104.057 C 195.553 104.057,195.561 104.098,196.802 99.796 L 197.825 96.247 197.372 94.422 C 196.152 89.506,193.681 82.894,191.239 78.010 C 189.121 73.775,186.153 68.851,186.047 69.399 C 186.012 69.579,186.358 77.245,186.814 86.435 C 187.271 95.625,187.593 103.349,187.531 103.600 C 187.378 104.208,181.003 104.325,180.508 103.730 C 180.190 103.345,179.973 96.254,179.914 84.280 C 179.887 78.743,179.823 76.988,179.671 77.586 C 178.704 81.397,174.958 93.886,174.468 94.929 L 174.135 95.639 171.575 95.696 L 169.014 95.752 168.683 94.925 C 168.126 93.532,166.564 88.012,165.098 82.252 L 163.704 76.775 163.691 84.483 C 163.676 93.970,163.388 103.081,163.087 103.643 C 162.771 104.234,156.931 104.287,156.622 103.702 C 156.390 103.261,157.940 67.449,158.220 66.780 C 158.412 66.322,158.437 66.320,162.015 66.375 L 165.617 66.430 166.057 67.546 C 166.742 69.280,170.124 80.487,170.979 83.852 C 171.401 85.513,171.795 86.791,171.854 86.692 C 171.913 86.592,172.254 85.461,172.612 84.178 C 173.534 80.866,178.030 67.368,178.397 66.808 C 178.689 66.363,178.838 66.337,181.417 66.284 L 184.130 66.227 183.142 64.919 C 169.223 46.498,147.707 34.384,125.254 32.327 C 123.357 32.153,121.509 31.970,121.146 31.919 L 120.487 31.827 120.487 15.914 L 120.487 0.000 115.010 0.000 L 109.533 0.000 109.533 15.988 M124.341 0.135 C 184.813 4.386,231.643 54.191,231.734 114.351 L 231.744 121.095 239.959 121.098 C 244.478 121.100,248.302 121.182,248.457 121.281 C 248.814 121.507,248.692 122.329,247.887 125.126 C 247.059 128.005,247.449 127.789,243.080 127.789 L 239.353 127.789 239.301 143.256 L 239.249 158.722 235.701 158.778 C 232.542 158.827,232.124 158.795,231.897 158.486 C 231.699 158.214,231.643 154.812,231.643 142.963 C 231.643 125.491,231.598 125.057,230.533 132.353 C 222.888 184.737,178.860 225.606,125.558 229.796 C 124.386 229.888,185.657 229.977,261.714 229.992 L 400.000 230.020 400.000 115.010 L 400.000 0.000 261.714 0.035 C 185.657 0.055,123.839 0.100,124.341 0.135 M90.054 66.721 C 90.187 66.971,90.264 69.774,90.264 74.429 L 90.264 81.744 95.233 81.744 L 100.203 81.744 100.227 74.696 C 100.240 70.819,100.309 67.373,100.381 67.039 L 100.511 66.430 103.930 66.374 C 106.280 66.336,107.438 66.391,107.630 66.551 C 107.865 66.746,107.911 69.774,107.911 85.193 C 107.911 100.612,107.865 103.639,107.630 103.834 C 107.438 103.994,106.280 104.049,103.930 104.011 L 100.511 103.955 100.381 103.347 C 100.309 103.012,100.240 99.293,100.227 95.081 L 100.203 87.424 95.233 87.424 L 90.264 87.424 90.264 95.497 C 90.264 101.506,90.201 103.632,90.020 103.813 C 89.851 103.983,88.758 104.057,86.410 104.057 C 84.061 104.057,82.969 103.983,82.799 103.813 C 82.446 103.461,82.446 66.925,82.799 66.572 C 83.263 66.108,89.797 66.242,90.054 66.721 M127.579 66.721 C 127.718 66.980,127.789 71.656,127.789 80.486 C 127.789 94.698,127.833 95.447,128.758 96.946 C 130.232 99.336,135.045 99.697,137.382 97.592 C 139.245 95.914,139.347 94.953,139.349 79.078 C 139.351 67.865,139.384 66.562,139.672 66.452 C 140.389 66.177,146.189 66.318,146.437 66.617 C 146.866 67.134,146.628 94.698,146.181 96.247 C 144.527 101.976,139.110 105.332,132.049 105.003 C 125.788 104.712,122.037 102.053,120.554 96.856 C 120.108 95.294,119.867 67.135,120.295 66.619 C 120.718 66.110,127.301 66.202,127.579 66.721 M241.018 66.684 C 241.325 67.035,249.394 81.945,250.760 84.686 C 251.149 85.467,251.900 87.246,252.427 88.641 C 252.955 90.035,253.401 91.192,253.418 91.210 C 253.434 91.229,253.420 85.971,253.384 79.525 C 253.349 73.079,253.401 67.496,253.498 67.118 L 253.676 66.430 256.659 66.374 L 259.641 66.318 259.841 66.843 C 260.111 67.555,260.113 102.826,259.843 103.536 L 259.645 104.057 257.034 104.057 C 253.805 104.057,254.881 105.404,248.366 93.205 C 243.728 84.522,241.990 81.084,241.057 78.747 C 240.944 78.466,240.899 83.140,240.940 90.747 C 240.989 99.676,240.944 103.328,240.781 103.632 C 240.444 104.263,234.825 104.291,234.490 103.664 C 234.350 103.402,234.280 97.267,234.280 85.193 C 234.280 73.118,234.350 66.983,234.490 66.721 C 234.795 66.151,240.524 66.119,241.018 66.684 M337.632 122.622 C 338.051 124.130,338.353 125.406,338.303 125.457 C 338.252 125.507,337.398 125.784,336.405 126.072 C 330.254 127.854,325.510 132.252,323.829 137.728 C 323.683 138.201,323.727 138.186,324.481 137.505 C 329.335 133.119,338.572 134.877,341.672 140.775 C 346.100 149.202,339.828 159.041,330.039 159.023 C 319.384 159.004,313.926 149.214,317.777 137.033 C 320.390 128.767,328.014 121.649,335.917 120.099 C 336.411 120.002,336.828 119.913,336.842 119.901 C 336.857 119.888,337.212 121.113,337.632 122.622 M366.885 120.393 C 373.760 121.967,377.163 128.247,377.159 139.351 C 377.155 152.171,372.215 159.026,362.982 159.026 C 354.539 159.026,349.891 153.401,349.073 142.191 C 347.950 126.796,355.341 117.750,366.885 120.393 M392.495 120.093 C 401.889 121.604,402.493 135.245,393.262 137.422 C 387.716 138.729,382.948 135.706,382.116 130.355 C 381.145 124.111,386.227 119.086,392.495 120.093 M167.241 120.983 C 172.212 122.461,172.658 123.547,170.016 127.738 C 169.325 128.833,169.260 128.828,166.431 127.446 C 158.645 123.645,154.864 127.838,154.872 140.264 C 154.878 150.720,157.472 154.617,163.584 153.348 C 165.893 152.869,165.720 153.232,165.720 148.852 L 165.720 145.030 163.281 145.030 L 160.842 145.030 160.629 144.473 C 160.297 143.604,160.474 139.382,160.852 139.143 C 161.324 138.845,172.072 138.887,172.373 139.189 C 172.843 139.659,172.708 156.015,172.230 156.624 C 170.573 158.730,162.943 160.322,158.292 159.532 C 150.636 158.231,146.980 152.044,146.967 140.365 C 146.956 130.331,149.350 124.607,154.765 121.721 C 157.760 120.125,163.261 119.799,167.241 120.983 M0.029 175.203 L 0.000 230.020 54.209 229.988 C 84.024 229.970,108.098 229.925,107.708 229.889 C 107.317 229.852,105.857 229.725,104.462 229.606 C 48.888 224.877,4.022 178.889,0.219 122.754 C 0.131 121.451,0.045 145.053,0.029 175.203 M274.633 120.998 C 276.745 121.464,278.609 122.252,279.427 123.023 C 280.242 123.792,280.209 123.980,278.744 126.893 C 277.582 129.206,277.629 129.185,275.670 128.200 C 269.973 125.336,265.010 126.325,265.010 130.325 C 265.010 132.720,265.839 133.482,271.501 136.291 C 278.078 139.554,280.358 142.310,280.661 147.363 C 281.191 156.194,273.940 161.199,263.732 159.049 C 260.018 158.267,257.201 157.031,257.201 156.185 C 257.201 155.656,258.146 153.077,258.862 151.652 C 259.562 150.261,259.335 150.264,262.576 151.600 C 269.075 154.278,272.932 153.429,273.366 149.225 C 273.695 146.034,272.805 145.030,267.150 142.216 C 259.340 138.329,257.043 135.410,257.490 129.942 C 258.089 122.617,265.191 118.912,274.633 120.998 M310.345 123.196 L 310.345 125.703 305.747 130.955 L 301.150 136.207 302.549 136.347 C 308.484 136.940,311.968 140.752,311.968 146.653 C 311.968 155.245,303.487 160.543,292.683 158.700 C 290.646 158.353,287.624 157.481,287.631 157.243 C 287.654 156.533,289.450 151.628,289.679 151.651 C 289.833 151.666,290.772 151.918,291.765 152.211 C 299.056 154.359,304.859 152.076,304.859 147.059 C 304.859 143.331,302.548 141.851,296.349 141.611 L 293.002 141.481 292.944 139.633 L 292.886 137.785 297.336 132.331 L 301.786 126.876 295.112 126.823 L 288.438 126.769 288.438 123.730 L 288.438 120.690 299.391 120.690 L 310.345 120.690 310.345 123.196 M98.360 121.581 C 106.879 123.783,108.339 136.772,100.628 141.756 L 99.413 142.542 100.946 145.155 C 105.848 153.516,108.004 157.494,107.806 157.815 C 107.627 158.105,102.485 159.692,101.647 159.716 L 100.913 159.736 96.872 151.572 L 92.831 143.408 91.446 143.408 L 90.061 143.408 90.061 150.723 C 90.061 155.378,89.984 158.182,89.851 158.431 C 89.595 158.910,83.263 159.044,82.799 158.580 C 82.437 158.218,82.447 121.693,82.809 121.323 C 83.216 120.906,96.611 121.129,98.360 121.581 M134.465 121.378 C 134.620 121.565,134.680 122.465,134.642 124.065 L 134.584 126.471 132.606 126.529 L 130.629 126.587 130.629 139.959 L 130.629 153.332 131.938 153.209 C 134.402 152.979,134.888 153.491,134.888 156.315 C 134.888 159.077,135.697 158.824,126.876 158.824 C 117.994 158.824,118.864 159.137,118.864 155.936 C 118.864 153.336,118.855 153.347,121.136 153.347 L 122.921 153.347 122.921 140.003 L 122.921 126.659 121.181 126.666 C 118.932 126.676,118.864 126.594,118.864 123.883 C 118.864 120.800,118.027 121.095,126.757 121.095 C 132.894 121.095,134.272 121.146,134.465 121.378 M389.544 125.437 C 388.182 126.031,387.267 127.863,387.514 129.505 C 388.091 133.359,393.453 133.576,394.306 129.781 C 394.977 126.794,392.214 124.274,389.544 125.437 M361.459 126.153 C 357.868 127.245,355.908 132.172,356.006 139.858 C 356.042 142.654,355.596 142.870,362.071 136.916 C 365.249 133.993,368.124 131.336,368.458 131.011 L 369.066 130.419 368.487 129.312 C 367.121 126.704,364.106 125.348,361.459 126.153 M90.061 132.282 L 90.061 137.587 92.153 137.459 C 96.620 137.186,97.885 135.940,97.857 131.846 C 97.831 128.045,96.649 127.003,92.343 126.987 L 90.061 126.978 90.061 132.282 M364.604 141.416 C 361.704 144.099,358.838 146.746,358.235 147.299 L 357.139 148.303 357.722 149.521 C 360.083 154.461,366.428 154.231,368.702 149.123 C 369.742 146.788,370.853 136.467,370.059 136.524 C 369.959 136.531,367.505 138.733,364.604 141.416 M328.553 141.209 C 324.443 141.756,322.540 144.590,323.618 148.554 C 325.524 155.562,336.095 154.016,336.103 146.727 C 336.108 142.751,333.159 140.596,328.553 141.209 M194.320 143.509 C 194.320 145.105,194.389 145.138,194.841 143.763 C 195.033 143.177,195.233 142.584,195.285 142.444 C 195.344 142.282,195.187 142.191,194.849 142.191 C 194.334 142.191,194.320 142.224,194.320 143.509 " stroke="none" fill="#fbfbfb" fill-rule="evenodd"></path><path id="path3" d="M108.570 0.140 C 108.765 0.191,109.085 0.191,109.280 0.140 C 109.475 0.089,109.315 0.047,108.925 0.047 C 108.534 0.047,108.375 0.089,108.570 0.140 M120.583 15.923 C 120.583 24.736,120.608 28.312,120.639 23.869 C 120.669 19.426,120.669 12.215,120.639 7.845 C 120.608 3.474,120.583 7.110,120.583 15.923 M122.163 0.146 C 122.471 0.192,122.928 0.191,123.177 0.143 C 123.427 0.095,123.174 0.056,122.617 0.058 C 122.059 0.060,121.855 0.099,122.163 0.146 M125.509 0.346 C 125.762 0.395,126.127 0.393,126.321 0.342 C 126.515 0.291,126.308 0.252,125.862 0.254 C 125.416 0.256,125.257 0.298,125.509 0.346 M36.603 30.882 L 35.801 31.744 36.663 30.943 C 37.137 30.502,37.525 30.114,37.525 30.081 C 37.525 29.927,37.349 30.081,36.603 30.882 M194.320 30.084 C 194.320 30.119,194.617 30.415,194.980 30.743 L 195.639 31.339 195.043 30.680 C 194.488 30.065,194.320 29.927,194.320 30.084 M121.453 31.989 C 121.705 32.038,122.070 32.036,122.264 31.985 C 122.458 31.934,122.252 31.895,121.805 31.897 C 121.359 31.899,121.200 31.941,121.453 31.989 M30.618 36.866 L 29.919 37.627 30.680 36.928 C 31.388 36.277,31.533 36.105,31.379 36.105 C 31.345 36.105,31.002 36.448,30.618 36.866 M201.014 36.815 C 201.393 37.206,201.748 37.525,201.804 37.525 C 201.859 37.525,201.595 37.206,201.217 36.815 C 200.839 36.425,200.483 36.105,200.428 36.105 C 200.372 36.105,200.636 36.425,201.014 36.815 M58.912 53.600 L 58.316 54.260 58.976 53.664 C 59.590 53.109,59.728 52.941,59.571 52.941 C 59.537 52.941,59.240 53.238,58.912 53.600 M172.211 53.005 C 172.211 53.040,172.508 53.336,172.870 53.664 L 173.529 54.260 172.934 53.600 C 172.378 52.986,172.211 52.848,172.211 53.005 M53.539 58.976 L 52.840 59.736 53.600 59.037 C 54.308 58.387,54.454 58.215,54.299 58.215 C 54.266 58.215,53.923 58.557,53.539 58.976 M177.688 58.481 C 177.688 58.516,177.984 58.813,178.347 59.141 L 179.006 59.736 178.410 59.077 C 177.855 58.463,177.688 58.325,177.688 58.481 M259.935 85.193 C 259.935 95.177,259.960 99.262,259.990 94.270 C 260.020 89.277,260.020 81.108,259.990 76.116 C 259.960 71.123,259.935 75.208,259.935 85.193 M253.434 71.805 C 253.434 74.315,253.463 75.342,253.498 74.087 C 253.534 72.832,253.534 70.778,253.498 69.523 C 253.463 68.268,253.434 69.295,253.434 71.805 M100.294 74.645 C 100.294 78.605,100.321 80.226,100.355 78.245 C 100.388 76.265,100.388 73.025,100.355 71.045 C 100.321 69.064,100.294 70.685,100.294 74.645 M240.866 92.089 C 240.866 98.392,240.891 100.971,240.923 97.819 C 240.954 94.668,240.954 89.511,240.923 86.359 C 240.891 83.207,240.866 85.786,240.866 92.089 M100.295 95.132 C 100.295 99.427,100.322 101.184,100.355 99.037 C 100.388 96.889,100.388 93.375,100.355 91.227 C 100.322 89.080,100.295 90.837,100.295 95.132 M253.410 88.540 C 253.411 89.209,253.449 89.458,253.494 89.094 C 253.539 88.729,253.538 88.181,253.492 87.877 C 253.446 87.572,253.409 87.870,253.410 88.540 M179.977 92.596 C 179.978 93.154,180.018 93.358,180.064 93.050 C 180.111 92.742,180.110 92.285,180.062 92.036 C 180.014 91.786,179.975 92.039,179.977 92.596 M163.544 93.306 C 163.544 93.808,163.584 94.014,163.632 93.763 C 163.680 93.512,163.680 93.101,163.632 92.850 C 163.584 92.599,163.544 92.804,163.544 93.306 M180.190 101.014 C 180.190 101.851,180.226 102.193,180.269 101.775 C 180.313 101.356,180.313 100.672,180.269 100.254 C 180.226 99.835,180.190 100.177,180.190 101.014 M156.437 102.840 C 156.437 103.230,156.478 103.390,156.529 103.195 C 156.580 102.999,156.580 102.680,156.529 102.485 C 156.478 102.290,156.437 102.449,156.437 102.840 M231.284 104.260 C 231.284 104.650,231.326 104.810,231.377 104.615 C 231.428 104.419,231.428 104.100,231.377 103.905 C 231.326 103.709,231.284 103.869,231.284 104.260 M0.254 106.795 C 0.256 107.241,0.298 107.400,0.346 107.148 C 0.395 106.895,0.393 106.530,0.342 106.336 C 0.291 106.142,0.252 106.349,0.254 106.795 M231.491 106.795 C 231.494 107.241,231.535 107.400,231.584 107.148 C 231.632 106.895,231.630 106.530,231.580 106.336 C 231.529 106.142,231.489 106.349,231.491 106.795 M199.641 107.911 C 199.641 108.301,199.683 108.461,199.734 108.266 C 199.785 108.070,199.785 107.751,199.734 107.556 C 199.683 107.361,199.641 107.520,199.641 107.911 M0.067 110.649 C 0.067 111.430,0.104 111.725,0.148 111.304 C 0.192 110.883,0.191 110.244,0.146 109.884 C 0.102 109.524,0.066 109.868,0.067 110.649 M231.706 110.446 C 231.707 111.116,231.745 111.365,231.790 111.000 C 231.835 110.636,231.834 110.088,231.788 109.783 C 231.742 109.479,231.705 109.777,231.706 110.446 M199.858 110.953 C 199.858 111.567,199.896 111.818,199.942 111.511 C 199.989 111.204,199.989 110.702,199.942 110.396 C 199.896 110.089,199.858 110.340,199.858 110.953 M31.907 111.156 C 31.907 111.770,31.945 112.021,31.991 111.714 C 32.038 111.407,32.038 110.905,31.991 110.598 C 31.945 110.292,31.907 110.543,31.907 111.156 M31.909 118.763 C 31.910 119.432,31.948 119.681,31.993 119.317 C 32.038 118.952,32.037 118.405,31.991 118.100 C 31.944 117.795,31.908 118.093,31.909 118.763 M199.860 118.966 C 199.861 119.635,199.899 119.884,199.944 119.520 C 199.989 119.155,199.988 118.607,199.942 118.303 C 199.896 117.998,199.859 118.296,199.860 118.966 M0.065 119.270 C 0.065 119.995,0.102 120.292,0.147 119.929 C 0.192 119.566,0.192 118.973,0.147 118.611 C 0.102 118.248,0.065 118.545,0.065 119.270 M231.708 119.473 C 231.708 120.198,231.745 120.494,231.790 120.132 C 231.835 119.769,231.835 119.176,231.790 118.813 C 231.745 118.451,231.708 118.747,231.708 119.473 M362.525 120.024 C 362.832 120.070,363.334 120.070,363.641 120.024 C 363.948 119.977,363.697 119.939,363.083 119.939 C 362.470 119.939,362.219 119.977,362.525 120.024 M390.416 120.021 C 390.667 120.070,391.078 120.070,391.329 120.021 C 391.580 119.973,391.374 119.934,390.872 119.934 C 390.370 119.934,390.165 119.973,390.416 120.021 M199.641 122.110 C 199.641 122.500,199.683 122.660,199.734 122.465 C 199.785 122.269,199.785 121.950,199.734 121.755 C 199.683 121.559,199.641 121.719,199.641 122.110 M384.470 122.566 L 383.874 123.225 384.533 122.629 C 385.148 122.074,385.286 121.907,385.129 121.907 C 385.094 121.907,384.798 122.203,384.470 122.566 M396.755 121.970 C 396.755 122.005,397.051 122.302,397.414 122.629 L 398.073 123.225 397.477 122.566 C 396.922 121.951,396.755 121.813,396.755 121.970 M0.254 123.225 C 0.256 123.671,0.298 123.830,0.346 123.578 C 0.395 123.325,0.393 122.960,0.342 122.766 C 0.291 122.572,0.252 122.779,0.254 123.225 M120.440 126.719 C 120.804 126.764,121.352 126.763,121.657 126.717 C 121.962 126.671,121.663 126.634,120.994 126.635 C 120.325 126.636,120.075 126.674,120.440 126.719 M291.721 126.724 C 293.583 126.757,296.686 126.757,298.618 126.724 C 300.549 126.690,299.026 126.663,295.233 126.663 C 291.440 126.663,289.860 126.690,291.721 126.724 M90.923 126.924 C 91.453 126.966,92.320 126.966,92.850 126.924 C 93.380 126.882,92.946 126.848,91.886 126.848 C 90.827 126.848,90.393 126.882,90.923 126.924 M382.010 128.905 C 382.011 129.574,382.049 129.823,382.094 129.459 C 382.139 129.094,382.138 128.547,382.092 128.242 C 382.046 127.937,382.009 128.235,382.010 128.905 M390.517 132.594 C 390.712 132.645,391.032 132.645,391.227 132.594 C 391.422 132.543,391.263 132.501,390.872 132.501 C 390.482 132.501,390.322 132.543,390.517 132.594 M301.149 136.038 C 300.806 136.382,301.105 136.508,302.181 136.474 L 303.347 136.436 302.277 136.361 C 301.672 136.319,301.258 136.203,301.325 136.095 C 301.462 135.874,301.350 135.838,301.149 136.038 M356.035 136.815 C 356.037 137.262,356.079 137.420,356.127 137.168 C 356.176 136.916,356.174 136.551,356.123 136.357 C 356.072 136.163,356.033 136.369,356.035 136.815 M377.130 137.221 C 377.133 137.667,377.174 137.826,377.223 137.574 C 377.271 137.321,377.269 136.956,377.218 136.762 C 377.168 136.568,377.128 136.775,377.130 137.221 M292.989 139.537 C 292.999 141.056,293.064 141.465,293.306 141.530 C 293.523 141.589,293.540 141.563,293.366 141.439 C 293.216 141.332,293.092 140.558,293.048 139.446 L 292.976 137.627 292.989 139.537 M348.951 139.452 C 348.952 140.233,348.989 140.528,349.032 140.107 C 349.076 139.686,349.076 139.047,349.031 138.687 C 348.986 138.327,348.950 138.671,348.951 139.452 M160.523 141.988 C 160.523 143.271,160.556 143.796,160.596 143.154 C 160.636 142.513,160.636 141.463,160.596 140.822 C 160.556 140.180,160.523 140.705,160.523 141.988 M377.130 141.481 C 377.133 141.927,377.174 142.086,377.223 141.833 C 377.271 141.581,377.269 141.216,377.218 141.022 C 377.168 140.828,377.128 141.034,377.130 141.481 M294.270 141.526 C 294.632 141.571,295.226 141.571,295.588 141.526 C 295.951 141.481,295.654 141.444,294.929 141.444 C 294.204 141.444,293.907 141.481,294.270 141.526 M356.011 141.836 C 355.978 142.513,356.199 142.545,356.713 141.937 L 357.099 141.481 356.659 141.852 C 356.228 142.217,356.217 142.215,356.129 141.751 C 356.048 141.325,356.036 141.333,356.011 141.836 M336.166 146.856 C 336.166 147.470,336.204 147.721,336.251 147.414 C 336.297 147.107,336.297 146.605,336.251 146.298 C 336.204 145.991,336.166 146.242,336.166 146.856 M304.919 147.160 C 304.922 147.606,304.963 147.765,305.012 147.513 C 305.060 147.261,305.058 146.895,305.008 146.701 C 304.957 146.508,304.917 146.714,304.919 147.160 M334.369 151.166 L 333.773 151.826 334.432 151.230 C 335.047 150.674,335.185 150.507,335.028 150.507 C 334.993 150.507,334.696 150.804,334.369 151.166 M320.385 155.375 C 320.821 155.822,321.223 156.187,321.279 156.187 C 321.335 156.187,321.024 155.822,320.588 155.375 C 320.152 154.929,319.750 154.564,319.695 154.564 C 319.639 154.564,319.950 154.929,320.385 155.375 M53.550 171.095 C 53.928 171.486,54.283 171.805,54.339 171.805 C 54.395 171.805,54.131 171.486,53.753 171.095 C 53.374 170.705,53.019 170.385,52.963 170.385 C 52.907 170.385,53.171 170.705,53.550 171.095 M178.182 171.045 L 177.586 171.704 178.245 171.108 C 178.608 170.780,178.905 170.484,178.905 170.449 C 178.905 170.292,178.737 170.430,178.182 171.045 M58.418 175.926 C 58.418 175.960,58.715 176.257,59.077 176.585 L 59.736 177.181 59.141 176.521 C 58.585 175.907,58.418 175.769,58.418 175.926 M172.705 176.521 L 172.110 177.181 172.769 176.585 C 173.131 176.257,173.428 175.960,173.428 175.926 C 173.428 175.769,173.261 175.907,172.705 176.521 M30.730 193.306 C 31.166 193.753,31.568 194.118,31.624 194.118 C 31.680 194.118,31.369 193.753,30.933 193.306 C 30.497 192.860,30.095 192.495,30.039 192.495 C 29.984 192.495,30.294 192.860,30.730 193.306 M201.003 193.256 L 200.304 194.016 201.065 193.317 C 201.773 192.667,201.919 192.495,201.764 192.495 C 201.730 192.495,201.388 192.837,201.003 193.256 M121.453 198.115 C 121.705 198.164,122.070 198.162,122.264 198.111 C 122.458 198.060,122.252 198.021,121.805 198.023 C 121.359 198.025,121.200 198.067,121.453 198.115 M120.583 214.097 C 120.583 222.911,120.608 226.487,120.639 222.044 C 120.669 217.601,120.669 210.390,120.639 206.019 C 120.608 201.649,120.583 205.284,120.583 214.097 M36.714 199.290 C 37.092 199.681,37.448 200.000,37.504 200.000 C 37.559 200.000,37.295 199.681,36.917 199.290 C 36.538 198.900,36.183 198.580,36.127 198.580 C 36.072 198.580,36.336 198.900,36.714 199.290 M194.715 199.544 L 194.016 200.304 194.777 199.605 C 195.195 199.221,195.538 198.878,195.538 198.845 C 195.538 198.690,195.366 198.836,194.715 199.544 M125.406 229.754 C 125.601 229.805,125.920 229.805,126.116 229.754 C 126.311 229.703,126.151 229.662,125.761 229.662 C 125.370 229.662,125.210 229.703,125.406 229.754 M108.570 229.957 C 108.765 230.008,109.085 230.008,109.280 229.957 C 109.475 229.906,109.315 229.865,108.925 229.865 C 108.534 229.865,108.375 229.906,108.570 229.957 M122.163 229.963 C 122.471 230.010,122.928 230.008,123.177 229.960 C 123.427 229.912,123.174 229.874,122.617 229.875 C 122.059 229.877,121.855 229.916,122.163 229.963 " stroke="none" fill="#b5daea" fill-rule="evenodd"></path><path id="path4" d="M210.094 66.269 C 210.346 66.318,210.711 66.316,210.905 66.265 C 211.099 66.214,210.892 66.175,210.446 66.177 C 210.000 66.179,209.841 66.221,210.094 66.269 M85.649 66.479 C 86.402 66.518,87.634 66.518,88.387 66.479 C 89.140 66.440,88.524 66.408,87.018 66.408 C 85.512 66.408,84.896 66.440,85.649 66.479 M102.495 66.480 C 103.476 66.517,105.028 66.517,105.943 66.479 C 106.858 66.442,106.055 66.411,104.158 66.412 C 102.262 66.412,101.513 66.443,102.495 66.480 M122.778 66.480 C 123.648 66.518,125.017 66.517,125.821 66.479 C 126.624 66.441,125.913 66.409,124.239 66.410 C 122.566 66.410,121.908 66.441,122.778 66.480 M140.010 66.468 C 140.205 66.519,140.525 66.519,140.720 66.468 C 140.915 66.417,140.756 66.376,140.365 66.376 C 139.975 66.376,139.815 66.417,140.010 66.468 M142.045 66.478 C 142.578 66.520,143.399 66.519,143.870 66.477 C 144.341 66.434,143.905 66.400,142.901 66.401 C 141.897 66.401,141.511 66.436,142.045 66.478 M160.101 66.480 C 160.970 66.518,162.339 66.517,163.143 66.479 C 163.947 66.441,163.235 66.409,161.562 66.410 C 159.888 66.410,159.231 66.441,160.101 66.480 M180.680 66.475 C 181.042 66.520,181.635 66.520,181.998 66.475 C 182.361 66.430,182.064 66.394,181.339 66.394 C 180.614 66.394,180.317 66.430,180.680 66.475 M236.258 66.479 C 237.066 66.518,238.390 66.518,239.199 66.479 C 240.008 66.441,239.346 66.409,237.728 66.409 C 236.111 66.409,235.449 66.441,236.258 66.479 M255.432 66.478 C 255.965 66.520,256.787 66.519,257.258 66.477 C 257.728 66.434,257.292 66.400,256.288 66.401 C 255.284 66.401,254.899 66.436,255.432 66.478 M90.153 74.341 C 90.153 78.469,90.180 80.128,90.213 78.029 C 90.246 75.930,90.246 72.553,90.213 70.524 C 90.180 68.496,90.153 70.213,90.153 74.341 M120.177 80.020 C 120.177 87.272,120.202 90.209,120.233 86.547 C 120.264 82.885,120.264 76.952,120.233 73.363 C 120.202 69.773,120.177 72.769,120.177 80.020 M146.546 79.919 C 146.546 87.115,146.571 90.058,146.602 86.460 C 146.633 82.863,146.633 76.975,146.602 73.377 C 146.571 69.779,146.546 72.723,146.546 79.919 M127.682 80.223 C 127.682 87.475,127.707 90.412,127.738 86.750 C 127.769 83.088,127.769 77.155,127.738 73.565 C 127.707 69.976,127.682 72.972,127.682 80.223 M158.063 67.850 C 158.066 68.296,158.107 68.455,158.156 68.203 C 158.204 67.950,158.202 67.585,158.152 67.391 C 158.101 67.197,158.061 67.404,158.063 67.850 M234.377 85.193 C 234.377 95.177,234.402 99.262,234.432 94.270 C 234.462 89.277,234.462 81.108,234.432 76.116 C 234.402 71.123,234.377 75.208,234.377 85.193 M82.653 85.801 C 82.653 95.674,82.678 99.713,82.708 94.777 C 82.738 89.840,82.738 81.762,82.708 76.826 C 82.678 71.889,82.653 75.928,82.653 85.801 M185.859 69.473 C 185.861 70.030,185.900 70.235,185.947 69.926 C 185.993 69.618,185.992 69.161,185.944 68.912 C 185.896 68.663,185.858 68.915,185.859 69.473 M157.870 72.211 C 157.870 72.825,157.908 73.076,157.955 72.769 C 158.001 72.462,158.001 71.960,157.955 71.653 C 157.908 71.346,157.870 71.597,157.870 72.211 M186.062 73.732 C 186.064 74.290,186.103 74.494,186.150 74.186 C 186.196 73.878,186.195 73.421,186.147 73.172 C 186.099 72.922,186.061 73.174,186.062 73.732 M157.665 76.775 C 157.666 77.333,157.705 77.537,157.752 77.228 C 157.799 76.920,157.797 76.464,157.749 76.214 C 157.701 75.965,157.663 76.217,157.665 76.775 M163.508 76.572 C 163.514 77.282,163.538 77.324,163.705 76.909 C 163.824 76.610,163.822 76.310,163.698 76.098 C 163.548 75.841,163.503 75.953,163.508 76.572 M179.884 76.217 C 179.839 76.412,179.862 76.891,179.935 77.282 C 180.055 77.921,180.071 77.885,180.095 76.927 C 180.122 75.854,180.035 75.562,179.884 76.217 M253.436 81.846 C 253.436 84.970,253.464 86.219,253.499 84.623 C 253.533 83.026,253.533 80.470,253.498 78.943 C 253.464 77.416,253.436 78.722,253.436 81.846 M186.265 77.789 C 186.266 78.347,186.306 78.551,186.352 78.243 C 186.399 77.934,186.398 77.478,186.350 77.228 C 186.302 76.979,186.263 77.231,186.265 77.789 M157.462 81.237 C 157.463 81.795,157.503 81.999,157.549 81.691 C 157.596 81.383,157.595 80.926,157.546 80.677 C 157.498 80.427,157.460 80.680,157.462 81.237 M186.465 81.947 C 186.465 82.449,186.505 82.655,186.553 82.404 C 186.601 82.153,186.601 81.742,186.553 81.491 C 186.505 81.240,186.465 81.445,186.465 81.947 M163.555 83.063 C 163.556 83.844,163.593 84.138,163.637 83.718 C 163.681 83.297,163.680 82.658,163.635 82.298 C 163.590 81.938,163.555 82.282,163.555 83.063 M163.574 88.540 C 163.574 90.771,163.604 91.711,163.640 90.629 C 163.676 89.548,163.676 87.722,163.640 86.573 C 163.604 85.423,163.574 86.308,163.574 88.540 M157.259 85.903 C 157.260 86.460,157.300 86.665,157.346 86.356 C 157.393 86.048,157.392 85.592,157.344 85.342 C 157.295 85.093,157.257 85.345,157.259 85.903 M186.668 86.004 C 186.668 86.506,186.707 86.711,186.756 86.460 C 186.804 86.209,186.804 85.799,186.756 85.548 C 186.707 85.297,186.668 85.502,186.668 86.004 M179.996 89.351 C 179.997 90.690,180.030 91.211,180.069 90.509 C 180.109 89.808,180.109 88.712,180.069 88.075 C 180.028 87.438,179.996 88.012,179.996 89.351 M90.153 87.475 C 90.100 87.615,90.081 91.289,90.112 95.639 L 90.167 103.550 90.215 95.490 L 90.264 87.431 95.385 87.373 L 100.507 87.315 95.379 87.268 C 91.423 87.232,90.229 87.279,90.153 87.475 M208.570 88.995 C 209.546 89.032,211.144 89.032,212.120 88.995 C 213.096 88.958,212.297 88.927,210.345 88.927 C 208.392 88.927,207.594 88.958,208.570 88.995 M186.871 90.061 C 186.871 90.563,186.910 90.768,186.959 90.517 C 187.007 90.266,187.007 89.855,186.959 89.604 C 186.910 89.353,186.871 89.559,186.871 90.061 M157.056 90.365 C 157.058 90.923,157.097 91.127,157.144 90.819 C 157.190 90.510,157.189 90.054,157.141 89.805 C 157.093 89.555,157.054 89.807,157.056 90.365 M187.076 94.219 C 187.078 94.777,187.117 94.981,187.164 94.673 C 187.210 94.364,187.209 93.908,187.161 93.658 C 187.113 93.409,187.075 93.661,187.076 94.219 M156.853 95.030 C 156.855 95.588,156.894 95.792,156.941 95.484 C 156.987 95.176,156.986 94.719,156.938 94.470 C 156.890 94.220,156.852 94.473,156.853 95.030 M180.190 98.174 C 180.190 99.011,180.226 99.353,180.269 98.935 C 180.313 98.517,180.313 97.832,180.269 97.414 C 180.226 96.995,180.190 97.338,180.190 98.174 M187.279 98.276 C 187.281 98.834,187.320 99.038,187.367 98.729 C 187.413 98.421,187.412 97.965,187.364 97.715 C 187.316 97.466,187.278 97.718,187.279 98.276 M163.353 99.087 C 163.353 99.868,163.390 100.163,163.434 99.742 C 163.478 99.321,163.477 98.682,163.432 98.322 C 163.388 97.962,163.352 98.306,163.353 99.087 M156.650 99.493 C 156.652 100.051,156.691 100.255,156.738 99.947 C 156.784 99.638,156.783 99.182,156.735 98.932 C 156.687 98.683,156.649 98.935,156.650 99.493 M187.485 102.637 C 187.485 103.251,187.523 103.502,187.569 103.195 C 187.616 102.888,187.616 102.386,187.569 102.079 C 187.523 101.772,187.485 102.023,187.485 102.637 M162.373 103.854 L 161.765 104.009 162.311 104.033 C 162.611 104.046,162.913 103.966,162.982 103.854 C 163.051 103.742,163.079 103.662,163.044 103.675 C 163.010 103.688,162.708 103.769,162.373 103.854 M84.238 104.005 C 84.995 104.044,86.182 104.043,86.875 104.004 C 87.567 103.964,86.947 103.932,85.497 103.933 C 84.047 103.933,83.480 103.965,84.238 104.005 M102.890 104.003 C 103.420 104.045,104.288 104.045,104.817 104.003 C 105.347 103.961,104.914 103.927,103.854 103.927 C 102.794 103.927,102.361 103.961,102.890 104.003 M157.867 104.004 C 158.513 104.044,159.517 104.044,160.099 104.003 C 160.680 103.962,160.152 103.929,158.925 103.930 C 157.698 103.930,157.222 103.964,157.867 104.004 M182.302 104.005 C 183.223 104.042,184.729 104.042,185.649 104.005 C 186.569 103.967,185.816 103.937,183.976 103.937 C 182.135 103.937,181.382 103.967,182.302 104.005 M235.953 104.004 C 236.595 104.044,237.645 104.044,238.286 104.004 C 238.927 103.964,238.403 103.931,237.120 103.931 C 235.837 103.931,235.312 103.964,235.953 104.004 M256.846 103.999 C 257.153 104.046,257.655 104.046,257.961 103.999 C 258.268 103.953,258.017 103.915,257.404 103.915 C 256.790 103.915,256.539 103.953,256.846 103.999 M267.802 120.632 C 268.110 120.679,268.567 120.678,268.816 120.630 C 269.066 120.581,268.813 120.543,268.256 120.545 C 267.698 120.546,267.494 120.586,267.802 120.632 M270.030 120.632 C 270.337 120.679,270.839 120.679,271.146 120.632 C 271.453 120.586,271.202 120.548,270.588 120.548 C 269.975 120.548,269.724 120.586,270.030 120.632 M86.055 121.247 C 87.700 121.281,90.393 121.281,92.039 121.247 C 93.684 121.213,92.338 121.185,89.047 121.185 C 85.756 121.185,84.409 121.213,86.055 121.247 M123.073 121.247 C 125.109 121.280,128.441 121.280,130.477 121.247 C 132.513 121.214,130.847 121.187,126.775 121.187 C 122.703 121.187,121.037 121.214,123.073 121.247 M188.702 121.247 C 189.683 121.284,191.235 121.284,192.150 121.246 C 193.065 121.209,192.262 121.178,190.365 121.178 C 188.469 121.179,187.720 121.209,188.702 121.247 M235.751 121.247 C 238.065 121.280,241.853 121.280,244.168 121.247 C 246.483 121.215,244.589 121.188,239.959 121.188 C 235.330 121.188,233.436 121.215,235.751 121.247 M118.938 123.834 C 118.939 124.949,118.973 125.380,119.014 124.790 C 119.055 124.201,119.055 123.288,119.013 122.762 C 118.971 122.236,118.938 122.718,118.938 123.834 M194.209 129.209 C 194.209 133.281,194.236 134.947,194.269 132.911 C 194.303 130.875,194.303 127.543,194.269 125.507 C 194.236 123.471,194.209 125.137,194.209 129.209 M204.351 129.310 C 204.351 133.327,204.378 134.998,204.411 133.025 C 204.445 131.052,204.445 127.766,204.412 125.723 C 204.378 123.680,204.351 125.294,204.351 129.310 M82.653 140.568 C 82.653 150.441,82.678 154.480,82.708 149.544 C 82.738 144.607,82.738 136.529,82.708 131.592 C 82.678 126.656,82.653 130.695,82.653 140.568 M260.030 123.884 L 259.331 124.645 260.091 123.946 C 260.799 123.295,260.945 123.124,260.790 123.124 C 260.756 123.124,260.414 123.466,260.030 123.884 M151.713 124.087 L 151.014 124.848 151.775 124.149 C 152.483 123.498,152.629 123.327,152.474 123.327 C 152.440 123.327,152.098 123.669,151.713 124.087 M123.017 139.959 C 123.017 147.378,123.042 150.413,123.073 146.704 C 123.104 142.994,123.104 136.924,123.073 133.215 C 123.042 129.506,123.017 132.541,123.017 139.959 M89.947 132.150 C 89.947 135.162,89.975 136.423,90.010 134.951 C 90.044 133.480,90.044 131.015,90.010 129.475 C 89.975 127.934,89.947 129.138,89.947 132.150 M227.940 127.736 L 231.640 127.798 231.694 142.905 L 231.748 158.012 231.746 142.850 L 231.744 127.688 227.992 127.681 L 224.239 127.674 227.940 127.736 M241.126 127.737 C 242.158 127.774,243.846 127.774,244.878 127.737 C 245.910 127.701,245.066 127.670,243.002 127.670 C 240.938 127.670,240.094 127.701,241.126 127.737 M264.757 130.325 C 264.759 130.771,264.801 130.929,264.849 130.677 C 264.898 130.425,264.896 130.060,264.845 129.866 C 264.794 129.672,264.755 129.878,264.757 130.325 M257.455 130.933 C 257.457 131.379,257.499 131.538,257.547 131.286 C 257.596 131.033,257.594 130.668,257.543 130.474 C 257.492 130.280,257.453 130.487,257.455 130.933 M154.627 138.235 C 154.628 138.905,154.666 139.154,154.711 138.789 C 154.756 138.425,154.755 137.877,154.709 137.572 C 154.663 137.268,154.626 137.566,154.627 138.235 M146.914 138.235 C 146.916 138.793,146.955 138.997,147.002 138.689 C 147.048 138.381,147.047 137.924,146.999 137.675 C 146.951 137.425,146.912 137.677,146.914 138.235 M163.957 139.097 C 165.498 139.131,167.963 139.131,169.434 139.097 C 170.906 139.062,169.645 139.034,166.633 139.034 C 163.621 139.034,162.417 139.062,163.957 139.097 M154.632 141.582 C 154.632 142.419,154.668 142.761,154.712 142.343 C 154.755 141.924,154.755 141.240,154.712 140.822 C 154.668 140.403,154.632 140.745,154.632 141.582 M146.917 142.191 C 146.917 142.804,146.955 143.055,147.001 142.748 C 147.048 142.442,147.048 141.940,147.001 141.633 C 146.955 141.326,146.917 141.577,146.917 142.191 M194.210 150.203 C 194.210 154.665,194.237 156.462,194.270 154.195 C 194.302 151.929,194.302 148.278,194.269 146.082 C 194.237 143.886,194.210 145.740,194.210 150.203 M204.352 150.000 C 204.352 154.351,204.379 156.102,204.412 153.891 C 204.444 151.680,204.444 148.121,204.411 145.980 C 204.379 143.840,204.352 145.649,204.352 150.000 M89.950 150.710 C 89.950 154.782,89.977 156.448,90.010 154.412 C 90.043 152.376,90.043 149.044,90.010 147.008 C 89.977 144.972,89.950 146.638,89.950 150.710 M165.805 148.884 C 165.805 151.060,165.835 151.950,165.871 150.862 C 165.908 149.774,165.908 147.994,165.871 146.907 C 165.835 145.819,165.805 146.709,165.805 148.884 M280.590 148.174 C 280.591 148.844,280.629 149.093,280.674 148.729 C 280.720 148.364,280.719 147.816,280.672 147.512 C 280.626 147.207,280.589 147.505,280.590 148.174 M156.998 151.382 C 156.998 151.417,157.295 151.713,157.657 152.041 L 158.316 152.637 157.721 151.978 C 157.165 151.363,156.998 151.225,156.998 151.382 M268.005 153.290 C 268.313 153.336,268.770 153.335,269.019 153.287 C 269.268 153.239,269.016 153.201,268.458 153.202 C 267.901 153.204,267.696 153.243,268.005 153.290 M118.938 156.085 C 118.939 157.201,118.973 157.631,119.014 157.042 C 119.055 156.452,119.055 155.540,119.013 155.013 C 118.971 154.487,118.938 154.970,118.938 156.085 M134.758 156.288 C 134.757 157.292,134.791 157.728,134.834 157.258 C 134.876 156.787,134.877 155.965,134.835 155.432 C 134.793 154.899,134.758 155.284,134.758 156.288 M151.521 156.085 C 151.900 156.476,152.255 156.795,152.311 156.795 C 152.367 156.795,152.103 156.476,151.724 156.085 C 151.346 155.695,150.990 155.375,150.935 155.375 C 150.879 155.375,151.143 155.695,151.521 156.085 M268.103 159.575 C 268.354 159.624,268.765 159.624,269.016 159.575 C 269.267 159.527,269.062 159.487,268.560 159.487 C 268.058 159.487,267.852 159.527,268.103 159.575 M160.805 159.782 C 161.169 159.827,161.717 159.826,162.022 159.780 C 162.327 159.734,162.028 159.697,161.359 159.698 C 160.690 159.699,160.440 159.737,160.805 159.782 " stroke="none" fill="#a4a4a8" fill-rule="evenodd"></path></g></svg>