<?xml version="1.0" encoding="utf-8"?>
<!-- Generator: Adobe Illustrator 16.0.0, SVG Export Plug-In . SVG Version: 6.00 Build 0)  -->
<!DOCTYPE svg PUBLIC "-//W3C//DTD SVG 1.1//EN" "http://www.w3.org/Graphics/SVG/1.1/DTD/svg11.dtd">
<svg version="1.1" id="Layer_1" xmlns="http://www.w3.org/2000/svg" xmlns:xlink="http://www.w3.org/1999/xlink" x="0px" y="0px"
	 width="48px" height="48px" viewBox="0 0 48 48" enable-background="new 0 0 48 48" xml:space="preserve">
<path fill="#E44D26" d="M41.596,9.601l-3.062,34.307l-13.765,3.816l-13.728-3.812L7.981,9.601H41.596L41.596,9.601z"/>
<path fill="#F16529" d="M24.789,44.806l11.123-3.084l2.616-29.315H24.789V44.806z"/>
<path fill="#EBEBEB" d="M18.836,20.823h5.953v-4.208H14.237l0.1,1.128l1.035,11.597h9.417v-4.208h-5.568L18.836,20.823z
	 M19.784,31.445H15.56l0.59,6.606l8.62,2.392l0.02-0.003v-4.38l-0.019,0.005L20.084,34.8L19.784,31.445L19.784,31.445z"/>
<path d="M11.109,0.276h2.139v2.113h1.957V0.276h2.139v6.398h-2.139V4.532h-1.957v2.143h-2.139V0.276L11.109,0.276z M20.155,2.398
	h-1.883V0.276h5.905v2.122h-1.883v4.276h-2.139L20.155,2.398L20.155,2.398L20.155,2.398z M25.114,0.276h2.229l1.372,2.248
	l1.37-2.248h2.231v6.398h-2.13V3.503l-1.472,2.275h-0.037l-1.472-2.275v3.172h-2.093V0.276z M33.382,0.276h2.139V4.56h3.007v2.115
	h-5.146L33.382,0.276L33.382,0.276z"/>
<path fill="#FFFFFF" d="M24.773,29.34h5.184l-0.49,5.458l-4.693,1.266v4.378l8.628-2.39l0.062-0.711l0.989-11.079l0.103-1.13h-9.782
	V29.34L24.773,29.34z M24.773,20.812v0.011h10.165l0.085-0.946l0.191-2.134l0.102-1.128H24.773V20.812L24.773,20.812z"/>
</svg>
