<?xml version="1.0" encoding="utf-8"?>
<!-- Generator: Adobe Illustrator 16.0.0, SVG Export Plug-In . SVG Version: 6.00 Build 0)  -->
<!DOCTYPE svg PUBLIC "-//W3C//DTD SVG 1.1//EN" "http://www.w3.org/Graphics/SVG/1.1/DTD/svg11.dtd">
<svg version="1.1" id="Layer_1" xmlns="http://www.w3.org/2000/svg" xmlns:xlink="http://www.w3.org/1999/xlink" x="0px" y="0px"
	 width="48px" height="48px" viewBox="0 0 48 48" enable-background="new 0 0 48 48" xml:space="preserve">
<path fill="#E44D26" d="M-98.527,9.601l-3.062,34.307l-13.765,3.816l-13.728-3.812l-3.059-34.312H-98.527L-98.527,9.601z"/>
<path fill="#F16529" d="M-115.334,44.806l11.123-3.084l2.616-29.315h-13.739V44.806z"/>
<path fill="#EBEBEB" d="M-121.287,20.823h5.953v-4.208h-10.552l0.1,1.128l1.035,11.597h9.417v-4.208h-5.568L-121.287,20.823z
	 M-120.339,31.445h-4.225l0.59,6.606l8.62,2.392l0.02-0.003v-4.38l-0.019,0.005l-4.687-1.266L-120.339,31.445L-120.339,31.445z"/>
<path d="M-129.014,0.276h2.139v2.113h1.957V0.276h2.139v6.398h-2.139V4.532h-1.957v2.143h-2.139V0.276L-129.014,0.276z
	 M-119.968,2.398h-1.883V0.276h5.905v2.122h-1.883v4.276h-2.139L-119.968,2.398L-119.968,2.398L-119.968,2.398z M-115.009,0.276
	h2.229l1.372,2.248l1.37-2.248h2.231v6.398h-2.13V3.503l-1.472,2.275h-0.037l-1.472-2.275v3.172h-2.093V0.276z M-106.741,0.276
	h2.139V4.56h3.007v2.115h-5.146L-106.741,0.276L-106.741,0.276z"/>
<path fill="#FFFFFF" d="M-115.35,29.34h5.184l-0.49,5.458l-4.693,1.266v4.378l8.628-2.39l0.062-0.711l0.989-11.079l0.103-1.13
	h-9.782V29.34L-115.35,29.34z M-115.35,20.812v0.011h10.165l0.085-0.946l0.191-2.134l0.102-1.128h-10.543V20.812L-115.35,20.812z"/>
<path fill="#131313" d="M-36.136,1.856h-2.78l2.892,3.142v1.494h-5.963v-1.75h2.896l-2.896-3.143V0.105h5.854L-36.136,1.856z
	 M-43.169,1.856h-2.787l2.898,3.142v1.494h-5.963v-1.75h2.893l-2.893-3.143V0.105h5.852V1.856z M-50.135,1.928h-3.001v2.743h3.001
	v1.824h-5.139v-6.39h5.139V1.928z"/>
<path fill="#1572B6" d="M-59.365,43.646l-3.053-34.236h33.539l-3.057,34.228l-13.734,3.81L-59.365,43.646z"/>
<path fill="#33A9DC" d="M-45.648,44.539l11.099-3.076l2.608-29.253h-13.707V44.539z"/>
<path fill="#FFFFFF" d="M-45.648,24.613h5.556l0.384-4.3h-5.939v-4.197h10.529l-0.1,1.127l-1.032,11.572h-9.397V24.613z"/>
<path fill="#EBEBEB" d="M-45.625,35.519h-0.02l-4.677-1.263l-0.298-3.348h-4.211l0.587,6.59l8.603,2.396h0.025v-4.375H-45.625z"/>
<path fill="#FFFFFF" d="M-40.447,28.631l-0.507,5.621l-4.683,1.263v4.375l8.607-2.388l0.062-0.71l0.731-8.161H-40.447
	L-40.447,28.631z"/>
<path fill="#EBEBEB" d="M-45.633,16.117v4.199h-10.141l-0.085-0.943l-0.193-2.129l-0.1-1.127H-45.633z M-45.648,24.613v4.198h-4.623
	l-0.081-0.943l-0.193-2.129l-0.1-1.126h4.995H-45.648z"/>
<path fill="#E6A329" d="M41.05,9.573H7.343l3.16,34.267l13.691,3.885l13.691-3.885L41.05,9.573z"/>
<path fill="#F1BF22" d="M24.194,12.365V44.82l11.094-3.143l2.698-29.313H24.194z"/>
<path fill="#FFFFFF" d="M33.02,16.569H15.963l-1.188,12.83l0.024-0.078H29.29l-0.472,5.428l-4.624,1.33l-4.692-1.352l-0.28-3.285
	h-4.259l0.607,6.564l8.624,2.449l8.628-2.449l1.188-12.885H18.631l0.198-4.293h10.669l0.16,2.459h4.297L33.02,16.569z"/>
<path fill="#EBEBEB" d="M24.198,16.569h-8.235l-1.188,12.83l0.024-0.078h9.399v-4.186h-4.967l0.197-4.293h4.77V16.569z
	 M19.231,31.441h-4.269l0.607,6.561l8.624,2.445v-4.365l-4.692-1.355L19.231,31.441z"/>
<path fill="#231F20" d="M20.917,4.519h-3v2.154h5.146V0.275h-2.146V4.519z M30.475,0.31h-5.231v2.239
	c0.698,0.699,1.064,1.034,2.094,2.046h-2.094v2.042h5.231V4.599l-2.092-2.046h2.092V0.31z"/>
</svg>
