<?xml version="1.0" encoding="utf-8"?>
<!-- Generator: Adobe Illustrator 16.0.0, SVG Export Plug-In . SVG Version: 6.00 Build 0)  -->
<!DOCTYPE svg PUBLIC "-//W3C//DTD SVG 1.1//EN" "http://www.w3.org/Graphics/SVG/1.1/DTD/svg11.dtd">
<svg version="1.1" id="Layer_1" xmlns="http://www.w3.org/2000/svg" xmlns:xlink="http://www.w3.org/1999/xlink" x="0px" y="0px"
	 width="48px" height="48px" viewBox="0 0 48 48" enable-background="new 0 0 48 48" xml:space="preserve">
<g>
	<path fill="#E44D26" d="M-183.694,9.489l-3.062,34.306l-13.765,3.816l-13.728-3.812l-3.059-34.312h33.614V9.489z"/>
	<path fill="#F16529" d="M-200.5,44.693l11.123-3.084l2.616-29.315H-200.5V44.693z"/>
	<path fill="#EBEBEB" d="M-206.454,20.711h5.953v-4.208h-10.552l0.1,1.128l1.035,11.598h9.417V25.02h-5.568L-206.454,20.711z
		 M-205.505,31.334h-4.225l0.59,6.605l8.62,2.393l0.02-0.004v-4.379l-0.019,0.004l-4.687-1.266L-205.505,31.334L-205.505,31.334z"/>
	<path d="M-214.181,0.165h2.139v2.113h1.957V0.165h2.139v6.398h-2.139V4.42h-1.957v2.143h-2.139V0.165L-214.181,0.165z
		 M-205.135,2.287h-1.883V0.165h5.905v2.122h-1.883v4.276h-2.139V2.287L-205.135,2.287L-205.135,2.287z M-200.175,0.165h2.229
		l1.372,2.248l1.37-2.248h2.231v6.398h-2.13V3.391l-1.472,2.275h-0.037l-1.472-2.275v3.172h-2.093V0.165H-200.175z M-191.908,0.165
		h2.139v4.283h3.007v2.115h-5.146V0.165L-191.908,0.165z"/>
	<path fill="#FFFFFF" d="M-200.516,29.229h5.184l-0.49,5.457l-4.693,1.267v4.379l8.628-2.392l0.062-0.711l0.989-11.078l0.103-1.131
		h-9.782L-200.516,29.229L-200.516,29.229z M-200.516,20.701v0.011h10.165l0.085-0.946l0.191-2.134l0.102-1.128h-10.543V20.701
		L-200.516,20.701z"/>
</g>
<g>
	<path fill="#131313" d="M-121.302,1.856h-2.78l2.892,3.142v1.494h-5.963v-1.75h2.896l-2.896-3.143V0.105h5.854L-121.302,1.856z
		 M-128.335,1.856h-2.787l2.898,3.142v1.494h-5.963v-1.75h2.893l-2.893-3.143V0.105h5.852V1.856z M-135.302,1.928h-3.001v2.743
		h3.001v1.824h-5.139v-6.39h5.139V1.928z"/>
	<path fill="#1572B6" d="M-144.532,43.646l-3.053-34.236h33.539l-3.057,34.229l-13.734,3.81L-144.532,43.646z"/>
	<path fill="#33A9DC" d="M-130.815,44.539l11.099-3.076l2.608-29.253h-13.707V44.539z"/>
	<path fill="#FFFFFF" d="M-130.815,24.613h5.556l0.384-4.3h-5.939v-4.197h10.529l-0.1,1.127l-1.032,11.571h-9.397L-130.815,24.613
		L-130.815,24.613z"/>
	<path fill="#EBEBEB" d="M-130.792,35.52h-0.02l-4.677-1.264l-0.298-3.348h-4.211l0.587,6.59l8.603,2.396h0.025V35.52H-130.792z"/>
	<path fill="#FFFFFF" d="M-125.614,28.631l-0.507,5.621l-4.683,1.264v4.375l8.607-2.389l0.062-0.71l0.731-8.161H-125.614
		L-125.614,28.631z"/>
	<path fill="#EBEBEB" d="M-130.799,16.117v4.199h-10.141l-0.085-0.943l-0.193-2.129l-0.1-1.127H-130.799z M-130.815,24.613v4.197
		h-4.623l-0.081-0.942l-0.193-2.129l-0.1-1.126h4.995H-130.815z"/>
</g>
<g>
	<path fill="#E6A329" d="M-44.117,9.573h-33.707l3.16,34.267l13.691,3.885l13.691-3.885L-44.117,9.573z"/>
	<path fill="#F1BF22" d="M-60.972,12.365V44.82l11.094-3.144l2.698-29.312L-60.972,12.365L-60.972,12.365z"/>
	<path fill="#FFFFFF" d="M-52.147,16.569h-17.056l-1.188,12.83l0.024-0.078h14.491l-0.472,5.429l-4.624,1.33l-4.692-1.353
		l-0.28-3.285h-4.259l0.607,6.564l8.624,2.449l8.628-2.449l1.188-12.885h-15.379l0.198-4.293h10.669l0.16,2.459h4.297
		L-52.147,16.569z"/>
	<path fill="#EBEBEB" d="M-60.968,16.569h-8.235l-1.188,12.83l0.024-0.078h9.399v-4.186h-4.967l0.197-4.293h4.77V16.569z
		 M-65.935,31.441h-4.269l0.607,6.561l8.624,2.445v-4.365l-4.692-1.355L-65.935,31.441z"/>
	<path fill="#231F20" d="M-64.25,4.519h-3v2.154h5.146V0.275h-2.146V4.519z M-54.692,0.31h-5.231v2.239
		c0.698,0.699,1.064,1.034,2.094,2.046h-2.094v2.042h5.231V4.599l-2.092-2.046h2.092V0.31z"/>
</g>
<g>
	<path fill="#8CC84B" d="M87.307,0.81c1.176-0.673,2.707-0.676,3.881,0c5.906,3.338,11.814,6.67,17.723,10.01
		c1.109,0.625,1.854,1.862,1.842,3.142v20.082c0.01,1.332-0.811,2.599-1.98,3.209c-5.888,3.319-11.771,6.644-17.658,9.962
		c-1.198,0.686-2.76,0.635-3.922-0.107c-1.766-1.023-3.533-2.043-5.299-3.063c-0.359-0.214-0.768-0.388-1.021-0.735
		c0.227-0.304,0.628-0.342,0.955-0.476c0.736-0.233,1.414-0.61,2.09-0.976c0.171-0.115,0.38-0.07,0.545,0.033
		c1.51,0.864,3.004,1.758,4.52,2.613c0.322,0.186,0.65-0.061,0.928-0.216c5.775-3.267,11.562-6.519,17.338-9.786
		c0.214-0.102,0.332-0.328,0.314-0.562c0.004-6.625,0.002-13.25,0.002-19.875c0.023-0.266-0.129-0.511-0.371-0.619
		c-5.866-3.304-11.729-6.613-17.596-9.918c-0.209-0.143-0.484-0.143-0.691-0.001c-5.865,3.307-11.729,6.619-17.596,9.922
		c-0.238,0.11-0.399,0.35-0.371,0.617c0,6.624,0,13.25,0,19.875c-0.021,0.232,0.105,0.455,0.318,0.558
		c1.564,0.886,3.133,1.771,4.699,2.653c0.882,0.475,1.965,0.758,2.938,0.394c0.858-0.308,1.459-1.185,1.443-2.097
		c0.008-6.585-0.004-13.17,0.006-19.754c-0.021-0.293,0.256-0.534,0.541-0.507c0.752-0.005,1.504-0.01,2.258,0.002
		c0.312-0.007,0.529,0.307,0.49,0.603c-0.003,6.626,0.008,13.255-0.005,19.881c0.002,1.768-0.724,3.69-2.358,4.555
		c-2.012,1.041-4.5,0.819-6.488-0.181c-1.721-0.858-3.362-1.872-5.055-2.794c-1.175-0.605-1.986-1.879-1.979-3.209V13.961
		c-0.014-1.306,0.76-2.565,1.906-3.182C75.536,7.458,81.422,4.133,87.307,0.81z"/>
	<path fill="#8CC84B" d="M92.443,14.719c2.564-0.165,5.313-0.098,7.625,1.168c1.787,0.969,2.779,3.002,2.812,4.991
		c-0.05,0.267-0.329,0.415-0.586,0.397c-0.746-0.001-1.489,0.01-2.235-0.005c-0.314,0.011-0.498-0.279-0.539-0.56
		c-0.215-0.95-0.73-1.891-1.627-2.35c-1.373-0.688-2.967-0.653-4.465-0.639c-1.095,0.057-2.27,0.152-3.195,0.795
		c-0.713,0.487-0.928,1.471-0.674,2.262c0.239,0.569,0.896,0.752,1.434,0.922c3.095,0.809,6.371,0.729,9.406,1.793
		c1.258,0.434,2.485,1.278,2.916,2.593c0.562,1.766,0.316,3.871-0.938,5.287c-1.019,1.165-2.499,1.8-3.978,2.145
		c-1.965,0.438-4.006,0.447-6.004,0.254c-1.875-0.213-3.83-0.707-5.278-1.986c-1.239-1.075-1.845-2.751-1.784-4.37
		c0.014-0.272,0.286-0.465,0.548-0.44c0.751-0.008,1.501-0.01,2.25,0.002c0.3-0.023,0.522,0.234,0.538,0.519
		c0.139,0.905,0.479,1.856,1.27,2.396c1.523,0.981,3.436,0.916,5.183,0.942c1.446-0.065,3.069-0.084,4.249-1.041
		c0.623-0.543,0.809-1.455,0.641-2.242c-0.183-0.661-0.877-0.969-1.472-1.173c-3.054-0.966-6.37-0.613-9.396-1.707
		c-1.227-0.434-2.414-1.254-2.887-2.517c-0.658-1.785-0.355-3.994,1.029-5.361C88.637,15.431,90.588,14.906,92.443,14.719
		L92.443,14.719z"/>
</g>
<path fill="#5D87A1" d="M134.965,36.857h-1.79c-0.063-3.021-0.237-5.859-0.522-8.521h-0.016l-2.725,8.521h-1.361l-2.708-8.521
	h-0.015c-0.201,2.554-0.328,5.394-0.38,8.521h-1.632c0.104-3.801,0.369-7.364,0.791-10.689h2.219l2.58,7.854h0.016l2.598-7.854
	h2.121C134.605,30.064,134.879,33.625,134.965,36.857 M142.723,28.971c-0.729,3.953-1.688,6.824-2.883,8.618
	c-0.928,1.38-1.947,2.07-3.055,2.07c-0.297,0-0.66-0.091-1.094-0.267v-0.953c0.211,0.03,0.459,0.047,0.744,0.047
	c0.518,0,0.934-0.141,1.252-0.428c0.379-0.348,0.569-0.738,0.569-1.17c0-0.298-0.147-0.904-0.444-1.822l-1.963-6.097h1.758
	l1.408,4.56c0.316,1.035,0.45,1.76,0.396,2.171c0.771-2.06,1.309-4.302,1.615-6.73L142.723,28.971L142.723,28.971z"/>
<path fill="#F8981D" d="M166.537,36.857h-5.083V26.168h1.711v9.373h3.372V36.857z M160.123,37.115l-1.963-0.971
	c0.174-0.144,0.34-0.299,0.49-0.477c0.834-0.982,1.252-2.434,1.252-4.355c0-3.535-1.389-5.305-4.164-5.305
	c-1.36,0-2.424,0.448-3.184,1.348c-0.834,0.98-1.252,2.429-1.252,4.338c0,1.88,0.37,3.259,1.107,4.132
	c0.677,0.792,1.695,1.188,3.058,1.188c0.511,0,0.974-0.062,1.399-0.188l2.558,1.488L160.123,37.115z M153.758,34.718
	c-0.432-0.696-0.646-1.812-0.646-3.354c0-2.691,0.818-4.038,2.453-4.038c0.855,0,1.481,0.321,1.885,0.965
	c0.433,0.696,0.648,1.806,0.648,3.325c0,2.714-0.818,4.068-2.453,4.068C154.788,35.686,154.161,35.363,153.758,34.718
	 M150.561,33.893c0,0.908-0.332,1.65-0.998,2.232c-0.666,0.581-1.557,0.872-2.674,0.872c-1.047,0-2.061-0.334-3.041-0.998
	l0.459-0.919c0.844,0.425,1.608,0.634,2.295,0.634c0.646,0,1.147-0.144,1.514-0.425c0.363-0.285,0.58-0.686,0.58-1.188
	c0-0.636-0.442-1.179-1.254-1.633c-0.75-0.412-2.248-1.271-2.248-1.271c-0.812-0.593-1.219-1.229-1.219-2.274
	c0-0.865,0.303-1.564,0.91-2.099s1.391-0.8,2.352-0.8c0.992,0,1.896,0.266,2.707,0.791l-0.412,0.918
	c-0.694-0.295-1.381-0.44-2.057-0.44c-0.55,0-0.972,0.13-1.268,0.396c-0.295,0.264-0.479,0.602-0.479,1.014
	c0,0.633,0.453,1.182,1.287,1.646c0.758,0.412,2.295,1.286,2.295,1.286C150.145,32.227,150.561,32.855,150.561,33.893"/>
<path fill="#5D87A1" d="M168.682,22.587c-1.031-0.025-1.834,0.077-2.504,0.363c-0.195,0.075-0.503,0.075-0.529,0.321
	c0.104,0.103,0.117,0.272,0.209,0.415c0.154,0.258,0.424,0.605,0.67,0.786c0.271,0.209,0.543,0.414,0.828,0.594
	c0.502,0.312,1.07,0.49,1.561,0.801c0.285,0.181,0.57,0.415,0.854,0.607c0.143,0.104,0.232,0.27,0.414,0.336v-0.039
	c-0.092-0.116-0.117-0.285-0.205-0.414l-0.39-0.373c-0.375-0.504-0.841-0.942-1.342-1.305c-0.415-0.285-1.317-0.673-1.485-1.147
	l-0.027-0.027c0.285-0.026,0.623-0.131,0.892-0.207c0.44-0.117,0.84-0.09,1.291-0.206c0.207-0.054,0.413-0.117,0.622-0.182v-0.116
	c-0.232-0.232-0.398-0.542-0.646-0.763c-0.658-0.567-1.383-1.123-2.131-1.588c-0.402-0.259-0.918-0.426-1.345-0.646
	c-0.153-0.078-0.413-0.116-0.504-0.245c-0.231-0.284-0.362-0.658-0.53-0.994c-0.373-0.711-0.734-1.497-1.06-2.248
	c-0.231-0.504-0.374-1.006-0.657-1.472c-1.331-2.195-2.777-3.525-4.998-4.83c-0.479-0.272-1.045-0.388-1.652-0.53l-0.969-0.051
	c-0.208-0.092-0.412-0.336-0.595-0.453c-0.736-0.465-2.636-1.471-3.177-0.141c-0.35,0.84,0.517,1.665,0.812,2.092
	c0.222,0.296,0.507,0.633,0.659,0.969c0.09,0.219,0.115,0.453,0.208,0.685c0.206,0.568,0.399,1.2,0.671,1.731
	c0.143,0.27,0.296,0.554,0.479,0.799c0.104,0.144,0.283,0.206,0.324,0.439c-0.182,0.258-0.193,0.646-0.301,0.969
	c-0.463,1.459-0.281,3.268,0.376,4.339c0.207,0.323,0.698,1.034,1.354,0.761c0.584-0.232,0.455-0.968,0.621-1.613
	c0.039-0.156,0.014-0.258,0.092-0.359v0.023c0.18,0.362,0.361,0.71,0.527,1.072c0.401,0.632,1.102,1.291,1.68,1.729
	c0.311,0.233,0.556,0.634,0.943,0.777v-0.039h-0.027c-0.076-0.116-0.19-0.17-0.295-0.258c-0.231-0.232-0.49-0.517-0.672-0.775
	c-0.541-0.724-1.02-1.524-1.445-2.351c-0.207-0.402-0.389-0.84-0.557-1.24c-0.076-0.154-0.076-0.388-0.207-0.465
	c-0.193,0.283-0.478,0.529-0.619,0.877c-0.246,0.557-0.271,1.24-0.361,1.952l-0.053,0.024c-0.409-0.104-0.553-0.529-0.709-0.891
	c-0.387-0.917-0.453-2.391-0.117-3.448c0.091-0.271,0.479-1.124,0.324-1.381c-0.078-0.247-0.336-0.389-0.479-0.583
	c-0.166-0.244-0.349-0.555-0.464-0.826c-0.311-0.723-0.469-1.523-0.801-2.246c-0.155-0.337-0.426-0.686-0.646-0.996
	c-0.245-0.348-0.518-0.593-0.712-1.006c-0.062-0.143-0.154-0.375-0.05-0.529c0.024-0.104,0.077-0.143,0.181-0.168
	c0.166-0.143,0.646,0.037,0.812,0.115c0.479,0.193,0.88,0.375,1.279,0.646c0.181,0.13,0.375,0.375,0.606,0.44h0.271
	c0.412,0.09,0.877,0.024,1.268,0.141c0.684,0.221,1.305,0.543,1.859,0.892c1.69,1.072,3.086,2.597,4.027,4.417
	c0.154,0.297,0.219,0.568,0.361,0.878c0.271,0.634,0.607,1.278,0.879,1.899c0.271,0.606,0.529,1.225,0.916,1.729
	c0.193,0.271,0.973,0.413,1.318,0.556c0.256,0.115,0.658,0.219,0.892,0.36c0.438,0.271,0.876,0.582,1.29,0.88
	C167.998,22.006,168.645,22.328,168.682,22.587 M155.509,11.363c-0.177-0.001-0.356,0.021-0.526,0.066v0.025h0.023
	c0.104,0.206,0.285,0.35,0.413,0.529c0.104,0.208,0.194,0.413,0.297,0.619l0.024-0.025c0.184-0.129,0.271-0.336,0.271-0.645
	c-0.076-0.092-0.089-0.181-0.156-0.272C155.781,11.532,155.613,11.468,155.509,11.363"/>
<path fill="#F8981D" d="M169.912,36.854h0.268v-1.309h-0.4l-0.325,0.893l-0.356-0.893h-0.387v1.309h0.253v-0.996h0.015l0.371,0.996
	h0.192l0.371-0.996L169.912,36.854L169.912,36.854z M167.758,36.854h0.282v-1.086h0.371v-0.224h-1.039v0.224h0.385L167.758,36.854
	L167.758,36.854z"/>
<path fill="#FFFFFF" d="M-2.467,24.188c0,3.999,3.903,7.73,10.057,9.832c-1.229,6.188-0.22,11.174,3.149,13.118
	c3.465,1.997,8.623,0.612,13.519-3.667c4.774,4.108,9.6,5.725,12.964,3.775c3.461-2.003,4.513-7.326,3.251-13.708
	c6.409-2.117,9.996-5.302,9.996-9.351c0-3.905-3.913-7.283-9.982-9.374c1.359-6.644,0.207-11.509-3.302-13.533
	c-3.384-1.95-8.263-0.25-13.107,3.965c-5.04-4.474-9.871-5.84-13.376-3.811C7.321,3.392,6.356,8.47,7.589,14.771
	C1.643,16.843-2.467,20.298-2.467,24.188z"/>
<path fill="#53C1DE" d="M39.198,16.89c-0.499-0.171-1.004-0.331-1.513-0.478c0.083-0.342,0.162-0.687,0.232-1.032
	c1.147-5.562,0.398-10.04-2.16-11.515c-2.451-1.415-6.464,0.06-10.515,3.586c-0.398,0.347-0.789,0.706-1.17,1.072
	c-0.256-0.244-0.516-0.484-0.78-0.719c-4.245-3.77-8.5-5.358-11.055-3.879c-2.45,1.419-3.177,5.63-2.144,10.901
	c0.102,0.521,0.218,1.041,0.347,1.556c-0.604,0.171-1.185,0.354-1.741,0.547c-4.978,1.736-8.156,4.456-8.156,7.276
	c0,2.915,3.411,5.836,8.596,7.609c0.42,0.143,0.844,0.274,1.271,0.396c-0.139,0.556-0.262,1.116-0.37,1.68
	c-0.982,5.178-0.216,9.289,2.228,10.7c2.525,1.455,6.761-0.042,10.886-3.647c0.325-0.284,0.654-0.585,0.981-0.904
	c0.412,0.4,0.836,0.785,1.268,1.163c3.997,3.438,7.942,4.825,10.385,3.412c2.522-1.46,3.341-5.879,2.278-11.25
	c-0.081-0.412-0.176-0.833-0.282-1.258c0.297-0.089,0.589-0.179,0.874-0.274c5.39-1.785,8.896-4.673,8.896-7.625
	C47.558,21.375,44.276,18.637,39.198,16.89L39.198,16.89z"/>
<path fill="#FFFFFF" d="M38.03,29.924c-0.26,0.088-0.521,0.168-0.789,0.248c-0.595-1.885-1.399-3.887-2.381-5.956
	c0.938-2.02,1.71-3.997,2.289-5.868c0.479,0.139,0.947,0.285,1.397,0.44c4.352,1.498,7.004,3.712,7.004,5.418
	C45.55,26.023,42.684,28.384,38.03,29.924L38.03,29.924z M36.099,33.752c0.472,2.376,0.541,4.522,0.227,6.203
	c-0.278,1.512-0.844,2.518-1.54,2.919c-1.48,0.858-4.649-0.258-8.066-3.197c-0.392-0.339-0.786-0.694-1.181-1.078
	c1.324-1.447,2.647-3.134,3.941-5.003c2.271-0.203,4.419-0.533,6.364-0.979C35.941,33,36.026,33.382,36.099,33.752L36.099,33.752z
	 M16.573,42.727c-1.447,0.511-2.6,0.523-3.297,0.121c-1.482-0.855-2.099-4.157-1.259-8.583c0.099-0.523,0.214-1.043,0.342-1.561
	c1.925,0.426,4.058,0.731,6.336,0.916c1.301,1.831,2.663,3.513,4.037,4.987c-0.292,0.282-0.591,0.555-0.896,0.824
	C20.012,41.025,18.185,42.155,16.573,42.727L16.573,42.727z M9.792,29.916C7.5,29.131,5.606,28.112,4.31,27
	c-1.167-0.999-1.755-1.989-1.755-2.794c0-1.712,2.552-3.895,6.809-5.379c0.535-0.186,1.075-0.355,1.617-0.509
	c0.588,1.913,1.36,3.915,2.292,5.937c-0.945,2.054-1.726,4.087-2.321,6.022C10.563,30.166,10.177,30.045,9.792,29.916z
	 M12.065,14.441c-0.882-4.516-0.295-7.922,1.181-8.777c1.573-0.911,5.05,0.388,8.716,3.642c0.234,0.208,0.47,0.426,0.706,0.652
	c-1.367,1.466-2.714,3.136-4.003,4.956c-2.212,0.204-4.328,0.534-6.274,0.974C12.269,15.409,12.161,14.925,12.065,14.441
	L12.065,14.441z M32.344,19.447c-0.459-0.794-0.935-1.577-1.429-2.351c1.499,0.189,2.937,0.442,4.286,0.749
	c-0.404,1.298-0.91,2.657-1.505,4.048C33.262,21.07,32.812,20.253,32.344,19.447L32.344,19.447z M24.075,11.393
	c0.926,1.003,1.853,2.125,2.767,3.34c-1.853-0.088-3.707-0.088-5.558-0.001C22.197,13.526,23.134,12.408,24.075,11.393z
	 M15.752,19.461c-0.461,0.8-0.904,1.61-1.328,2.431c-0.584-1.386-1.085-2.75-1.494-4.067c1.342-0.3,2.772-0.546,4.263-0.732
	C16.695,17.872,16.214,18.661,15.752,19.461z M17.237,31.463c-1.54-0.172-2.993-0.405-4.334-0.698
	c0.416-1.338,0.926-2.73,1.524-4.148c0.425,0.821,0.869,1.632,1.333,2.432C16.233,29.864,16.725,30.669,17.237,31.463z
	 M24.129,37.159c-0.953-1.024-1.902-2.162-2.829-3.384c0.9,0.035,1.818,0.054,2.751,0.054c0.958,0,1.905-0.022,2.838-0.064
	C25.976,35.012,25.05,36.148,24.129,37.159z M33.717,26.543c0.626,1.434,1.157,2.82,1.578,4.135
	c-1.361,0.312-2.835,0.564-4.385,0.749c0.495-0.787,0.978-1.587,1.441-2.392C32.825,28.215,33.28,27.386,33.717,26.543
	L33.717,26.543z M30.612,28.029c-0.712,1.24-1.463,2.451-2.256,3.64c-1.395,0.1-2.835,0.151-4.305,0.151
	c-1.462,0-2.886-0.044-4.256-0.133c-0.811-1.186-1.577-2.402-2.297-3.645c-0.716-1.237-1.385-2.501-2.005-3.79
	c0.618-1.287,1.285-2.55,2-3.79v0.001c0.713-1.237,1.474-2.45,2.279-3.63c1.398-0.105,2.832-0.161,4.28-0.161
	c1.456,0,2.891,0.056,4.289,0.162c0.797,1.179,1.554,2.386,2.267,3.617c0.714,1.234,1.391,2.494,2.024,3.773
	C32.004,25.518,31.33,26.788,30.612,28.029L30.612,28.029z M34.756,5.606c1.573,0.907,2.186,4.568,1.199,9.37
	c-0.067,0.311-0.136,0.624-0.214,0.933c-1.95-0.45-4.068-0.785-6.284-0.992c-1.293-1.84-2.633-3.512-3.975-4.961
	c0.352-0.338,0.712-0.669,1.081-0.992C30.033,5.945,33.278,4.752,34.756,5.606L34.756,5.606z"/>
<path fill="#53C1DE" d="M24.051,20.008c2.319,0,4.2,1.88,4.2,4.198c0,2.319-1.881,4.201-4.2,4.201c-2.318,0-4.197-1.882-4.197-4.201
	C19.854,21.889,21.734,20.008,24.051,20.008"/>
</svg>
